<?xml version="1.0" standalone="no"?>
<!DOCTYPE svg PUBLIC "-//W3C//DTD SVG 1.1//EN" "http://www.w3.org/Graphics/SVG/1.1/DTD/svg11.dtd" >
<svg xmlns="http://www.w3.org/2000/svg" xmlns:xlink="http://www.w3.org/1999/xlink" version="1.1">
<metadata>
Created by FontForge 20170924 at Sun Feb 15 16:31:18 2015
 By www-data
(c) 2014 Sergiy S. Tkachenko / 4th february
(c) 2014 FirstSiteGuide.com
http://creativecommons.org/licenses/by-nd/4.0/
</metadata>
<defs>
<font id="BloggerSans-Medium" horiz-adv-x="260" >
  <font-face 
    font-family="Blogger Sans Medium"
    font-weight="500"
    font-stretch="squinchy"
    units-per-em="1000"
    panose-1="2 0 5 6 3 0 0 2 0 4"
    ascent="760"
    descent="-240"
    x-height="505"
    cap-height="706"
    bbox="-69.5333 -242 882 948"
    underline-thickness="20"
    underline-position="-143"
    unicode-range="U+0021-F0434"
  />
<missing-glyph horiz-adv-x="760" 
 />
    <glyph glyph-name="ff" unicode="ff" horiz-adv-x="688" 
d="M69 0zM69 532q0 48 15 83.5t40.5 59t60 35.5t73.5 13q8 0 25.5 -0.5t35.5 -6t32 -17t14 -32.5q0 -23 -16 -35.5t-37 -12.5q-14 0 -28.5 3t-31.5 3q-38 0 -56.5 -25.5t-18.5 -60.5v-55h89q21 0 36 -14t15 -35q0 -20 -15 -34t-36 -14h-89v-343q0 -20 -14 -34.5t-40 -14.5
t-40 14.5t-14 34.5v488zM408 532q0 48 15 83.5t40.5 59t60 35.5t73.5 13q8 0 25.5 -0.5t35.5 -6t32 -17t14 -32.5q0 -23 -16 -35.5t-37 -12.5q-14 0 -28.5 3t-31.5 3q-38 0 -56.5 -25.5t-18.5 -60.5v-55h89q21 0 36 -14t15 -35q0 -20 -15 -34t-36 -14h-89v-343
q0 -20 -14 -34.5t-40 -14.5t-40 14.5t-14 34.5v488z" />
    <glyph glyph-name="fi" unicode="fi" horiz-adv-x="604" 
d="M69 0zM69 532q0 48 15 83.5t40.5 59t60 35.5t73.5 13q8 0 25.5 -0.5t35.5 -6t32 -17t14 -32.5q0 -23 -16 -35.5t-37 -12.5q-14 0 -28.5 3t-31.5 3q-38 0 -56.5 -25.5t-18.5 -60.5v-55h89q21 0 36 -14t15 -35q0 -20 -15 -34t-36 -14h-89v-343q0 -20 -14 -34.5t-40 -14.5
t-40 14.5t-14 34.5v488zM534 656q-1 -25 -19 -42t-44 -17q-27 0 -45 17.5t-18 41.5q0 25 18 42t45 17q26 0 44.5 -17.5t18.5 -41.5zM525 43q0 -22 -15.5 -36t-38.5 -14t-38.5 14t-15.5 36v417q0 20 15.5 35t38.5 15t38.5 -15t15.5 -35v-417z" />
    <glyph glyph-name="fl" unicode="fl" horiz-adv-x="587" 
d="M69 0zM69 532q0 48 15 83.5t40.5 59t60 35.5t73.5 13q8 0 25.5 -0.5t35.5 -6t32 -17t14 -32.5q0 -23 -16 -35.5t-37 -12.5q-14 0 -28.5 3t-31.5 3q-38 0 -56.5 -25.5t-18.5 -60.5v-55h89q21 0 36 -14t15 -35q0 -20 -15 -34t-36 -14h-89v-343q0 -20 -14 -34.5t-40 -14.5
t-40 14.5t-14 34.5v488zM487 -8q-12 0 -26 3.5t-25.5 15t-19.5 33.5t-8 58v571q0 20 15.5 35t38.5 15t38.5 -14.5t15.5 -35.5v-565q0 -16 2 -24.5t12 -19.5q5 -5 9 -10.5t4 -16.5q0 -21 -15 -33t-41 -12z" />
    <glyph glyph-name="ffi" unicode="ffi" horiz-adv-x="943" 
d="M69 0zM69 532q0 48 15 83.5t40.5 59t60 35.5t73.5 13q8 0 25.5 -0.5t35.5 -6t32 -17t14 -32.5q0 -23 -16 -35.5t-37 -12.5q-14 0 -28.5 3t-31.5 3q-38 0 -56.5 -25.5t-18.5 -60.5v-55h89q21 0 36 -14t15 -35q0 -20 -15 -34t-36 -14h-89v-343q0 -20 -14 -34.5t-40 -14.5
t-40 14.5t-14 34.5v488zM408 532q0 48 15 83.5t40.5 59t60 35.5t73.5 13q8 0 25.5 -0.5t35.5 -6t32 -17t14 -32.5q0 -23 -16 -35.5t-37 -12.5q-14 0 -28.5 3t-31.5 3q-38 0 -56.5 -25.5t-18.5 -60.5v-55h89q21 0 36 -14t15 -35q0 -20 -15 -34t-36 -14h-89v-343
q0 -20 -14 -34.5t-40 -14.5t-40 14.5t-14 34.5v488zM873 656q-1 -25 -19 -42t-44 -17q-27 0 -45 17.5t-18 41.5q0 25 18 42t45 17q26 0 44.5 -17.5t18.5 -41.5zM864 43q0 -22 -15.5 -36t-38.5 -14t-38.5 14t-15.5 36v417q0 20 15.5 35t38.5 15t38.5 -15t15.5 -35v-417z" />
    <glyph glyph-name="ffl" unicode="ffl" horiz-adv-x="926" 
d="M69 0zM69 532q0 48 15 83.5t40.5 59t60 35.5t73.5 13q8 0 25.5 -0.5t35.5 -6t32 -17t14 -32.5q0 -23 -16 -35.5t-37 -12.5q-14 0 -28.5 3t-31.5 3q-38 0 -56.5 -25.5t-18.5 -60.5v-55h89q21 0 36 -14t15 -35q0 -20 -15 -34t-36 -14h-89v-343q0 -20 -14 -34.5t-40 -14.5
t-40 14.5t-14 34.5v488zM408 532q0 48 15 83.5t40.5 59t60 35.5t73.5 13q8 0 25.5 -0.5t35.5 -6t32 -17t14 -32.5q0 -23 -16 -35.5t-37 -12.5q-14 0 -28.5 3t-31.5 3q-38 0 -56.5 -25.5t-18.5 -60.5v-55h89q21 0 36 -14t15 -35q0 -20 -15 -34t-36 -14h-89v-343
q0 -20 -14 -34.5t-40 -14.5t-40 14.5t-14 34.5v488zM826 -8q-12 0 -26 3.5t-25.5 15t-19.5 33.5t-8 58v571q0 20 15.5 35t38.5 15t38.5 -14.5t15.5 -35.5v-565q0 -16 2 -24.5t12 -19.5q5 -5 9 -10.5t4 -16.5q0 -21 -15 -33t-41 -12z" />
    <glyph glyph-name="uni0457_uni0457" unicode="&#x457;&#x457;" horiz-adv-x="520" 
d="M186 43q0 -22 -15.5 -36.5t-38.5 -14.5t-38.5 14.5t-15.5 36.5v417q0 20 15.5 35t38.5 15t38.5 -15t15.5 -35v-417zM319 624q0 -24 -17.5 -41t-41.5 -17q-25 0 -42.5 17.5t-17.5 40.5t17.5 40t42.5 17q24 0 41.5 -16.5t17.5 -40.5zM99 624q0 -24 -17 -41t-42 -17
t-41.5 17.5t-16.5 40.5t16.5 40t41.5 17t42 -16.5t17 -40.5zM441 43q0 -22 -15.5 -36.5t-38.5 -14.5t-38.5 14.5t-15.5 36.5v417q0 20 15.5 35t38.5 15t38.5 -15t15.5 -35v-417zM538 624q0 -24 -17.5 -41t-41.5 -17q-25 0 -42.5 17.5t-17.5 40.5t17.5 40t42.5 17
q24 0 41.5 -16.5t17.5 -40.5z" />
    <glyph glyph-name=".notdef" horiz-adv-x="760" 
 />
    <glyph glyph-name=".null" horiz-adv-x="0" 
 />
    <glyph glyph-name="nonmarkingreturn" horiz-adv-x="300" 
 />
    <glyph glyph-name="space" unicode="&#xa0;" horiz-adv-x="300" 
 />
    <glyph glyph-name="space" unicode=" " horiz-adv-x="300" 
 />
    <glyph glyph-name="numbersign" unicode="#" horiz-adv-x="561" 
d="M169 491l39 170q5 20 19.5 35t36.5 15q20 -2 33 -18.5t13 -31.5v-3q-7 -42 -17.5 -83.5t-20.5 -83.5h77l39 170q5 20 19.5 35t36.5 15q20 -2 33 -18.5t13 -31.5v-4q-7 -42 -17.5 -83.5t-20.5 -82.5q13 0 25.5 -2.5t22.5 -8t16.5 -15.5t6.5 -25q0 -22 -15.5 -36.5
t-38.5 -14.5h-40l-17 -70h27q8 0 17.5 -4t17.5 -11t13.5 -16.5t5.5 -20.5q0 -27 -19 -39t-46 -12h-39l-40 -172q-5 -23 -19.5 -36.5t-36.5 -13.5q-7 1 -12 5.5t-5 12.5q-14 2 -21.5 13t-7.5 25l38 166h-76l-40 -172q-3 -11 -10 -19t-16 -13.5t-18.5 -8.5t-16.5 -3
q-17 0 -29.5 12.5t-12.5 30.5l39 173q-29 0 -48.5 11.5t-19.5 39.5q0 22 16.5 37t37.5 15h38l16 70h-24q-20 0 -37 14t-17 37q0 22 16.5 36.5t37.5 14.5h48zM232 319h77l16 70h-76z" />
    <glyph glyph-name="dollar" unicode="$" horiz-adv-x="513" 
d="M231 20q-29 1 -62 6t-62 15t-48 26t-19 38q0 20 14.5 34.5t40.5 14.5q14 0 28 -4.5t30 -10t35 -10.5t43 -6v188q-35 11 -69 24.5t-61 34t-43.5 52t-16.5 78.5q0 83 51 130t139 53v50q0 11 7.5 18.5t18.5 7.5t18.5 -7.5t7.5 -18.5v-50q24 -2 52 -6t52 -13t40.5 -23.5
t16.5 -35.5q0 -20 -15 -35t-40 -15q-12 0 -22 3.5t-22 8t-26.5 8.5t-35.5 6v-178q36 -12 70 -25t60.5 -33.5t43 -51t16.5 -76.5q0 -43 -14 -77t-39.5 -58.5t-60.5 -39.5t-76 -20v-50q0 -11 -7.5 -18.5t-18.5 -7.5t-18.5 7.5t-7.5 18.5v48zM359 209q-1 35 -17 51t-32 23
l-27 11v-168q76 14 76 83zM231 421v159q-32 -5 -54.5 -21.5t-22.5 -52.5q0 -17 5 -29.5t12.5 -21t16 -14t16.5 -8.5z" />
    <glyph glyph-name="percent" unicode="%" horiz-adv-x="723" 
d="M532 -10q-37 0 -65.5 13t-47.5 35.5t-28.5 53t-9.5 66.5q0 35 10 65.5t29 53t47 35.5t65 13q36 0 64.5 -13t47.5 -35.5t29 -53t10 -65.5q0 -36 -10 -66.5t-29 -53t-47 -35.5t-65 -13zM238 23q-9 -17 -26 -23t-36 -1q-19 7 -27.5 24.5t-3.5 36.5l4 10l337 621
q10 16 26.5 21.5t34.5 0.5t28 -21t5 -34q-1 -3 -2 -7t-3 -6zM532 77q29 0 43.5 21.5t14.5 61.5q0 37 -14.5 57.5t-43.5 20.5q-30 0 -44 -20.5t-14 -57.5q0 -40 14 -61.5t44 -21.5zM191 467q29 0 43.5 21.5t14.5 61.5q0 37 -14.5 57.5t-43.5 20.5q-30 0 -44 -20.5t-14 -57.5
q0 -40 14 -61.5t44 -21.5zM191 380q-37 0 -65 13t-47 35.5t-29 53t-10 66.5q0 35 9.5 65.5t28.5 53t47.5 35.5t65.5 13t65 -13t47 -35.5t29 -53t10 -65.5q0 -36 -10 -66.5t-29 -53t-47 -35.5t-65 -13z" />
    <glyph glyph-name="ampersand" unicode="&#x26;" horiz-adv-x="662" 
d="M620 42q0 -20 -14 -35t-37 -15q-28 0 -51.5 25.5t-50.5 59.5q-38 -35 -87 -60.5t-116 -25.5q-50 0 -90.5 15t-70 41t-45.5 61.5t-16 77.5q0 38 12.5 69.5t32.5 57t45.5 45.5t51.5 36q-35 39 -54.5 77t-19.5 79q0 37 15 67t40.5 51t59 32.5t69.5 11.5q37 0 69.5 -12
t56.5 -31t38 -43.5t14 -49.5q0 -12 -6 -21t-14.5 -15.5t-18.5 -9.5t-17 -3q-22 0 -32 13t-18.5 29t-21.5 29t-40 13q-12 0 -26.5 -5t-28 -13.5t-22.5 -20t-9 -24.5q0 -28 22.5 -57.5t47.5 -57.5l177 -195q12 19 22 41.5t20.5 41t22.5 31t27 12.5q19 0 38 -14t19 -37
q0 -15 -7 -34.5t-18.5 -40.5t-25 -42.5t-26.5 -39.5l70 -82q5 -5 9 -13t4 -19zM249 319q-19 -11 -37 -23.5t-32 -27.5t-22.5 -33.5t-8.5 -40.5q0 -21 7.5 -40.5t21.5 -34t34.5 -23.5t46.5 -9q44 0 77.5 19t61.5 48z" />
    <glyph glyph-name="quotesingle" unicode="'" horiz-adv-x="242" 
d="M88 720q3 18 21 29t38 9q21 -4 33.5 -19.5t7.5 -33.5q-3 -14 -10.5 -46t-15 -67t-15 -67t-10.5 -46q-4 -14 -17 -22t-27 -6q-15 2 -23.5 15.5t-6.5 27.5z" />
    <glyph glyph-name="parenleft" unicode="(" horiz-adv-x="296" 
d="M169 226q0 -97 22 -191t72 -179q5 -8 8.5 -15.5t3.5 -17.5q0 -20 -13 -37t-40 -17q-30 0 -46 25q-62 97 -89 209t-27 223q0 110 27 222.5t89 209.5q16 25 46 25q27 0 40 -17t13 -38q0 -9 -3.5 -16.5t-8.5 -15.5q-50 -85 -72 -179t-22 -191z" />
    <glyph glyph-name="parenright" unicode=")" horiz-adv-x="295" 
d="M126 226q0 97 -22.5 191t-71.5 179q-5 8 -8.5 15.5t-3.5 16.5q0 21 12.5 38t40.5 17q14 0 26 -6t20 -19q61 -97 88.5 -209.5t27.5 -222.5q0 -111 -27.5 -223t-88.5 -209q-8 -13 -20 -19t-26 -6q-28 0 -40.5 17t-12.5 37q0 10 3.5 17.5t8.5 15.5q49 85 71.5 179t22.5 191z
" />
    <glyph glyph-name="asterisk" unicode="*" horiz-adv-x="515" 
d="M398 419q4 -5 3.5 -10t-0.5 -10q0 -17 -14 -32.5t-36 -15.5q-16 0 -28.5 11.5t-24 28t-21 35t-19.5 32.5q-10 -14 -20 -32.5t-21.5 -35t-24 -28t-28.5 -11.5q-22 0 -36 15.5t-14 32.5q0 5 -0.5 10t3.5 10l72 89l-88 18q-19 4 -35 16t-16 32q0 24 15 36t30 12q8 0 11 -1
q28 -10 55.5 -21t55.5 -21l-9 90q-1 3 -1 8q0 7 2.5 16.5t8.5 17.5t15.5 14t23.5 6t23.5 -6t15.5 -14t8.5 -17.5t2.5 -16.5q0 -5 -1 -8l-9 -90q28 10 55.5 21t55.5 21q3 1 11 1q15 0 30 -12t15 -36q0 -20 -16 -32t-35 -16l-88 -18z" />
    <glyph glyph-name="plus" unicode="+" horiz-adv-x="520" 
d="M206 302h-140q-23 0 -38.5 15t-15.5 37t16.5 36.5t37.5 14.5h140v149q0 20 15.5 36t38.5 16t38.5 -15t15.5 -37v-149h140q20 0 37 -14.5t17 -36.5t-15.5 -37t-38.5 -15h-140v-149q0 -22 -15.5 -36.5t-38.5 -14.5t-38.5 15.5t-15.5 35.5v149z" />
    <glyph glyph-name="comma" unicode="," horiz-adv-x="250" 
d="M78 -99q0 12 4.5 22t10 20t11 21.5t9.5 27.5q-25 4 -41 22t-16 43q0 26 20 45.5t49 19.5q27 0 47.5 -19t20.5 -48q0 -24 -8 -56t-20.5 -60.5t-27.5 -48.5t-29 -20q-10 0 -21 5.5t-9 25.5z" />
    <glyph glyph-name="hyphen" unicode="-" horiz-adv-x="419" 
d="M385 297q0 -20 -15 -34t-36 -14h-249q-23 0 -37.5 14t-14.5 34t14.5 34.5t37.5 14.5h249q21 0 36 -14.5t15 -34.5z" />
    <glyph glyph-name="period" unicode="." horiz-adv-x="250" 
d="M193 57q0 -27 -20 -47t-48 -20q-29 0 -49 20t-20 47q0 26 20 45.5t49 19.5q28 0 48 -19.5t20 -45.5z" />
    <glyph glyph-name="slash" unicode="/" horiz-adv-x="320" 
d="M80 -10q-6 -16 -20 -25t-30 -9q-21 0 -36.5 14.5t-15.5 33.5q0 6 1 10l260 710q6 17 19 25.5t29 8.5q23 0 38 -16.5t15 -36.5q0 -4 -1 -8.5t-3 -7.5z" />
    <glyph glyph-name="zero" unicode="0" horiz-adv-x="520" 
d="M260 626q-58 0 -82.5 -35.5t-24.5 -92.5v-294q0 -52 27 -83.5t80 -31.5q52 0 79.5 31.5t27.5 83.5v294q0 57 -25 92.5t-82 35.5zM260 724q56 0 97 -18.5t67.5 -50t39 -74.5t12.5 -91v-286q0 -45 -14 -84t-41.5 -68t-68 -45.5t-92.5 -16.5q-53 0 -93 16.5t-67.5 45.5
t-41.5 68t-14 84v286q0 48 12.5 91t39 74.5t67 50t97.5 18.5z" />
    <glyph glyph-name="one" unicode="1" horiz-adv-x="520" 
d="M266 577l-101 -64q-13 -8 -25.5 -14t-26.5 -6q-17 0 -33 11.5t-16 34.5q0 31 24 45l198 121q8 5 15.5 7t15.5 2q25 0 42 -16t17 -39v-616q0 -20 -16 -36t-39 -16t-39 16t-16 36v534z" />
    <glyph glyph-name="two" unicode="2" horiz-adv-x="520" 
d="M479 50q0 -21 -15.5 -35.5t-38.5 -14.5h-329q-25 0 -40.5 15.5t-15.5 38.5q0 10 1 21.5t6 21.5q28 63 74 113t97 98q23 22 49.5 45t48.5 48.5t36.5 54t14.5 60.5q0 46 -27.5 78t-81.5 32q-27 0 -48.5 -4.5t-41.5 -12.5q-17 -8 -32.5 -18t-32.5 -10q-20 0 -36.5 13.5
t-16.5 35.5q0 23 22 40.5t54.5 29.5t68.5 18t64 6q51 0 91 -15.5t68 -42t42.5 -62.5t14.5 -77q0 -63 -21.5 -107.5t-54.5 -79.5q-28 -30 -59 -59t-61 -58t-57 -59t-46 -64h249q23 0 38.5 -14.5t15.5 -35.5z" />
    <glyph glyph-name="three" unicode="3" horiz-adv-x="520" 
d="M438 612q-38 -48 -76 -94.5t-76 -94.5q41 -4 75.5 -19t59 -40.5t38.5 -60.5t14 -78q0 -40 -13 -81.5t-40.5 -75t-70 -55t-102.5 -21.5q-17 0 -50 3t-66.5 12t-58.5 25.5t-25 43.5q0 20 14.5 35t36.5 15q13 0 26.5 -6t29.5 -13t35 -13t44 -6q37 0 62.5 12t40.5 31
t21.5 42.5t6.5 46.5q0 59 -35.5 84.5t-89.5 25.5q-11 0 -17.5 -1.5t-12.5 -4t-11.5 -4t-14.5 -1.5q-20 0 -33.5 14.5t-13.5 33.5q0 6 1.5 14.5t3.5 12.5l164 207h-191q-23 0 -38.5 15t-15.5 36q0 18 15.5 36t38.5 18h279q23 0 40.5 -15.5t17.5 -41.5q0 -19 -13 -37z" />
    <glyph glyph-name="four" unicode="4" horiz-adv-x="520" 
d="M429 42q0 -22 -15.5 -36.5t-38.5 -14.5t-38.5 14.5t-15.5 36.5v101h-235q-25 0 -40.5 16.5t-15.5 38.5q0 3 2 13t7 18l192 462q6 14 19.5 22.5t28.5 8.5q20 0 37 -15.5t17 -36.5q0 -4 -0.5 -8.5t-2.5 -9.5q-7 -17 -20.5 -49t-30 -72t-35 -83.5t-35 -83.5t-30 -72
t-20.5 -49h162v174q0 22 15.5 36.5t38.5 14.5q22 0 38 -14.5t16 -36.5v-174h28q22 0 37 -15t15 -35q0 -21 -15 -35.5t-37 -14.5h-28v-101z" />
    <glyph glyph-name="five" unicode="5" horiz-adv-x="520" 
d="M473 230q0 -43 -12.5 -85.5t-38.5 -76.5t-67.5 -55t-98.5 -21q-17 0 -51.5 3t-69.5 12t-61.5 25.5t-26.5 43.5q0 20 14.5 35t37.5 15q12 0 25 -6t29 -13t35 -13t45 -6q37 0 62.5 12t40.5 31.5t21.5 44t6.5 50.5q0 33 -8.5 56.5t-23.5 39.5t-35.5 23.5t-43.5 7.5
q-20 0 -35 -4t-29 -12q-4 -2 -11 -7t-15 -10t-17.5 -9t-19.5 -4q-24 0 -39.5 15.5t-15.5 40.5l10 287q1 26 19.5 41t41.5 15h241q10 0 20.5 -2.5t19.5 -8.5t15 -16t6 -24q0 -27 -19.5 -38t-41.5 -11h-202q-2 -43 -3.5 -86t-3.5 -87q19 9 39 12.5t42 3.5q48 0 88 -15t69 -43
t45 -69t16 -92z" />
    <glyph glyph-name="six" unicode="6" horiz-adv-x="520" 
d="M148 409q29 22 60 30t62 8q43 0 82 -14t68.5 -41.5t46.5 -69.5t17 -97q0 -48 -14 -90.5t-41.5 -74.5t-69.5 -50.5t-99 -18.5q-65 0 -108.5 25.5t-69 71t-36 108t-10.5 137.5q0 185 57.5 283t177.5 98q15 0 43 -2t56 -9.5t49 -21t21 -37.5q0 -17 -13.5 -31.5t-35.5 -14.5
q-21 0 -46.5 9t-60.5 11q-41 0 -66.5 -16t-40.5 -44.5t-21.5 -66.5t-7.5 -82zM146 284q0 -38 4.5 -72.5t17.5 -60.5t36.5 -42t60.5 -16q31 0 52 11t34 29t18.5 41.5t5.5 48.5q0 64 -30.5 94t-81.5 30q-35 0 -66.5 -12.5t-50.5 -32.5v-18z" />
    <glyph glyph-name="seven" unicode="7" horiz-adv-x="520" 
d="M475 652q0 -5 -1 -12.5t-4 -13.5l-249 -602q-5 -13 -17 -23t-32 -10q-22 0 -38.5 12.5t-17.5 34.5q0 5 1 11.5t3 11.5l227 541h-249q-21 0 -37 15t-16 37t15 37t38 15h320q23 0 40 -15.5t17 -38.5z" />
    <glyph glyph-name="eight" unicode="8" horiz-adv-x="520" 
d="M496 201q0 -45 -17.5 -84t-48.5 -67t-74.5 -44t-95.5 -16q-51 0 -94.5 15.5t-75 43t-49.5 65.5t-18 83q0 62 32 104.5t79 70.5q-38 26 -62 64t-24 90q0 43 17 78t45.5 59t67 37t81.5 13q44 0 82.5 -13.5t67 -37.5t45 -58t16.5 -75q0 -48 -22 -85t-64 -65q48 -29 80 -71.5
t32 -106.5zM363 526q0 41 -30 66.5t-73 25.5q-45 0 -74.5 -25.5t-29.5 -66.5q0 -43 31.5 -70t74.5 -35q42 10 71.5 37t29.5 68zM387 201q0 26 -11 46.5t-29 36t-41.5 25.5t-48.5 15q-53 -11 -89 -42.5t-36 -80.5q0 -24 9.5 -45t27 -36t41 -23.5t50.5 -8.5q28 0 51 9t40 24
t26.5 35.5t9.5 44.5z" />
    <glyph glyph-name="nine" unicode="9" horiz-adv-x="520" 
d="M371 296q-29 -22 -59.5 -30.5t-61.5 -8.5q-44 0 -82.5 14t-68 41.5t-46.5 69.5t-17 99q0 47 13.5 89.5t40.5 74.5t68.5 50.5t98.5 18.5q66 0 109.5 -25.5t69.5 -71t37 -109.5t11 -141q0 -185 -57.5 -280.5t-178.5 -95.5q-15 0 -43 2t-55.5 9t-48.5 21t-21 37
q0 17 13 31.5t36 14.5q20 0 46 -9.5t61 -9.5q40 0 66 16t41 44t21 66.5t7 82.5zM374 421q0 39 -5.5 73.5t-19.5 61t-37.5 41.5t-58.5 15q-30 0 -50.5 -11t-33.5 -29.5t-18.5 -42t-5.5 -48.5q0 -63 30 -93t82 -30q35 0 66.5 12.5t50.5 32.5v18z" />
    <glyph glyph-name="colon" unicode=":" horiz-adv-x="250" 
d="M56 0zM193 357q0 -27 -20 -47t-48 -20q-29 0 -49 20t-20 47q0 26 20 45.5t49 19.5q28 0 48 -19.5t20 -45.5zM193 57q0 -27 -20 -47t-48 -20q-29 0 -49 20t-20 47q0 26 20 45.5t49 19.5q28 0 48 -19.5t20 -45.5z" />
    <glyph glyph-name="semicolon" unicode=";" horiz-adv-x="250" 
d="M56 0zM78 -99q0 12 4.5 22t10 20t11 21.5t9.5 27.5q-25 4 -41 22t-16 43q0 26 20 45.5t49 19.5q27 0 47.5 -19t20.5 -48q0 -24 -8 -56t-20.5 -60.5t-27.5 -48.5t-29 -20q-10 0 -21 5.5t-9 25.5zM193 357q0 -27 -20 -47t-48 -20q-29 0 -49 20t-20 47q0 26 20 45.5t49 19.5
q28 0 48 -19.5t20 -45.5z" />
    <glyph glyph-name="less" unicode="&#x3c;" horiz-adv-x="645" 
d="M546 191q16 -8 26 -20.5t10 -26.5q0 -21 -14.5 -36.5t-35.5 -15.5q-8 0 -25.5 6.5t-33.5 14.5l-364 181q-19 11 -32.5 21.5t-13.5 36.5t13 36.5t32 21.5l365 181l14 7t16 7t15 5t11 2q23 0 38 -15t15 -37q0 -14 -10.5 -27t-25.5 -21l-332 -160z" />
    <glyph glyph-name="equal" unicode="=" horiz-adv-x="520" 
d="M414 404q20 0 37 -15t17 -37t-15.5 -36.5t-38.5 -14.5h-308q-23 0 -38.5 14.5t-15.5 36.5t16.5 37t37.5 15h308zM414 406q20 0 37 -14.5t17 -36.5t-15.5 -36.5t-38.5 -14.5h-308q-23 0 -38.5 14.5t-15.5 36.5t16.5 36.5t37.5 14.5h308z" />
    <glyph glyph-name="greater" unicode="&#x3e;" horiz-adv-x="645" 
d="M430 352l-331 160q-16 8 -26 21t-10 27q0 21 14.5 37t36.5 16q8 0 23.5 -6t29.5 -13l369 -184q20 -10 33 -21.5t13 -36.5q0 -26 -13.5 -36.5t-32.5 -21.5l-369 -183q-14 -8 -31 -13.5t-24 -5.5q-21 0 -35 15.5t-14 36.5q0 14 10 26.5t26 20.5z" />
    <glyph glyph-name="question" unicode="?" horiz-adv-x="482" 
d="M299 256q-5 -6 -6 -16.5t-1 -18.5q-4 -20 -18 -36t-37 -16q-26 0 -40.5 18t-14.5 47q2 21 10.5 39.5t20.5 36t25.5 33t26.5 30.5l21 24q21 24 40 54t18 68q0 44 -28 76t-84 32q-23 0 -45 -4t-42 -13q-17 -8 -30.5 -18t-30.5 -10q-19 0 -35.5 13.5t-16.5 35.5
q0 24 21.5 42t53 29.5t67.5 17t64 5.5q49 0 89 -15t67.5 -42t42.5 -64t15 -80q0 -54 -18 -93t-43 -69.5t-50.5 -55.5t-41.5 -50zM305 56q0 -27 -20 -46.5t-48 -19.5q-29 0 -49 19.5t-20 46.5t20 46t49 19q28 0 48 -19t20 -46z" />
    <glyph glyph-name="at" unicode="@" horiz-adv-x="764" 
d="M527 14q-13 -6 -31 -10.5t-38.5 -8.5t-42.5 -6t-43 -2q-73 0 -131 24t-98.5 67t-62 103t-21.5 133q0 71 20.5 130.5t61 102t100.5 66.5t138 24q80 0 141 -24.5t102 -67.5t62 -100t21 -122q0 -36 -7.5 -66.5t-23.5 -52.5t-41.5 -34.5t-62.5 -12.5q-35 0 -58 10.5t-39 30.5
q-26 -29 -49 -40t-52 -11q-34 0 -61.5 12.5t-46.5 35t-29.5 54t-10.5 68.5q0 72 39.5 118.5t118.5 46.5q42 0 68.5 -13.5t43 -36t24.5 -51.5t12 -61q1 -13 3 -26.5t6.5 -25t11.5 -18.5t19 -7q23 0 31 21t8 53q0 50 -14.5 93t-43 75t-71.5 50t-99 18t-98 -17.5t-71 -49.5
t-43.5 -76t-14.5 -97t14.5 -96t44 -74.5t73 -48.5t102.5 -17q22 0 38.5 2.5t30.5 6.5t26 8.5t25 9.5q20 5 39 1t27 -25q4 -13 1.5 -23.5t-10 -18.5t-18 -14t-20.5 -10zM376 232q17 0 32 7t32 21q-3 12 -4 19.5t-2 13t-1 11.5t-1 16q-1 12 -2.5 25t-7 24.5t-15 18.5t-27.5 7
q-31 0 -44.5 -22.5t-13.5 -60.5t13 -59t41 -21z" />
    <glyph glyph-name="A" unicode="A" horiz-adv-x="569" 
d="M129 29q-5 -18 -21.5 -28t-30.5 -10q-23 0 -40 14t-17 37q0 4 0.5 10t1.5 9l195 593q8 26 23 43t44 17t43.5 -17t23.5 -43l195 -593q2 -3 2.5 -9t0.5 -10q0 -23 -16.5 -37t-40.5 -14q-27 0 -39 17t-22 44l-32 97h-233zM284 549q-19 -80 -41.5 -154t-45.5 -150h173
q-23 76 -46.5 151t-39.5 153z" />
    <glyph glyph-name="B" unicode="B" horiz-adv-x="562" 
d="M293 417q19 0 38 6t34.5 18t25 30.5t9.5 43.5q0 17 -5 33t-16 28t-29 19.5t-45 7.5h-127v-186h115zM178 314v-212h117q63 0 93.5 28t30.5 75q0 53 -35 81t-88 28h-118zM131 0q-27 0 -45 17.5t-18 42.5v585q0 26 18.5 43t44.5 17h169q52 0 91.5 -16t66 -42.5t39.5 -60.5
t13 -70q0 -29 -9 -52t-24.5 -41.5t-37 -32.5t-46.5 -25q24 -9 48 -21t43.5 -30.5t32 -45t12.5 -63.5q0 -43 -16 -80.5t-46.5 -65t-73.5 -43.5t-97 -16h-165z" />
    <glyph glyph-name="C" unicode="C" horiz-adv-x="502" 
d="M40 456q0 58 14.5 106t44 81.5t74.5 52t107 18.5q37 0 71.5 -7.5t61.5 -21t43 -31t16 -36.5q0 -20 -14.5 -34t-36.5 -14q-14 0 -21.5 4.5t-18.5 11.5l-5 3q-40 28 -91 28q-38 0 -64 -11t-42 -32t-22.5 -51t-6.5 -67v-206q0 -37 6.5 -67t22.5 -51t42 -32t64 -11
q50 0 91 27l5 3q11 7 18.5 11.5t21.5 4.5q22 0 36.5 -14t14.5 -33q0 -20 -16 -37.5t-43 -30.5t-61.5 -20.5t-71.5 -7.5q-62 0 -107 18.5t-74.5 52t-44 81t-14.5 106.5v206z" />
    <glyph glyph-name="D" unicode="D" horiz-adv-x="574" 
d="M533 267q0 -52 -15 -100.5t-48.5 -85.5t-89 -59t-136.5 -22h-113q-26 0 -44.5 17.5t-18.5 42.5v586q0 24 18.5 42t44.5 18h113q81 0 136 -21.5t89 -57t49 -82.5t15 -98v-180zM423 447q0 33 -8.5 61.5t-28 49.5t-50 33t-75.5 12h-83v-501h83q45 0 76 13t50 35.5t27.5 52.5
t8.5 64v180z" />
    <glyph glyph-name="E" unicode="E" horiz-adv-x="494" 
d="M466 53q0 -23 -16 -38t-39 -15h-265q-31 0 -54.5 12.5t-23.5 46.5v587q0 22 17.5 40.5t44.5 18.5h271q23 0 39 -15.5t16 -37.5t-16 -36t-39 -14h-223v-197h204q20 0 37 -14.5t17 -36.5t-15.5 -37t-38.5 -15h-204v-200h233q22 0 38.5 -14.5t16.5 -34.5z" />
    <glyph glyph-name="F" unicode="F" horiz-adv-x="494" 
d="M178 42q0 -20 -16 -36t-39 -16t-39 16t-16 36v604q0 22 17.5 40.5t44.5 18.5h271q23 0 39 -15.5t16 -36.5q0 -22 -16 -36t-39 -14h-223v-198h204q20 0 37 -14.5t17 -36.5t-15.5 -37t-38.5 -15h-204v-260z" />
    <glyph glyph-name="G" unicode="G" horiz-adv-x="540" 
d="M150 250q0 -37 6.5 -67t22.5 -51t42 -32t64 -11q31 0 54.5 7.5t43.5 21.5v185h-75q-20 0 -35 15t-15 36t15 35.5t35 14.5h114q28 0 49 -14.5t21 -43.5v-230q0 -33 -19.5 -56.5t-50.5 -38.5t-68.5 -22t-73.5 -7q-62 0 -107 18.5t-74.5 52t-44 81t-14.5 106.5v206
q0 58 14.5 106t44 81.5t74.5 52t107 18.5q37 0 71.5 -7.5t61.5 -21t43 -31t16 -36.5q0 -20 -14.5 -34t-36.5 -14q-14 0 -21.5 4.5t-18.5 11.5l-5 3q-20 14 -42.5 21t-48.5 7q-38 0 -64 -11t-42 -32t-22.5 -51t-6.5 -67v-206z" />
    <glyph glyph-name="H" unicode="H" horiz-adv-x="600" 
d="M531 43q0 -21 -16 -37t-39 -16q-22 0 -38.5 16t-16.5 37v258h-243v-258q0 -21 -16 -37t-39 -16t-39 16t-16 37v619q0 21 16 36.5t39 15.5t39 -15.5t16 -36.5v-258h243v258q0 21 16.5 36.5t38.5 15.5t38.5 -15.5t16.5 -36.5v-619v0z" />
    <glyph glyph-name="I" unicode="I" horiz-adv-x="247" 
d="M68 662q0 21 16 36.5t39 15.5t39 -15.5t16 -36.5v-620q0 -20 -16 -36t-39 -16t-39 16t-16 36v620z" />
    <glyph glyph-name="J" unicode="J" horiz-adv-x="405" 
d="M337 230q0 -56 -10.5 -100.5t-35.5 -75.5t-67 -47.5t-104 -16.5q-12 0 -29.5 1.5t-33 7t-26.5 17t-11 31.5q0 25 16.5 38t33.5 13q13 0 26.5 -3t34.5 -3q30 0 48.5 9.5t29 27.5t14.5 43.5t4 57.5v432q0 22 15.5 37t39.5 15q22 0 38.5 -15.5t16.5 -36.5v-432z" />
    <glyph glyph-name="K" unicode="K" horiz-adv-x="527" 
d="M212 302l-34 -41v-218q0 -21 -16 -36.5t-39 -15.5t-39 15.5t-16 36.5v619q0 21 16 36.5t39 15.5t39 -15.5t16 -36.5v-240l225 268q8 9 20.5 16.5t26.5 7.5q17 0 34.5 -14t17.5 -37q0 -9 -2.5 -17.5t-10.5 -17.5l-207 -244q57 -78 113 -156t113 -156q5 -8 6.5 -14t1.5 -13
q0 -18 -13 -36t-40 -18q-30 0 -46 23z" />
    <glyph glyph-name="L" unicode="L" horiz-adv-x="475" 
d="M463 51q0 -22 -15.5 -36.5t-37.5 -14.5h-282q-24 0 -42 16.5t-18 40.5v605q0 21 16 36.5t39 15.5t39 -15.5t16 -36.5v-561h232q21 0 37 -14.5t16 -35.5z" />
    <glyph glyph-name="M" unicode="M" horiz-adv-x="729" 
d="M663 41q0 -20 -16 -35.5t-38 -15.5q-23 0 -39.5 15.5t-16.5 35.5v416l-138 -284q-8 -16 -21.5 -23.5t-30.5 -7.5t-30.5 7.5t-21.5 23.5l-137 284v-416q0 -20 -17 -35.5t-40 -15.5t-38 15.5t-15 35.5v619q0 23 16 38.5t41 15.5q39 0 56 -32l187 -386l186 387q9 17 24 24
t32 7q24 0 40.5 -15.5t16.5 -38.5v-619z" />
    <glyph glyph-name="N" unicode="N" horiz-adv-x="620" 
d="M492 -10q-16 0 -31 8t-23 21l-260 469v-445q0 -21 -16.5 -37t-39.5 -16t-38.5 16t-15.5 37v615q0 24 16 40t42 16q17 0 32 -8t23 -22q11 -19 31.5 -56t45.5 -82t52.5 -95t52.5 -96t45.5 -83t32.5 -57v446q0 22 16.5 37.5t39.5 15.5t38.5 -15.5t15.5 -37.5v-615
q0 -23 -16.5 -39.5t-42.5 -16.5z" />
    <glyph glyph-name="O" unicode="O" horiz-adv-x="580" 
d="M290 -10q-61 0 -107 20.5t-76.5 55.5t-46 82.5t-15.5 101.5v206q0 52 13.5 99t43 82.5t76 56t112.5 20.5t112.5 -20.5t76 -56t43 -82.5t13.5 -99v-206q0 -54 -15.5 -101.5t-46 -82.5t-76.5 -55.5t-107 -20.5zM290 612q-74 0 -104.5 -43t-30.5 -113v-206
q0 -70 32.5 -113.5t102.5 -43.5q69 0 102 43.5t33 113.5v206q0 70 -30.5 113t-104.5 43z" />
    <glyph glyph-name="P" unicode="P" horiz-adv-x="550" 
d="M178 250v-206q0 -21 -16 -37.5t-39 -16.5q-22 0 -38.5 16t-16.5 38v601q0 24 18.5 42t44.5 18h147q66 0 112 -19t74.5 -51t41 -73t12.5 -86q0 -54 -17 -96.5t-48.5 -71t-75.5 -43.5t-99 -15h-100zM178 352h100q130 0 130 125q0 23 -5.5 45.5t-20 40t-39.5 28.5t-65 11
h-100v-250z" />
    <glyph glyph-name="Q" unicode="Q" horiz-adv-x="580" 
d="M398 -175q-68 0 -108 46t-49 123q-49 8 -86 31t-61.5 56.5t-36.5 77t-12 91.5v206q0 52 13.5 99t43 82.5t76 56t112.5 20.5t112.5 -20.5t76 -56t43 -82.5t13.5 -99v-206q0 -47 -11.5 -89.5t-35 -76t-58.5 -56t-81 -31.5q4 -42 19.5 -58.5t42.5 -16.5h29q24 0 39 -13
t15 -36q0 -18 -7.5 -27.5t-20.5 -14t-30.5 -5.5t-37.5 -1zM290 612q-74 0 -104.5 -43t-30.5 -113v-206q0 -70 32.5 -113.5t102.5 -43.5q69 0 102 43.5t33 113.5v206q0 70 -30.5 113t-104.5 43z" />
    <glyph glyph-name="R" unicode="R" horiz-adv-x="595" 
d="M536 499q0 -78 -39.5 -126t-107.5 -65q37 -60 74 -117.5t74 -117.5q4 -4 6 -13t2 -14q0 -23 -18.5 -38.5t-38.5 -15.5q-31 0 -46 24l-173 282h-91v-254q0 -21 -16.5 -37t-39.5 -16q-22 0 -38 15.5t-16 37.5v601q0 24 18 42t43 18h174q66 0 110.5 -18t72 -47t39 -66
t11.5 -75zM426 499q0 19 -5.5 37.5t-19.5 33t-38.5 23.5t-63.5 9h-121v-203h127q59 0 90 25.5t31 74.5z" />
    <glyph glyph-name="S" unicode="S" horiz-adv-x="506" 
d="M355 197q0 40 -16.5 58.5t-32.5 26.5q-25 12 -54.5 21.5t-59.5 20t-58 24.5t-49.5 35.5t-34.5 53t-13 76.5q0 94 58.5 147.5t158.5 53.5q20 0 51.5 -3t61.5 -11.5t51.5 -24t21.5 -40.5q0 -20 -14.5 -35t-40.5 -15q-13 0 -25 4t-26 9.5t-31.5 9.5t-42.5 4q-21 0 -41 -4.5
t-35.5 -15t-24.5 -29t-9 -45.5q0 -21 5 -35t12.5 -24t16 -15.5t16.5 -9.5q25 -13 55 -22.5t60 -20.5t57.5 -25t49 -35t34.5 -52t13 -75q0 -51 -17.5 -90.5t-49 -67t-74.5 -41.5t-93 -14q-26 0 -60.5 4.5t-65 14.5t-52 26t-21.5 39q0 20 14.5 35.5t36.5 15.5q11 0 24.5 -5
t31 -11.5t40.5 -11.5t53 -5q60 0 89.5 27t29.5 77z" />
    <glyph glyph-name="T" unicode="T" horiz-adv-x="503" 
d="M196 602h-121q-24 0 -39.5 15.5t-15.5 35.5q0 17 16 34.5t39 17.5h352q21 0 38.5 -15t17.5 -37q0 -20 -16.5 -35.5t-39.5 -15.5h-121v-560q0 -20 -16 -36t-39 -16t-39 16t-16 36v560z" />
    <glyph glyph-name="U" unicode="U" horiz-adv-x="592" 
d="M532 235q0 -53 -16 -98t-46.5 -77.5t-74.5 -51t-99 -18.5q-57 0 -101 18.5t-74 51t-45.5 77.5t-15.5 98v425q0 23 16 38.5t40 15.5q22 0 38 -15.5t16 -38.5v-425q0 -63 30.5 -102.5t95.5 -39.5q64 0 94.5 39.5t30.5 102.5v425q0 22 15.5 38t38.5 16q24 0 40.5 -16
t16.5 -38v-425v0z" />
    <glyph glyph-name="V" unicode="V" horiz-adv-x="556" 
d="M122 676q41 -131 82 -259.5t73 -260.5q7 29 14 59.5t16 58.5l125 402q5 17 21.5 27.5t31.5 10.5q25 0 41 -14.5t16 -37.5q0 -3 -0.5 -9t-1.5 -9l-195 -593q-9 -27 -24 -43.5t-44 -16.5t-43.5 17t-22.5 43l-195 593q-2 3 -2.5 9t-0.5 9q0 23 17 37.5t40 14.5
q14 0 30 -10.5t22 -27.5z" />
    <glyph glyph-name="W" unicode="W" horiz-adv-x="803" 
d="M443 299q-12 51 -21.5 102.5t-20.5 103.5q-23 -115 -49 -228t-52 -228q-6 -20 -21 -39t-47 -19q-26 0 -44.5 18t-23.5 41q-39 154 -76.5 306.5t-74.5 306.5q0 23 19.5 35.5t40.5 12.5q17 0 31.5 -9.5t19.5 -29.5q17 -71 34 -141l34 -140q12 -49 21 -98.5t20 -98.5
q11 51 20.5 104.5t22.5 105.5l59 244q8 32 20.5 49t45.5 17q32 0 45 -18t21 -48l58 -244q12 -53 21.5 -105.5t21.5 -105.5q11 50 20.5 99t21.5 99l67 280q5 19 18.5 29.5t30.5 10.5q21 0 42 -11.5t21 -37.5v-4.5t-2 -7.5l-149 -600q-7 -23 -23 -41t-45 -18t-46 18.5
t-22 41.5z" />
    <glyph glyph-name="X" unicode="X" horiz-adv-x="527" 
d="M263 277q-36 -63 -72.5 -126t-73.5 -126q-7 -11 -19 -22.5t-32 -11.5q-21 0 -37 16t-16 36q0 8 2.5 15.5t5.5 12.5q45 75 89 148t89 147l-163 269q-7 14 -7 28q0 20 15.5 35.5t36.5 15.5q19 0 33 -12t23 -28l126 -218l126 218q8 13 22.5 26t34.5 14q20 0 35.5 -15
t15.5 -37q0 -11 -7 -27l-162 -269l177 -295q3 -5 5.5 -12.5t2.5 -15.5q0 -20 -16 -36t-36 -16t-32 10.5t-20 23.5l-146 252v0z" />
    <glyph glyph-name="Y" unicode="Y" horiz-adv-x="503" 
d="M251 -10q-23 0 -39.5 16t-16.5 38v232l-177 361q-2 5 -3.5 11.5t-1.5 12.5q0 22 17.5 37.5t38.5 15.5q13 0 25 -5.5t19 -17.5l138 -288l138 288q7 12 19 17.5t25 5.5q22 0 39 -15.5t17 -37.5q0 -5 -1.5 -12t-3.5 -12l-177 -362v-231q0 -21 -16 -37.5t-40 -16.5z" />
    <glyph glyph-name="Z" unicode="Z" horiz-adv-x="504" 
d="M479 53q0 -23 -16 -38t-39 -15h-343q-25 0 -41 16.5t-16 39.5q0 8 4 19.5t8 18.5q12 20 35.5 60t52 89t60 103.5t60 104t52 89t35.5 60.5h-251q-23 0 -38.5 15t-15.5 37q0 21 15.5 37t38.5 16h339q25 0 41.5 -16t16.5 -39q0 -11 -3.5 -20t-8.5 -17l-298 -509h257
q22 0 38.5 -14.5t16.5 -36.5z" />
    <glyph glyph-name="bracketleft" unicode="[" horiz-adv-x="314" 
d="M293 -66q0 -15 -6 -24.5t-15.5 -15.5t-21 -8.5t-23.5 -2.5h-102q-21 0 -37 15.5t-16 35.5v813q0 28 20 39t47 11h102q19 0 35.5 -14.5t16.5 -34.5q0 -15 -6 -24.5t-15 -15.5t-20.5 -8.5t-23.5 -2.5h-47v-714h47q26 0 45.5 -10.5t19.5 -38.5z" />
    <glyph glyph-name="backslash" unicode="\" horiz-adv-x="320" 
d="M235 -10q-65 176 -128.5 349.5t-127.5 349.5q-2 3 -3 7.5t-1 8.5q0 21 14.5 37t36.5 16q17 0 31 -8.5t19 -25.5l11 -33l249 -677q1 -4 1 -10q0 -19 -15.5 -33.5t-36.5 -14.5q-17 0 -30.5 9t-19.5 25z" />
    <glyph glyph-name="bracketright" unicode="]" horiz-adv-x="314" 
d="M241 -66q0 -21 -15.5 -36t-37.5 -15h-102q-24 0 -45.5 11t-21.5 40t20.5 39t45.5 10h47v714h-47q-12 0 -23.5 2.5t-21 8t-15.5 15.5t-6 25q0 28 21.5 38.5t45.5 10.5h102q20 0 36.5 -15.5t16.5 -34.5v-813v0z" />
    <glyph glyph-name="asciicircum" unicode="^" horiz-adv-x="346" 
d="M79 505q-5 -8 -15.5 -13t-21.5 -5q-20 0 -32.5 11t-12.5 30q2 22 22 44l111 130q15 20 42 20q25 0 42 -20q7 -8 22.5 -26t32.5 -39t32.5 -39.5t22.5 -25.5q10 -11 16 -22t7 -22q0 -19 -12.5 -30t-32.5 -11q-11 0 -22 5t-16 13q-6 7 -19 23t-27 33t-27 32.5t-19 22.5z" />
    <glyph glyph-name="underscore" unicode="_" horiz-adv-x="620" 
d="M605 -127q20 0 37 -15t17 -37t-15.5 -36.5t-38.5 -14.5h-590q-23 0 -38.5 14.5t-15.5 36.5t16.5 37t37.5 15h590z" />
    <glyph glyph-name="grave" unicode="`" horiz-adv-x="217" 
d="M122 707q11 -11 25.5 -24.5t28 -27.5t23 -26.5t9.5 -21.5q0 -19 -12.5 -30.5t-29.5 -11.5q-13 0 -21.5 5t-17.5 15l-75 78q-13 13 -13 28q0 18 13 29.5t27 11.5q13 0 19 -3.5t14 -11.5l10 -10v0z" />
    <glyph glyph-name="a" unicode="a" horiz-adv-x="502" 
d="M317 333q0 88 -92 88q-20 0 -33 -4t-26 -9l-19 -8q-10 -5 -26 -5q-22 0 -31.5 14t-9.5 30q0 20 13 34t35 23t50 13t57 4q102 0 146 -52t44 -152v-203q0 -19 7 -24.5t18 -7.5q30 -6 30 -36q0 -42 -59 -42q-52 0 -80 45q-56 -48 -136 -48q-82 0 -123.5 42t-41.5 112v3
q0 151 187 151q46 0 90 -12v44zM230 219q-26 0 -42.5 -5.5t-25.5 -15t-12 -22.5t-3 -27v-3q0 -30 16.5 -46.5t58.5 -16.5q26 0 49 8t46 27v90q-22 5 -45 8t-42 3z" />
    <glyph glyph-name="b" unicode="b" horiz-adv-x="510" 
d="M177 155q0 -34 24 -53.5t66 -19.5q46 0 68 23t22 64v186q0 34 -19.5 53t-63.5 19q-60 0 -97 -39v-233zM69 674q0 20 14 34.5t40 14.5t40 -14.5t14 -34.5v-195q26 17 54.5 25.5t66.5 8.5q45 0 76.5 -12.5t52 -34t29.5 -51t9 -63.5v-178q0 -38 -12.5 -71.5t-37 -58
t-62 -38.5t-86.5 -14q-47 0 -84 12.5t-62.5 34.5t-38.5 52t-13 64v519z" />
    <glyph glyph-name="c" unicode="c" horiz-adv-x="418" 
d="M45 323q0 39 11.5 73.5t35 59.5t60 39.5t86.5 14.5q20 0 46.5 -3t50.5 -11.5t41 -23t17 -36.5q0 -16 -11 -29t-37 -13q-12 0 -25 4q-17 8 -33 14t-41 6q-51 0 -72 -25t-21 -70v-143q0 -45 21 -70.5t72 -25.5q25 0 41 6t33 14q6 2 11 3.5t13 1.5q26 0 37.5 -13.5
t11.5 -29.5q0 -22 -17 -36.5t-41 -22.5t-51 -11.5t-47 -3.5q-50 0 -86 14.5t-59.5 40t-35 60t-11.5 73.5v143z" />
    <glyph glyph-name="d" unicode="d" horiz-adv-x="513" 
d="M223 509q24 0 48.5 -4t51.5 -15v184q0 20 14 34.5t40 14.5t40 -14.5t14 -34.5v-553q0 -16 5 -26t17 -21q11 -13 11 -27q0 -23 -16 -35.5t-34 -12.5t-32 9.5t-25 25.5q-35 -19 -69 -30.5t-72 -11.5q-42 0 -73.5 14t-53.5 39.5t-33 61t-11 78.5v120q0 45 9 82.5t29.5 64.5
t54.5 42t85 15zM323 401q-24 9 -48 13t-39 4q-46 0 -64.5 -27.5t-18.5 -85.5v-120q0 -100 81 -100q39 0 91 25q-2 6 -2 11v10v270z" />
    <glyph glyph-name="e" unicode="e" horiz-adv-x="460" 
d="M242 197q-21 0 -43 1.5t-46 5.5v-46q0 -34 23 -54t71 -20q28 0 50 7t47 18q2 2 7.5 3.5t14.5 1.5q26 0 37.5 -15t11.5 -30q0 -23 -19.5 -37.5t-47 -23.5t-58 -12.5t-52.5 -3.5q-46 0 -82 13t-60.5 36t-37.5 54.5t-13 67.5v177q0 37 13 68.5t38 54.5t62 36.5t85 13.5
q91 0 136 -45.5t45 -120.5q0 -71 -43 -110.5t-139 -39.5zM317 350q0 40 -19.5 57t-56.5 17q-42 0 -65 -21t-23 -57v-59q26 -3 51.5 -4.5t36.5 -1.5q43 0 59.5 18.5t16.5 50.5z" />
    <glyph glyph-name="f" unicode="f" horiz-adv-x="349" 
d="M69 532q0 48 15 83.5t40.5 59t60 35.5t73.5 13q8 0 25.5 -0.5t35.5 -6t32 -17t14 -32.5q0 -23 -16 -35.5t-37 -12.5q-14 0 -28.5 3t-31.5 3q-38 0 -56.5 -25.5t-18.5 -60.5v-55h89q21 0 36 -14t15 -35q0 -20 -15 -34t-36 -14h-89v-343q0 -20 -14 -34.5t-40 -14.5
t-40 14.5t-14 34.5v488z" />
    <glyph glyph-name="g" unicode="g" horiz-adv-x="513" 
d="M236 513q37 0 69.5 -8.5t63.5 -25.5q18 29 41.5 43t42.5 14t35 -13.5t16 -33.5q0 -10 -4 -17t-8 -11l-15 -15q-10 -10 -16.5 -17.5t-10.5 -14.5t-5.5 -15.5t-1.5 -19.5v-59q0 -39 -12 -72t-37 -57t-62 -38t-87 -14q-17 0 -34.5 2t-32.5 7q-5 -11 -7 -19t-2 -16
q0 -23 14 -30.5t27 -7.5h42q46 0 85 -9t68 -27.5t45.5 -46.5t16.5 -67t-16.5 -69.5t-46 -52.5t-69.5 -33.5t-88 -11.5q-46 0 -84 11t-65.5 31t-42.5 49.5t-15 66.5q0 33 14 60.5t44 53.5q-14 20 -19.5 41.5t-5.5 38.5t7 37t26 40q-59 53 -59 140q0 40 12 74t36 59t59 39
t82 14zM335 350v24.5t1 24.5q-22 11 -42.5 17.5t-43.5 6.5q-48 0 -71.5 -25t-23.5 -73q0 -44 21.5 -70t70.5 -26q45 0 66.5 23.5t21.5 65.5v32zM233 -17q-16 0 -30.5 1t-28.5 2q-26 -26 -26 -60q0 -36 25 -56t76 -20q48 0 79 18.5t31 54.5q0 60 -105 60h-21z" />
    <glyph glyph-name="h" unicode="h" horiz-adv-x="527" 
d="M176 43q0 -22 -15 -36t-38 -14t-38.5 14t-15.5 36v635q0 20 15 35.5t38 15.5t38.5 -14.5t15.5 -36.5v-199q23 16 51 25t59 9q88 0 129.5 -47.5t41.5 -122.5v-300q0 -22 -16 -36t-38 -14q-23 0 -38.5 14t-15.5 36v304q0 36 -18 55.5t-54 19.5q-26 0 -53.5 -11t-47.5 -34
v-334v0z" />
    <glyph glyph-name="i" unicode="i" horiz-adv-x="265" 
d="M195 656q-1 -25 -19 -42t-44 -17q-27 0 -45 17.5t-18 41.5q0 25 18 42t45 17q26 0 44.5 -17.5t18.5 -41.5zM186 43q0 -22 -15.5 -36t-38.5 -14t-38.5 14t-15.5 36v417q0 20 15.5 35t38.5 15t38.5 -15t15.5 -35v-417z" />
    <glyph glyph-name="j" unicode="j" horiz-adv-x="265" 
d="M186 -11q0 -42 -12 -77t-34.5 -60.5t-55 -39.5t-73.5 -14q-22 0 -35.5 14t-13.5 34t14.5 30.5t28.5 13.5q34 7 53.5 28.5t19.5 67.5v474q0 20 15.5 35t38.5 15t38.5 -15t15.5 -35v-471zM195 656q0 -25 -18.5 -42t-44.5 -17q-27 0 -45 17.5t-18 41.5q0 25 18 42t45 17
q26 0 44.5 -17.5t18.5 -41.5z" />
    <glyph glyph-name="k" unicode="k" horiz-adv-x="463" 
d="M177 328l144 153q10 11 22 19.5t29 8.5q22 0 37 -13.5t15 -33.5t-14 -34l-135 -140q40 -56 79.5 -111t78.5 -111q5 -6 7 -14.5t2 -15.5q-2 -20 -16.5 -31.5t-35.5 -11.5q-12 0 -19.5 2t-13.5 7t-11.5 13t-13.5 20l-132 190q-6 -5 -11.5 -11.5t-11.5 -11.5v-137
q0 -28 -11.5 -50t-42.5 -22q-23 0 -38.5 14t-15.5 36v605q0 15 2 28.5t8 24t16.5 16.5t27.5 6q23 0 38.5 -14.5t15.5 -35.5v-345z" />
    <glyph glyph-name="l" unicode="l" horiz-adv-x="248" 
d="M148 -8q-12 0 -26 3.5t-25.5 15t-19.5 33.5t-8 58v571q0 20 15.5 35t38.5 15t38.5 -14.5t15.5 -35.5v-565q0 -16 2 -24.5t12 -19.5q5 -5 9 -10.5t4 -16.5q0 -21 -15 -33t-41 -12z" />
    <glyph glyph-name="m" unicode="m" horiz-adv-x="798" 
d="M620 337q0 34 -19 57.5t-56 23.5q-26 0 -50.5 -12t-44.5 -32q2 -8 3 -17t1 -18v-296q0 -21 -13.5 -35.5t-40.5 -14.5t-40.5 14.5t-13.5 35.5v274q0 22 -2.5 40.5t-10 32t-20.5 21t-35 7.5q-26 0 -52 -9.5t-48 -23.5q1 -5 1.5 -10.5t0.5 -10.5v-321q0 -21 -13.5 -35.5
t-40.5 -14.5t-40.5 14.5t-13.5 35.5v321q0 16 -1 25.5t-3 15t-4.5 8.5t-4.5 7q-6 9 -9 15t-3 14q0 21 15 34t36 13q15 0 26.5 -7.5t19.5 -19.5q34 21 69.5 32.5t71.5 11.5t64.5 -12t51.5 -35q36 23 71 35t77 12q85 0 132 -48t47 -126v-296q0 -21 -13.5 -35.5t-40.5 -14.5
t-40.5 14.5t-13.5 35.5v294z" />
    <glyph glyph-name="n" unicode="n" horiz-adv-x="529" 
d="M180 43q0 -21 -13.5 -35.5t-40.5 -14.5t-40.5 14.5t-13.5 35.5v321q0 16 -1 25.5t-3 15t-4.5 8.5t-4.5 7q-6 9 -9 15t-3 15q0 20 14.5 33t37.5 13q28 0 47 -29q34 23 69.5 33.5t68.5 10.5q87 0 130.5 -53t43.5 -139v-276q0 -21 -14 -35.5t-40 -14.5t-40 14.5t-14 35.5
v276q0 48 -20.5 74t-58.5 26q-43 0 -94 -31q3 -14 3 -24v-321z" />
    <glyph glyph-name="o" unicode="o" horiz-adv-x="494" 
d="M247 -8q-50 0 -87.5 14t-63 38.5t-38.5 58t-13 71.5v158q0 39 13 72t38.5 57.5t63 38.5t87.5 14q49 0 87 -14t63.5 -38.5t38.5 -57.5t13 -72v-158q0 -38 -13 -71.5t-38.5 -58t-63.5 -38.5t-87 -14zM247 87q47 0 70.5 23t23.5 64v159q0 40 -23.5 63t-70.5 23t-70.5 -23
t-23.5 -63v-159q0 -41 23.5 -64t70.5 -23z" />
    <glyph glyph-name="p" unicode="p" horiz-adv-x="503" 
d="M279 -7q-23 0 -47.5 4.5t-51.5 15.5v-177q0 -21 -14 -35.5t-40 -14.5t-40 15t-14 35v527q0 21 -3 34t-11 24q-5 6 -7.5 12t-2.5 14q0 22 16 35t34 13q26 0 46 -26q35 20 69.5 32t73.5 12q41 0 73 -14t53.5 -39.5t33 -60.5t11.5 -78v-123q0 -45 -9 -82.5t-30 -64.5
t-55 -42.5t-85 -15.5zM180 101q23 -9 46.5 -13t40.5 -4q46 0 64.5 27.5t18.5 86.5v123q0 99 -81 99q-21 0 -44.5 -7t-48.5 -20q2 -8 3 -15.5t1 -14.5v-262z" />
    <glyph glyph-name="q" unicode="q" horiz-adv-x="510" 
d="M333 347q0 34 -24 52.5t-66 18.5q-47 0 -68.5 -24t-21.5 -66v-149q0 -45 19 -70t65 -25q26 0 51 8.5t45 27.5v227zM441 -154q0 -21 -13.5 -35.5t-40.5 -14.5t-40.5 14.5t-13.5 35.5v179q-25 -16 -52.5 -24t-62.5 -8q-49 0 -82 14t-53.5 39t-29 59t-8.5 74v149
q0 39 12.5 73t37 59t61.5 39t87 14q47 0 83.5 -13t62 -35.5t39 -52.5t13.5 -65v-501z" />
    <glyph glyph-name="r" unicode="r" horiz-adv-x="357" 
d="M289 409h-29.5t-26 -2t-26 -7t-29.5 -14q1 -7 1.5 -12.5t0.5 -10.5v-320q0 -22 -15.5 -36.5t-38.5 -14.5t-38.5 14.5t-15.5 36.5v320q0 21 -3 34t-11 24q-5 6 -7.5 12t-2.5 15q0 21 15.5 34t36.5 13q14 0 25.5 -8t20.5 -21q34 20 69.5 31.5t61.5 11.5q38 0 52.5 -14
t14.5 -35q0 -24 -16 -38.5t-39 -12.5z" />
    <glyph glyph-name="s" unicode="s" horiz-adv-x="426" 
d="M48 363q0 68 44.5 109t132.5 41q22 0 47.5 -3.5t47 -11.5t35.5 -22t14 -36q0 -20 -12 -30.5t-32 -10.5q-12 0 -21.5 3.5t-20.5 7.5t-24.5 7.5t-33.5 3.5q-9 0 -21.5 -1.5t-23.5 -6.5t-18.5 -14.5t-7.5 -25.5q0 -25 17.5 -39t43 -24.5t56 -21t56 -27.5t43 -44.5
t17.5 -72.5q0 -70 -46 -110.5t-136 -40.5q-21 0 -49.5 3t-53.5 10.5t-42.5 20t-17.5 32.5q0 7 2.5 17t9 18t17 12.5t27.5 0.5q14 -3 42.5 -13t60.5 -10q34 0 57 15.5t23 42.5q0 23 -17.5 36.5t-43 23.5t-56 19.5t-56 26.5t-43 44t-17.5 71z" />
    <glyph glyph-name="t" unicode="t" horiz-adv-x="341" 
d="M69 608q0 21 14 35.5t40 14.5t40 -15t14 -35v-124h89q21 0 36 -14t15 -35q0 -20 -15 -34t-36 -14h-89v-175q0 -33 2 -56t9.5 -37t20.5 -20.5t36 -6.5q5 0 10 0.5t8 0.5q32 0 49.5 -9.5t17.5 -35.5q0 -17 -6.5 -27.5t-17.5 -16t-24.5 -7t-28.5 -1.5q-55 0 -90.5 13.5
t-56.5 39.5t-29 65.5t-8 90.5v403z" />
    <glyph glyph-name="u" unicode="u" horiz-adv-x="529" 
d="M381 32q-34 -22 -69.5 -31t-70.5 -9q-42 0 -74.5 14t-54 39.5t-32.5 61t-11 78.5v276q0 21 14 35t40 14t40 -14t14 -35v-276q0 -48 19.5 -74t58.5 -26q23 0 46.5 7t47.5 20q-1 7 -1.5 13t-0.5 11v325q0 21 13.5 35t40.5 14t40.5 -14t13.5 -35v-335q0 -26 5 -34.5
t13 -18.5q5 -5 8 -11.5t3 -15.5q0 -22 -15.5 -35t-35.5 -13q-17 0 -29.5 9.5t-22.5 24.5z" />
    <glyph glyph-name="v" unicode="v" horiz-adv-x="450" 
d="M419 417q-33 -93 -64 -185t-63 -186q-10 -29 -25 -41t-40 -12q-27 0 -41.5 12t-24.5 40q-32 94 -64.5 187t-64.5 187l-11 39q0 2 -0.5 3t-0.5 3q0 20 17 33.5t37 13.5q15 0 30 -9t20 -26q14 -45 28 -89t28 -89t24.5 -88.5t22.5 -88.5q11 45 21 88.5t24 88.5t27.5 89
t27.5 89q5 15 19.5 24.5t30.5 9.5q21 0 36.5 -13.5t15.5 -34.5v-6z" />
    <glyph glyph-name="w" unicode="w" horiz-adv-x="675" 
d="M538 44q-8 -26 -21.5 -38.5t-42.5 -12.5q-20 0 -38 10.5t-23 30.5l-75 317q-18 -81 -36 -159.5t-39 -157.5q-6 -23 -21 -32t-40 -9q-27 0 -42.5 13.5t-22.5 38.5l-116 407q-1 4 -1 10q0 19 15.5 33.5t38.5 14.5q17 0 31 -9.5t19 -26.5l49 -188q10 -38 16 -77t14 -78
q10 45 18 89.5t19 89.5l39 157q5 19 20.5 31t39.5 12q23 0 37.5 -12t19.5 -31l39 -157q11 -45 19 -89.5t19 -89.5q8 39 14 78t16 77l48 188q4 15 19 25.5t32 10.5q21 0 37 -14t16 -36q0 -1 -0.5 -3.5t-0.5 -4.5z" />
    <glyph glyph-name="x" unicode="x" horiz-adv-x="451" 
d="M423 68q8 -11 8 -24q0 -21 -15 -36.5t-40 -15.5q-19 0 -29.5 7.5t-21.5 24.5l-100 147l-106 -154q-18 -25 -44 -25q-23 0 -39 14t-16 37q0 13 7 23l135 190l-125 179q-9 14 -9 24q0 20 15.5 35.5t38.5 15.5t35 -12.5t21 -25.5l89 -129l92 137q9 14 20 22t30 8t36 -14
t17 -34q0 -6 -1.5 -13t-6.5 -13l-125 -179z" />
    <glyph glyph-name="y" unicode="y" horiz-adv-x="443" 
d="M304 69q-19 -59 -37.5 -109t-43.5 -86t-60.5 -56.5t-88.5 -20.5q-24 0 -39.5 14t-15.5 35q0 18 13.5 32.5t37.5 16.5q40 0 62.5 28.5t43.5 91.5l-157 428q-2 5 -2.5 10.5t-0.5 9.5q0 20 15.5 33.5t38.5 13.5q15 0 29 -8.5t20 -25.5l9 -27q26 -76 51 -151t50 -153
q23 85 46 166.5t49 164.5q5 17 20.5 25.5t30.5 8.5q20 0 37 -13.5t17 -36.5q0 -8 -3 -15z" />
    <glyph glyph-name="z" unicode="z" horiz-adv-x="409" 
d="M394 454q0 -8 -2.5 -17.5t-8.5 -17.5l-232 -324h193q23 0 37.5 -14t14.5 -34t-14.5 -33.5t-37.5 -13.5h-277q-22 0 -38.5 15t-16.5 38q0 8 2 15.5t8 15.5l232 326h-181q-21 0 -36 13.5t-15 33.5q0 21 15 34.5t36 13.5h265q23 0 39.5 -13.5t16.5 -37.5z" />
    <glyph glyph-name="braceleft" unicode="{" horiz-adv-x="427" 
d="M75 193q-18 1 -33.5 10.5t-15.5 38.5t16 38t33 10q29 2 45 16.5t19 57.5q1 19 2 37t2 38.5t2.5 45.5t4.5 60q4 62 51.5 96.5t121.5 34.5q13 0 26 -1.5t23.5 -7.5t17 -17t6.5 -30q0 -18 -6 -27t-15 -13t-19 -3.5t-19 1.5q-6 1 -13.5 1.5t-12.5 0.5q-20 0 -37 -12.5
t-18 -35.5q0 -3 -1.5 -26t-3 -51.5t-2.5 -54t-2 -32.5q-3 -42 -22.5 -74t-61.5 -52q79 -40 84 -127l9 -164q1 -23 18 -35.5t36 -12.5q4 0 13.5 1t13.5 1q8 1 18.5 1t19.5 -3.5t15 -12.5t6 -27t-6.5 -29t-17 -17t-23.5 -8t-26 -2q-36 0 -67 9t-54 26.5t-36.5 41.5t-15.5 54
l-11 182q-3 44 -21 58.5t-43 14.5z" />
    <glyph glyph-name="bar" unicode="|" horiz-adv-x="247" 
d="M72 708q0 20 14.5 34.5t36.5 14.5q21 0 36 -14.5t15 -34.5v-890q0 -20 -15 -34.5t-36 -14.5q-22 0 -36.5 14.5t-14.5 34.5v890z" />
    <glyph glyph-name="braceright" unicode="}" horiz-adv-x="427" 
d="M354 193q-28 -1 -44.5 -16t-19.5 -57l-11 -182q-2 -30 -15.5 -54t-36.5 -41t-54 -26.5t-67 -9.5q-13 0 -26 2t-23.5 8t-17 17t-6.5 30q0 16 5 25t13.5 13t19 4h21.5q3 -1 11.5 -1.5t14.5 -0.5q23 0 38.5 13t16.5 34l9 164q5 88 83 127q-39 19 -60 51.5t-23 74.5
q-2 25 -3.5 53t-2.5 52t-2 40.5t-1 18.5q-2 23 -18.5 35.5t-36.5 12.5q-5 0 -12.5 -0.5t-13.5 -1.5q-9 -1 -19 -1.5t-19 3.5t-15 13t-6 27q0 19 6.5 30t17 17t23.5 7.5t26 1.5q74 0 121.5 -34.5t51.5 -96.5q3 -40 4.5 -67.5t2.5 -47.5t2 -35t2 -31q3 -43 19 -57.5t45 -16.5
q17 -1 33 -10t16 -38q0 -30 -16 -39t-33 -10z" />
    <glyph glyph-name="asciitilde" unicode="~" horiz-adv-x="475" 
d="M414 348q0 -17 -10 -31.5t-25 -25t-33.5 -17t-35.5 -6.5q-21 0 -38.5 6t-32.5 14t-28.5 14.5t-26.5 8.5q-15 1 -24.5 -4.5t-17 -13t-15.5 -14t-21 -6.5q-16 0 -29.5 11t-15.5 30q0 19 8.5 35t22.5 27.5t32.5 18t38.5 6.5q22 0 39.5 -6.5t32 -14.5t28 -14.5t27.5 -7.5
q15 0 24 6t16.5 13t15 13t20.5 7q19 0 33.5 -14t14.5 -35z" />
    <glyph glyph-name="exclamdown" unicode="&#xa1;" horiz-adv-x="247" 
d="M78 284q0 18 12.5 31t32.5 13q17 0 30.5 -13t14.5 -31l10 -447q0 -20 -16 -36t-39 -16t-39 16t-16 36zM193 442q0 -26 -20 -45.5t-48 -19.5q-29 0 -49 19.5t-20 45.5q0 27 20 47t49 20q28 0 48 -20t20 -47z" />
    <glyph glyph-name="cent" unicode="&#xa2;" horiz-adv-x="471" 
d="M230 23q-45 3 -77.5 18.5t-53.5 40.5t-31 57.5t-10 70.5v93q0 37 10 69.5t31 57.5t53.5 40.5t77.5 18.5v44q0 11 7.5 18.5t18.5 7.5t18.5 -7.5t7.5 -18.5v-44q20 -2 41 -7t38 -14t28 -22.5t11 -32.5q0 -15 -12 -27t-35 -12q-11 0 -24 4l-10 5q-9 4 -17.5 7t-19.5 5v-279
q20 3 36 13t34 10q24 0 36 -13t12 -27q0 -20 -11 -33.5t-28.5 -22t-38.5 -13.5t-40 -6v-52q0 -11 -7.5 -18.5t-18.5 -7.5t-18.5 7.5t-7.5 18.5v51zM166 210q0 -38 15 -62t49 -31v278q-34 -7 -49 -30.5t-15 -61.5v-93z" />
    <glyph glyph-name="yen" unicode="&#xa5;" horiz-adv-x="508" 
d="M152 369q-32 63 -62.5 126.5t-62.5 127.5q-6 11 -8 21l-3 12q0 23 15.5 40t39.5 17q22 0 32 -10t20 -27l131 -273l130 273q9 15 21 26t31 11q23 0 39 -16t16 -36q0 -7 -2 -17l-134 -275h62q15 0 27 -10.5t12 -26.5t-11 -26.5t-28 -10.5h-98l-9 -20v-36h107q15 0 27 -10.5
t12 -26.5t-11 -26.5t-28 -10.5h-107v-121q0 -12 -8.5 -21t-21.5 -11q-2 -9 -9 -15.5t-18 -6.5t-18.5 6.5t-9.5 15.5q-12 2 -19.5 11.5t-7.5 20.5v121h-109q-17 0 -28 10.5t-11 26.5t12 26.5t27 10.5h109v37l-10 19h-99q-17 0 -28 10.5t-11 26.5t12 26.5t27 10.5h63z" />
    <glyph glyph-name="dieresis" unicode="&#xa8;" horiz-adv-x="423" 
d="M362 634q0 -23 -16.5 -39.5t-39.5 -16.5t-40 16.5t-17 39.5q0 22 17 38t40 16t39.5 -15.5t16.5 -38.5zM188 634q0 -23 -16.5 -39.5t-40.5 -16.5q-23 0 -39 16.5t-16 39.5q0 22 16 38t39 16q24 0 40.5 -15.5t16.5 -38.5z" />
    <glyph glyph-name="copyright" unicode="&#xa9;" horiz-adv-x="740" 
d="M676 313q0 -71 -20 -130t-59 -102t-96 -66.5t-131 -23.5t-131 23.5t-96 66.5t-59 102t-20 130t20 130t59 102t96 66.5t131 23.5t131 -23.5t96 -66.5t59 -102t20 -130zM616 313q0 58 -16 106t-47.5 82.5t-77 54t-105.5 19.5t-105.5 -19.5t-77 -54t-47.5 -82.5t-16 -106
t16 -106t47.5 -82.5t77 -54t105.5 -19.5t105.5 19.5t77 54t47.5 82.5t16 106zM231 344q0 31 8.5 57.5t26.5 46.5t46 31.5t67 11.5q15 0 35 -2.5t38 -8.5t30.5 -16.5t12.5 -26.5q0 -13 -9 -22.5t-23 -9.5q-3 0 -6 0.5t-7 1.5q-14 8 -28.5 13.5t-35.5 5.5q-42 0 -60 -21.5
t-18 -60.5v-61q0 -40 18 -61t60 -21q21 0 35.5 5.5t28.5 12.5q7 3 13 3q14 0 23 -10t9 -23q0 -15 -12.5 -25.5t-30.5 -16.5t-38 -8.5t-35 -2.5q-39 0 -67 11.5t-46 31t-26.5 46.5t-8.5 58v61z" />
    <glyph glyph-name="guillemotleft" unicode="&#xab;" horiz-adv-x="431" 
d="M272 50q5 -8 5 -17q0 -17 -11 -29t-29 -12q-14 0 -21.5 6.5t-16.5 20.5l-158 237l152 229q8 12 15.5 19t21.5 7t26 -10.5t12 -26.5q0 -5 -1 -9.5t-4 -9.5l-131 -197zM385 114q5 -8 5 -19q0 -16 -12 -26.5t-26 -10.5t-21.5 7t-15.5 19l-114 172l114 172q8 12 15.5 19
t21.5 7t26 -10.5t12 -26.5q0 -5 -1 -9.5t-4 -9.5l-93 -142z" />
    <glyph glyph-name="registered" unicode="&#xae;" horiz-adv-x="700" 
d="M636 423q0 -64 -18.5 -117.5t-54.5 -92.5t-89.5 -60.5t-123.5 -21.5t-123.5 21.5t-89.5 60.5t-54.5 92.5t-18.5 117.5q0 66 18.5 121.5t54.5 95.5t89.5 62.5t123.5 22.5t123.5 -22.5t89.5 -62.5t54.5 -95.5t18.5 -121.5zM576 423q0 53 -14.5 97.5t-43 76.5t-71 50
t-97.5 18t-97.5 -18t-71 -50t-43 -76.5t-14.5 -97.5q0 -51 14.5 -93.5t43 -73.5t71 -48t97.5 -17t97.5 17t71 48t43 73.5t14.5 93.5zM466 486q0 -32 -14 -53.5t-39 -32.5l62 -94q0 -2 2 -6t2 -8q0 -9 -9 -15t-21 -6q-24 0 -36 12l-69 106h-32v-88q0 -12 -11 -21t-25 -9
q-13 0 -23.5 8t-10.5 22v245q0 14 11.5 26.5t26.5 12.5h72q31 0 53 -8.5t35.5 -22.5t19.5 -32t6 -36zM396 486q0 12 -7.5 23.5t-33.5 11.5h-43v-69h46q38 0 38 34z" />
    <glyph glyph-name="macron" unicode="&#xaf;" horiz-adv-x="423" 
d="M387 633q0 -18 -13.5 -30.5t-32.5 -12.5h-259q-20 0 -33.5 12.5t-13.5 30.5t13.5 31t33.5 13h259q19 0 32.5 -13t13.5 -31z" />
    <glyph glyph-name="degree" unicode="&#xb0;" horiz-adv-x="392" 
d="M196 436q-34 0 -60.5 11t-44.5 30t-27 44.5t-9 54.5t9 54.5t27 44.5t44 30t61 11q34 0 60.5 -11t44.5 -30t27 -44.5t9 -54.5t-9 -54.5t-27 -44.5t-44.5 -30t-60.5 -11zM196 502q69 0 69 76q0 34 -17 53t-52 19q-36 0 -53 -19t-17 -53q0 -76 70 -76z" />
    <glyph glyph-name="plusminus" unicode="&#xb1;" horiz-adv-x="520" 
d="M206 337h-124q-26 0 -48 11.5t-22 40.5q0 26 22.5 38.5t47.5 12.5h124v132q0 12 2.5 24.5t8.5 22t16.5 16t26.5 6.5q29 0 41.5 -21.5t12.5 -47.5v-132h124q10 0 22.5 -3.5t23 -10.5t17.5 -16t7 -21q0 -29 -22 -40.5t-48 -11.5h-124v-132q0 -29 -12.5 -48.5t-41.5 -19.5
q-23 0 -38.5 15.5t-15.5 35.5v149zM454 102q20 0 37 -14.5t17 -36.5t-15.5 -36.5t-38.5 -14.5h-388q-23 0 -38.5 14.5t-15.5 36.5t16.5 36.5t37.5 14.5h388z" />
    <glyph glyph-name="twosuperior" unicode="&#xb2;" 
d="M239 417q0 -11 -8 -18t-19 -7h-164q-13 0 -20.5 7.5t-7.5 19.5q0 5 0.5 10.5t2.5 10.5q14 32 37 57t49 49q12 11 25 22.5t24 24t18 27t7 30.5q0 23 -14 39t-40 16t-45 -9q-9 -4 -16.5 -9t-16.5 -5q-10 0 -18 7t-8 18q0 12 11 20.5t27 14.5t34 9t32 3q51 0 79.5 -28.5
t28.5 -70.5q0 -32 -10.5 -54t-27.5 -39q-28 -31 -59.5 -58.5t-51.5 -61.5h124q11 0 19 -7t8 -18z" />
    <glyph glyph-name="threesuperior" unicode="&#xb3;" 
d="M219 698q-20 -24 -38.5 -47.5t-37.5 -47.5q41 -4 67 -29.5t26 -69.5q0 -20 -6.5 -40.5t-20 -37.5t-35 -27.5t-51.5 -10.5q-8 0 -25 1.5t-33.5 6t-29 12.5t-12.5 22q0 10 7.5 17.5t18.5 7.5q7 0 13.5 -3t14.5 -6.5t17.5 -6.5t21.5 -3q19 0 31.5 6t20 15.5t11 21t3.5 23.5
q0 29 -18 42t-45 13q-11 0 -15 -3t-13 -3q-10 0 -16.5 7.5t-6.5 16.5q0 8 2 14l82 103h-95q-12 0 -19.5 7.5t-7.5 18.5q0 9 7.5 18t19.5 9h139q11 0 20 -8t9 -21q0 -11 -6 -18z" />
    <glyph glyph-name="acute" unicode="&#xb4;" horiz-adv-x="296" 
d="M178 717q8 8 14 11.5t19 3.5q14 0 27 -11.5t13 -29.5q0 -15 -13 -28l-75 -78q-9 -10 -17.5 -15t-21.5 -5q-17 0 -29.5 11.5t-12.5 30.5q0 9 9.5 21.5t23 26.5t28 27.5t25.5 24.5z" />
    <glyph glyph-name="periodcentered" unicode="&#xb7;" horiz-adv-x="275" 
d="M203 277q0 -28 -20 -47t-49 -19q-28 0 -48 19t-20 47q0 26 20 45.5t48 19.5q29 0 49 -19.5t20 -45.5z" />
    <glyph glyph-name="cedilla" unicode="&#xb8;" horiz-adv-x="320" 
d="M260 -121q0 -38 -27 -65.5t-85 -27.5q-15 0 -32.5 2.5t-32.5 8t-24.5 15t-9.5 23.5t8.5 18.5t20.5 4.5q14 0 27 -3.5t27 -3.5q8 0 18 2t18.5 5.5t14 9.5t5.5 15q0 15 -16 20t-34.5 8.5t-34.5 10t-16 24.5v2l1 6l14 78h63l-10 -68q30 -2 50.5 -9.5t32.5 -19t17 -26
t5 -30.5z" />
    <glyph glyph-name="onesuperior" unicode="&#xb9;" 
d="M133 680l-51 -32q-6 -4 -12 -7t-14 -3t-16 6t-8 17q0 15 12 23l99 60q6 5 15 5q13 0 21.5 -8t8.5 -20v-308q0 -10 -8.5 -18t-19.5 -8t-19 8t-8 18v267z" />
    <glyph glyph-name="ordmasculine" unicode="&#xba;" horiz-adv-x="404" 
d="M202 332q-39 0 -68.5 11.5t-49 32t-29.5 48.5t-10 60v77q0 33 10 61t29.5 48.5t49 32t68.5 11.5t68.5 -11.5t49 -32t29.5 -48.5t10 -61v-77q0 -32 -10 -60t-29.5 -48.5t-49 -32t-68.5 -11.5zM202 626q-33 0 -46.5 -18t-13.5 -51v-75q0 -29 14 -46t46 -17q31 0 45.5 17
t14.5 46v75q0 33 -13.5 51t-46.5 18z" />
    <glyph glyph-name="guillemotright" unicode="&#xbb;" horiz-adv-x="431" 
d="M299 258l-131 197q-3 5 -4 9.5t-1 9.5q0 16 12 26.5t26 10.5t21.5 -7t15.5 -19l152 -229l-158 -237q-9 -14 -16.5 -20.5t-21.5 -6.5q-18 0 -29 12t-11 29q0 9 5 17zM139 256l-93 142q-3 5 -4 9.5t-1 9.5q0 16 12 26.5t26 10.5t21.5 -7t15.5 -19l114 -172l-114 -172
q-8 -12 -15.5 -19t-21.5 -7t-26 10.5t-12 26.5q0 11 5 19z" />
    <glyph glyph-name="questiondown" unicode="&#xbf;" horiz-adv-x="482" 
d="M185 243q4 7 5.5 17t1.5 18q0 20 16.5 36t38.5 16t38 -17t16 -42q0 -20 -8 -39.5t-20.5 -38t-27 -35.5t-27.5 -32l-21 -23q-22 -24 -39.5 -55t-17.5 -67q0 -45 26.5 -76.5t84.5 -31.5q23 0 45 4t42 13q17 8 30.5 18t30.5 10q20 0 36.5 -13.5t16.5 -35.5q0 -24 -21.5 -42
t-53 -29.5t-67.5 -17t-64 -5.5q-50 0 -89.5 15t-67 42t-42.5 63.5t-15 80.5q0 53 18.5 92.5t43 70.5t50.5 55.5t41 48.5zM178 443q0 27 20 47t49 20t48.5 -20t19.5 -47q0 -26 -19.5 -45.5t-48.5 -19.5t-49 19.5t-20 45.5z" />
    <glyph glyph-name="Agrave" unicode="&#xc0;" horiz-adv-x="569" 
d="M20 0zM129 29q-5 -18 -21.5 -28t-30.5 -10q-23 0 -40 14t-17 37q0 4 0.5 10t1.5 9l195 593q8 26 23 43t44 17t43.5 -17t23.5 -43l195 -593q2 -3 2.5 -9t0.5 -10q0 -23 -16.5 -37t-40.5 -14q-27 0 -39 17t-22 44l-32 97h-233zM284 549q-19 -80 -41.5 -154t-45.5 -150h173
q-23 76 -46.5 151t-39.5 153zM246 907q11 -11 25.5 -24.5t28 -27.5t23 -26.5t9.5 -21.5q0 -19 -12.5 -30.5t-29.5 -11.5q-13 0 -21.5 5t-17.5 15l-75 78q-13 13 -13 28q0 18 13 29.5t27 11.5q13 0 19 -3.5t14 -11.5l10 -10v0z" />
    <glyph glyph-name="Aacute" unicode="&#xc1;" horiz-adv-x="569" 
d="M20 0zM129 29q-5 -18 -21.5 -28t-30.5 -10q-23 0 -40 14t-17 37q0 4 0.5 10t1.5 9l195 593q8 26 23 43t44 17t43.5 -17t23.5 -43l195 -593q2 -3 2.5 -9t0.5 -10q0 -23 -16.5 -37t-40.5 -14q-27 0 -39 17t-22 44l-32 97h-233zM284 549q-19 -80 -41.5 -154t-45.5 -150h173
q-23 76 -46.5 151t-39.5 153zM338 917q8 8 14 11.5t19 3.5q14 0 27 -11.5t13 -29.5q0 -15 -13 -28l-75 -78q-9 -10 -17.5 -15t-21.5 -5q-17 0 -29.5 11.5t-12.5 30.5q0 9 9.5 21.5t23 26.5t28 27.5t25.5 24.5z" />
    <glyph glyph-name="Acircumflex" unicode="&#xc2;" horiz-adv-x="569" 
d="M20 0zM129 29q-5 -18 -21.5 -28t-30.5 -10q-23 0 -40 14t-17 37q0 4 0.5 10t1.5 9l195 593q8 26 23 43t44 17t43.5 -17t23.5 -43l195 -593q2 -3 2.5 -9t0.5 -10q0 -23 -16.5 -37t-40.5 -14q-27 0 -39 17t-22 44l-32 97h-233zM284 549q-19 -80 -41.5 -154t-45.5 -150h173
q-23 76 -46.5 151t-39.5 153zM284 825q-10 -8 -21 -19t-23 -21.5t-23 -17.5t-21 -7q-15 0 -29 9.5t-14 26.5q0 12 10.5 25t21.5 21l69 55q6 5 13 8t17 3t17 -3t13 -8l69 -55q11 -8 21.5 -21t10.5 -25q0 -17 -14 -26.5t-29 -9.5q-10 0 -21 7t-23 17.5t-23 21.5t-21 19z" />
    <glyph glyph-name="Atilde" unicode="&#xc3;" horiz-adv-x="569" 
d="M20 0zM129 29q-5 -18 -21.5 -28t-30.5 -10q-23 0 -40 14t-17 37q0 4 0.5 10t1.5 9l195 593q8 26 23 43t44 17t43.5 -17t23.5 -43l195 -593q2 -3 2.5 -9t0.5 -10q0 -23 -16.5 -37t-40.5 -14q-27 0 -39 17t-22 44l-32 97h-233zM284 549q-19 -80 -41.5 -154t-45.5 -150h173
q-23 76 -46.5 151t-39.5 153zM431 846q0 -14 -8 -26t-21 -21t-28 -14.5t-29 -5.5q-18 0 -32.5 5t-27 11.5t-24 12.5t-22.5 7q-12 1 -20 -4t-14.5 -11t-13 -11t-16.5 -5q-14 0 -26 9t-12 25q0 31 26 51.5t59 20.5q18 0 32.5 -5.5t27 -12t23.5 -12t23 -6.5q13 0 20.5 5
t13.5 11t12 11t17 5q16 0 28 -11.5t12 -28.5z" />
    <glyph glyph-name="Adieresis" unicode="&#xc4;" horiz-adv-x="569" 
d="M20 0zM129 29q-5 -18 -21.5 -28t-30.5 -10q-23 0 -40 14t-17 37q0 4 0.5 10t1.5 9l195 593q8 26 23 43t44 17t43.5 -17t23.5 -43l195 -593q2 -3 2.5 -9t0.5 -10q0 -23 -16.5 -37t-40.5 -14q-27 0 -39 17t-22 44l-32 97h-233zM284 549q-19 -80 -41.5 -154t-45.5 -150h173
q-23 76 -46.5 151t-39.5 153zM427 834q0 -23 -16.5 -39.5t-39.5 -16.5t-40 16.5t-17 39.5q0 22 17 38t40 16t39.5 -15.5t16.5 -38.5zM253 834q0 -23 -16.5 -39.5t-40.5 -16.5q-23 0 -39 16.5t-16 39.5q0 22 16 38t39 16q24 0 40.5 -15.5t16.5 -38.5z" />
    <glyph glyph-name="Aring" unicode="&#xc5;" horiz-adv-x="569" 
d="M394 724q0 -26 -10.5 -47.5t-28.5 -35.5q48 -146 95.5 -290t95.5 -290q2 -3 2.5 -9t0.5 -10q0 -23 -16.5 -37t-40.5 -14q-27 0 -39 17t-22 44l-32 97h-233l-37 -120q-6 -18 -22 -28t-30 -10q-23 0 -40 14t-17 37q0 14 3.5 23t6.5 20l183 556q-18 15 -28.5 36t-10.5 47
q0 22 8.5 42t23.5 35t35.5 24t43.5 9t43 -9t34.5 -24t23 -35t8.5 -42zM284 549q-19 -80 -41.5 -154t-45.5 -150h173q-23 76 -46.5 151t-39.5 153zM337 724q0 22 -15.5 37.5t-36.5 15.5q-22 0 -37 -15.5t-15 -37.5t15 -37t37 -15q21 0 36.5 15t15.5 37z" />
    <glyph glyph-name="AE" unicode="&#xc6;" horiz-adv-x="747" 
d="M434 0q-31 0 -54.5 12.5t-23.5 46.5v90h-189l-38 -120q-5 -17 -21.5 -28t-30.5 -11q-25 0 -41 14.5t-16 37.5q0 4 0.5 10t1.5 9l193 583q8 24 24.5 42.5t42.5 18.5h372q23 0 39 -15.5t16 -37.5q0 -21 -16 -35.5t-39 -14.5h-188v-197h169q20 0 37 -14.5t17 -36.5
t-15.5 -37t-38.5 -15h-169v-200h198q22 0 38.5 -14.5t16.5 -34.5q0 -23 -16 -38t-39 -15h-230zM327 602q-17 0 -20 -14l-109 -343h158v357h-29z" />
    <glyph glyph-name="Ccedilla" unicode="&#xc7;" horiz-adv-x="502" 
d="M392 -123q0 -36 -26.5 -62t-74.5 -29q-18 0 -37.5 3.5t-35.5 9.5t-26.5 14.5t-10.5 19.5q0 14 7.5 18.5t19.5 4.5q11 0 29.5 -3t37.5 -3q23 0 34 10t11 22q0 16 -16 21t-34.5 8.5t-34.5 9.5t-16 24q0 2 0.5 4.5t0.5 4.5l8 42q-97 14 -142.5 82t-45.5 172v206
q0 58 14.5 106t44 81.5t74.5 52t107 18.5q37 0 71.5 -7.5t61.5 -21t43 -31t16 -36.5q0 -20 -14.5 -34t-36.5 -14q-14 0 -21.5 4.5t-18.5 11.5q-17 14 -43.5 22.5t-52.5 8.5q-38 0 -64 -11t-42 -32t-22.5 -51t-6.5 -67v-206q0 -37 6.5 -67t22.5 -51t42 -32t64 -11
q24 0 43.5 7t35.5 16t30 16t27 7q20 0 35.5 -13.5t15.5 -33.5q0 -21 -15.5 -37t-40.5 -28t-58 -19.5t-67 -10.5q-1 -8 -1.5 -15t-2.5 -14q58 -3 81.5 -26.5t23.5 -60.5z" />
    <glyph glyph-name="Egrave" unicode="&#xc8;" horiz-adv-x="494" 
d="M68 0zM466 53q0 -23 -16 -38t-39 -15h-265q-31 0 -54.5 12.5t-23.5 46.5v587q0 22 17.5 40.5t44.5 18.5h271q23 0 39 -15.5t16 -37.5t-16 -36t-39 -14h-223v-197h204q20 0 37 -14.5t17 -36.5t-15.5 -37t-38.5 -15h-204v-200h233q22 0 38.5 -14.5t16.5 -34.5zM245 907
q11 -11 25.5 -24.5t28 -27.5t23 -26.5t9.5 -21.5q0 -19 -12.5 -30.5t-29.5 -11.5q-13 0 -21.5 5t-17.5 15l-75 78q-13 13 -13 28q0 18 13 29.5t27 11.5q13 0 19 -3.5t14 -11.5l10 -10v0z" />
    <glyph glyph-name="Eacute" unicode="&#xc9;" horiz-adv-x="494" 
d="M68 0zM466 53q0 -23 -16 -38t-39 -15h-265q-31 0 -54.5 12.5t-23.5 46.5v587q0 22 17.5 40.5t44.5 18.5h271q23 0 39 -15.5t16 -37.5t-16 -36t-39 -14h-223v-197h204q20 0 37 -14.5t17 -36.5t-15.5 -37t-38.5 -15h-204v-200h233q22 0 38.5 -14.5t16.5 -34.5zM311 917
q8 8 14 11.5t19 3.5q14 0 27 -11.5t13 -29.5q0 -15 -13 -28l-75 -78q-9 -10 -17.5 -15t-21.5 -5q-17 0 -29.5 11.5t-12.5 30.5q0 9 9.5 21.5t23 26.5t28 27.5t25.5 24.5z" />
    <glyph glyph-name="Ecircumflex" unicode="&#xca;" horiz-adv-x="494" 
d="M68 0zM466 53q0 -23 -16 -38t-39 -15h-265q-31 0 -54.5 12.5t-23.5 46.5v587q0 22 17.5 40.5t44.5 18.5h271q23 0 39 -15.5t16 -37.5t-16 -36t-39 -14h-223v-197h204q20 0 37 -14.5t17 -36.5t-15.5 -37t-38.5 -15h-204v-200h233q22 0 38.5 -14.5t16.5 -34.5zM273 825
q-10 -8 -21 -19t-23 -21.5t-23 -17.5t-21 -7q-15 0 -29 9.5t-14 26.5q0 12 10.5 25t21.5 21l69 55q6 5 13 8t17 3t17 -3t13 -8l69 -55q11 -8 21.5 -21t10.5 -25q0 -17 -14 -26.5t-29 -9.5q-10 0 -21 7t-23 17.5t-23 21.5t-21 19z" />
    <glyph glyph-name="Edieresis" unicode="&#xcb;" horiz-adv-x="494" 
d="M68 0zM466 53q0 -23 -16 -38t-39 -15h-265q-31 0 -54.5 12.5t-23.5 46.5v587q0 22 17.5 40.5t44.5 18.5h271q23 0 39 -15.5t16 -37.5t-16 -36t-39 -14h-223v-197h204q20 0 37 -14.5t17 -36.5t-15.5 -37t-38.5 -15h-204v-200h233q22 0 38.5 -14.5t16.5 -34.5zM414 834
q0 -23 -16.5 -39.5t-39.5 -16.5t-40 16.5t-17 39.5q0 22 17 38t40 16t39.5 -15.5t16.5 -38.5zM240 834q0 -23 -16.5 -39.5t-40.5 -16.5q-23 0 -39 16.5t-16 39.5q0 22 16 38t39 16q24 0 40.5 -15.5t16.5 -38.5z" />
    <glyph glyph-name="Igrave" unicode="&#xcc;" horiz-adv-x="247" 
d="M10 0zM68 662q0 21 16 36.5t39 15.5t39 -15.5t16 -36.5v-620q0 -20 -16 -36t-39 -16t-39 16t-16 36v620zM93 907q11 -11 25.5 -24.5t28 -27.5t23 -26.5t9.5 -21.5q0 -19 -12.5 -30.5t-29.5 -11.5q-13 0 -21.5 5t-17.5 15l-75 78q-13 13 -13 28q0 18 13 29.5t27 11.5
q13 0 19 -3.5t14 -11.5l10 -10v0z" />
    <glyph glyph-name="Iacute" unicode="&#xcd;" horiz-adv-x="247" 
d="M68 0zM68 662q0 21 16 36.5t39 15.5t39 -15.5t16 -36.5v-620q0 -20 -16 -36t-39 -16t-39 16t-16 36v620zM166 917q8 8 14 11.5t19 3.5q14 0 27 -11.5t13 -29.5q0 -15 -13 -28l-75 -78q-9 -10 -17.5 -15t-21.5 -5q-17 0 -29.5 11.5t-12.5 30.5q0 9 9.5 21.5t23 26.5
t28 27.5t25.5 24.5z" />
    <glyph glyph-name="Icircumflex" unicode="&#xce;" horiz-adv-x="247" 
d="M0 0zM68 662q0 21 16 36.5t39 15.5t39 -15.5t16 -36.5v-620q0 -20 -16 -36t-39 -16t-39 16t-16 36v620zM125 825q-10 -8 -21 -19t-23 -21.5t-23 -17.5t-21 -7q-15 0 -29 9.5t-14 26.5q0 12 10.5 25t21.5 21l69 55q6 5 13 8t17 3t17 -3t13 -8l69 -55q11 -8 21.5 -21
t10.5 -25q0 -17 -14 -26.5t-29 -9.5q-10 0 -21 7t-23 17.5t-23 21.5t-21 19z" />
    <glyph glyph-name="Idieresis" unicode="&#xcf;" horiz-adv-x="247" 
d="M0 0zM68 662q0 21 16 36.5t39 15.5t39 -15.5t16 -36.5v-620q0 -20 -16 -36t-39 -16t-39 16t-16 36v620zM268 834q0 -23 -16.5 -39.5t-39.5 -16.5t-40 16.5t-17 39.5q0 22 17 38t40 16t39.5 -15.5t16.5 -38.5zM94 834q0 -23 -16.5 -39.5t-40.5 -16.5q-23 0 -39 16.5
t-16 39.5q0 22 16 38t39 16q24 0 40.5 -15.5t16.5 -38.5z" />
    <glyph glyph-name="Eth" unicode="&#xd0;" horiz-adv-x="595" 
d="M554 267q0 -52 -15 -100.5t-48.5 -85.5t-89 -59t-136.5 -22h-113q-26 0 -44.5 17.5t-18.5 42.5v244h-24q-22 0 -37 14.5t-15 34.5t15 34.5t37 14.5h24v243q0 25 18.5 42.5t44.5 17.5h113q81 0 136 -21t89 -57t49 -82.5t15 -97.5v-180zM365 353q0 -20 -14.5 -34.5
t-36.5 -14.5h-115v-202h83q45 0 76 13t50 35.5t27.5 52.5t8.5 64v180q0 33 -8.5 61.5t-28 49.5t-50 33t-75.5 12h-83v-201h115q22 0 36.5 -14.5t14.5 -34.5z" />
    <glyph glyph-name="Ntilde" unicode="&#xd1;" horiz-adv-x="620" 
d="M68 0zM492 -10q-16 0 -31 8t-23 21l-260 469v-445q0 -21 -16.5 -37t-39.5 -16t-38.5 16t-15.5 37v615q0 24 16 40t42 16q17 0 32 -8t23 -22q11 -19 31.5 -56t45.5 -82t52.5 -95t52.5 -96t45.5 -83t32.5 -57v446q0 22 16.5 37.5t39.5 15.5t38.5 -15.5t15.5 -37.5v-615
q0 -23 -16.5 -39.5t-42.5 -16.5zM457 846q0 -14 -8 -26t-21 -21t-28 -14.5t-29 -5.5q-18 0 -32.5 5t-27 11.5t-24 12.5t-22.5 7q-12 1 -20 -4t-14.5 -11t-13 -11t-16.5 -5q-14 0 -26 9t-12 25q0 31 26 51.5t59 20.5q18 0 32.5 -5.5t27 -12t23.5 -12t23 -6.5q13 0 20.5 5
t13.5 11t12 11t17 5q16 0 28 -11.5t12 -28.5z" />
    <glyph glyph-name="Ograve" unicode="&#xd2;" horiz-adv-x="580" 
d="M45 0zM290 -10q-61 0 -107 20.5t-76.5 55.5t-46 82.5t-15.5 101.5v206q0 52 13.5 99t43 82.5t76 56t112.5 20.5t112.5 -20.5t76 -56t43 -82.5t13.5 -99v-206q0 -54 -15.5 -101.5t-46 -82.5t-76.5 -55.5t-107 -20.5zM290 612q-74 0 -104.5 -43t-30.5 -113v-206
q0 -70 32.5 -113.5t102.5 -43.5q69 0 102 43.5t33 113.5v206q0 70 -30.5 113t-104.5 43zM258 907q11 -11 25.5 -24.5t28 -27.5t23 -26.5t9.5 -21.5q0 -19 -12.5 -30.5t-29.5 -11.5q-13 0 -21.5 5t-17.5 15l-75 78q-13 13 -13 28q0 18 13 29.5t27 11.5q13 0 19 -3.5t14 -11.5
l10 -10v0z" />
    <glyph glyph-name="Oacute" unicode="&#xd3;" horiz-adv-x="580" 
d="M45 0zM290 -10q-61 0 -107 20.5t-76.5 55.5t-46 82.5t-15.5 101.5v206q0 52 13.5 99t43 82.5t76 56t112.5 20.5t112.5 -20.5t76 -56t43 -82.5t13.5 -99v-206q0 -54 -15.5 -101.5t-46 -82.5t-76.5 -55.5t-107 -20.5zM290 612q-74 0 -104.5 -43t-30.5 -113v-206
q0 -70 32.5 -113.5t102.5 -43.5q69 0 102 43.5t33 113.5v206q0 70 -30.5 113t-104.5 43zM329 917q8 8 14 11.5t19 3.5q14 0 27 -11.5t13 -29.5q0 -15 -13 -28l-75 -78q-9 -10 -17.5 -15t-21.5 -5q-17 0 -29.5 11.5t-12.5 30.5q0 9 9.5 21.5t23 26.5t28 27.5t25.5 24.5z" />
    <glyph glyph-name="Ocircumflex" unicode="&#xd4;" horiz-adv-x="580" 
d="M45 0zM290 -10q-61 0 -107 20.5t-76.5 55.5t-46 82.5t-15.5 101.5v206q0 52 13.5 99t43 82.5t76 56t112.5 20.5t112.5 -20.5t76 -56t43 -82.5t13.5 -99v-206q0 -54 -15.5 -101.5t-46 -82.5t-76.5 -55.5t-107 -20.5zM290 612q-74 0 -104.5 -43t-30.5 -113v-206
q0 -70 32.5 -113.5t102.5 -43.5q69 0 102 43.5t33 113.5v206q0 70 -30.5 113t-104.5 43zM290 825q-10 -8 -21 -19t-23 -21.5t-23 -17.5t-21 -7q-15 0 -29 9.5t-14 26.5q0 12 10.5 25t21.5 21l69 55q6 5 13 8t17 3t17 -3t13 -8l69 -55q11 -8 21.5 -21t10.5 -25
q0 -17 -14 -26.5t-29 -9.5q-10 0 -21 7t-23 17.5t-23 21.5t-21 19z" />
    <glyph glyph-name="Otilde" unicode="&#xd5;" horiz-adv-x="580" 
d="M45 0zM290 -10q-61 0 -107 20.5t-76.5 55.5t-46 82.5t-15.5 101.5v206q0 52 13.5 99t43 82.5t76 56t112.5 20.5t112.5 -20.5t76 -56t43 -82.5t13.5 -99v-206q0 -54 -15.5 -101.5t-46 -82.5t-76.5 -55.5t-107 -20.5zM290 612q-74 0 -104.5 -43t-30.5 -113v-206
q0 -70 32.5 -113.5t102.5 -43.5q69 0 102 43.5t33 113.5v206q0 70 -30.5 113t-104.5 43zM437 846q0 -14 -8 -26t-21 -21t-28 -14.5t-29 -5.5q-18 0 -32.5 5t-27 11.5t-24 12.5t-22.5 7q-12 1 -20 -4t-14.5 -11t-13 -11t-16.5 -5q-14 0 -26 9t-12 25q0 31 26 51.5t59 20.5
q18 0 32.5 -5.5t27 -12t23.5 -12t23 -6.5q13 0 20.5 5t13.5 11t12 11t17 5q16 0 28 -11.5t12 -28.5z" />
    <glyph glyph-name="Odieresis" unicode="&#xd6;" horiz-adv-x="580" 
d="M45 0zM290 -10q-61 0 -107 20.5t-76.5 55.5t-46 82.5t-15.5 101.5v206q0 52 13.5 99t43 82.5t76 56t112.5 20.5t112.5 -20.5t76 -56t43 -82.5t13.5 -99v-206q0 -54 -15.5 -101.5t-46 -82.5t-76.5 -55.5t-107 -20.5zM290 612q-74 0 -104.5 -43t-30.5 -113v-206
q0 -70 32.5 -113.5t102.5 -43.5q69 0 102 43.5t33 113.5v206q0 70 -30.5 113t-104.5 43zM433 834q0 -23 -16.5 -39.5t-39.5 -16.5t-40 16.5t-17 39.5q0 22 17 38t40 16t39.5 -15.5t16.5 -38.5zM259 834q0 -23 -16.5 -39.5t-40.5 -16.5q-23 0 -39 16.5t-16 39.5q0 22 16 38
t39 16q24 0 40.5 -15.5t16.5 -38.5z" />
    <glyph glyph-name="multiply" unicode="&#xd7;" horiz-adv-x="500" 
d="M305 354l120 -120q12 -12 12 -28t-12 -27q-11 -12 -27.5 -11.5t-27.5 11.5l-120 120l-120 -120q-11 -11 -27.5 -11.5t-27.5 11.5q-12 11 -12 27t12 28l120 120l-120 120q-11 11 -11.5 27.5t11.5 27.5q11 12 27 12t28 -12l120 -120l120 120q12 12 28 12t27 -12
q12 -11 11.5 -27.5t-11.5 -27.5z" />
    <glyph glyph-name="Oslash" unicode="&#xd8;" horiz-adv-x="571" 
d="M77 100q-37 62 -37 150v206q0 52 13.5 99t43 82.5t76 56t112.5 20.5q60 0 104 -17t73 -48l32 46q6 9 17 11t20 -4q8 -6 10.5 -16.5t-4.5 -19.5l-43 -61q18 -32 27 -69.5t9 -79.5v-206q0 -54 -15.5 -101.5t-46 -82.5t-76.5 -55.5t-107 -20.5q-57 0 -100.5 17.5t-74.5 48.5
l-32 -46q-6 -9 -17 -11t-20 4q-8 6 -10.5 16.5t4.5 19.5zM285 612q-74 0 -104.5 -43t-30.5 -113v-206q0 -11 0.5 -22t2.5 -20l244 349q-15 26 -42.5 40.5t-69.5 14.5zM420 456q0 10 -1 19.5t-2 19.5l-243 -347q17 -26 44 -40.5t67 -14.5q69 0 102 43.5t33 113.5v206z" />
    <glyph glyph-name="Ugrave" unicode="&#xd9;" horiz-adv-x="592" 
d="M60 0zM532 235q0 -53 -16 -98t-46.5 -77.5t-74.5 -51t-99 -18.5q-57 0 -101 18.5t-74 51t-45.5 77.5t-15.5 98v425q0 23 16 38.5t40 15.5q22 0 38 -15.5t16 -38.5v-425q0 -63 30.5 -102.5t95.5 -39.5q64 0 94.5 39.5t30.5 102.5v425q0 22 15.5 38t38.5 16q24 0 40.5 -16
t16.5 -38v-425v0zM262 907q11 -11 25.5 -24.5t28 -27.5t23 -26.5t9.5 -21.5q0 -19 -12.5 -30.5t-29.5 -11.5q-13 0 -21.5 5t-17.5 15l-75 78q-13 13 -13 28q0 18 13 29.5t27 11.5q13 0 19 -3.5t14 -11.5l10 -10v0z" />
    <glyph glyph-name="Uacute" unicode="&#xda;" horiz-adv-x="592" 
d="M60 0zM532 235q0 -53 -16 -98t-46.5 -77.5t-74.5 -51t-99 -18.5q-57 0 -101 18.5t-74 51t-45.5 77.5t-15.5 98v425q0 23 16 38.5t40 15.5q22 0 38 -15.5t16 -38.5v-425q0 -63 30.5 -102.5t95.5 -39.5q64 0 94.5 39.5t30.5 102.5v425q0 22 15.5 38t38.5 16q24 0 40.5 -16
t16.5 -38v-425v0zM344 917q8 8 14 11.5t19 3.5q14 0 27 -11.5t13 -29.5q0 -15 -13 -28l-75 -78q-9 -10 -17.5 -15t-21.5 -5q-17 0 -29.5 11.5t-12.5 30.5q0 9 9.5 21.5t23 26.5t28 27.5t25.5 24.5z" />
    <glyph glyph-name="Ucircumflex" unicode="&#xdb;" horiz-adv-x="592" 
d="M60 0zM532 235q0 -53 -16 -98t-46.5 -77.5t-74.5 -51t-99 -18.5q-57 0 -101 18.5t-74 51t-45.5 77.5t-15.5 98v425q0 23 16 38.5t40 15.5q22 0 38 -15.5t16 -38.5v-425q0 -63 30.5 -102.5t95.5 -39.5q64 0 94.5 39.5t30.5 102.5v425q0 22 15.5 38t38.5 16q24 0 40.5 -16
t16.5 -38v-425v0zM296 825q-10 -8 -21 -19t-23 -21.5t-23 -17.5t-21 -7q-15 0 -29 9.5t-14 26.5q0 12 10.5 25t21.5 21l69 55q6 5 13 8t17 3t17 -3t13 -8l69 -55q11 -8 21.5 -21t10.5 -25q0 -17 -14 -26.5t-29 -9.5q-10 0 -21 7t-23 17.5t-23 21.5t-21 19z" />
    <glyph glyph-name="Udieresis" unicode="&#xdc;" horiz-adv-x="592" 
d="M60 0zM532 235q0 -53 -16 -98t-46.5 -77.5t-74.5 -51t-99 -18.5q-57 0 -101 18.5t-74 51t-45.5 77.5t-15.5 98v425q0 23 16 38.5t40 15.5q22 0 38 -15.5t16 -38.5v-425q0 -63 30.5 -102.5t95.5 -39.5q64 0 94.5 39.5t30.5 102.5v425q0 22 15.5 38t38.5 16q24 0 40.5 -16
t16.5 -38v-425v0zM438 834q0 -23 -16.5 -39.5t-39.5 -16.5t-40 16.5t-17 39.5q0 22 17 38t40 16t39.5 -15.5t16.5 -38.5zM264 834q0 -23 -16.5 -39.5t-40.5 -16.5q-23 0 -39 16.5t-16 39.5q0 22 16 38t39 16q24 0 40.5 -15.5t16.5 -38.5z" />
    <glyph glyph-name="Yacute" unicode="&#xdd;" horiz-adv-x="503" 
d="M13 0zM251 -10q-23 0 -39.5 16t-16.5 38v232l-177 361q-2 5 -3.5 11.5t-1.5 12.5q0 22 17.5 37.5t38.5 15.5q13 0 25 -5.5t19 -17.5l138 -288l138 288q7 12 19 17.5t25 5.5q22 0 39 -15.5t17 -37.5q0 -5 -1.5 -12t-3.5 -12l-177 -362v-231q0 -21 -16 -37.5t-40 -16.5z
M284 917q8 8 14 11.5t19 3.5q14 0 27 -11.5t13 -29.5q0 -15 -13 -28l-75 -78q-9 -10 -17.5 -15t-21.5 -5q-17 0 -29.5 11.5t-12.5 30.5q0 9 9.5 21.5t23 26.5t28 27.5t25.5 24.5z" />
    <glyph glyph-name="Thorn" unicode="&#xde;" horiz-adv-x="550" 
d="M68 662q0 22 16 37.5t39 15.5t39 -16t16 -37v-76h100q66 0 112 -18.5t74.5 -50t41 -72t12.5 -84.5q0 -53 -17 -94.5t-48.5 -69.5t-75.5 -42.5t-99 -14.5h-100v-97q0 -21 -16 -37t-39 -16t-39 16t-16 37v619zM178 242h100q64 0 97 29t33 91q0 22 -5.5 43.5t-20 39
t-39.5 28t-65 10.5h-100v-241z" />
    <glyph glyph-name="germandbls" unicode="&#xdf;" horiz-adv-x="577" 
d="M538 168q0 -43 -15 -75t-42 -53.5t-65 -32.5t-84 -11q-56 0 -85 15.5t-29 41.5q0 17 12 32t38 15q17 0 36 -5t40 -5q15 0 29.5 4t26.5 13t19 23t7 34q0 36 -14.5 57t-35.5 34t-46.5 21t-46.5 18t-35.5 25.5t-14.5 42.5q0 26 10 40t25.5 23.5t33.5 16.5t33.5 18t25.5 28.5
t10 48.5q0 43 -27.5 64t-69.5 21q-51 0 -74.5 -31t-23.5 -97v-505q0 -20 -15.5 -35t-38.5 -15t-38.5 15t-15.5 35v502q0 106 54 166t157 60q42 0 78.5 -11t63 -32.5t41.5 -54t15 -74.5q0 -55 -24 -89.5t-58 -53.5q-8 -4 -17.5 -8t-17.5 -8t-13.5 -8t-5.5 -7q0 -6 9 -9.5
t26 -9.5q33 -14 62.5 -30.5t51.5 -38t35 -50t13 -65.5z" />
    <glyph glyph-name="agrave" unicode="&#xe0;" horiz-adv-x="502" 
d="M40 0zM317 333q0 88 -92 88q-20 0 -33 -4t-26 -9l-19 -8q-10 -5 -26 -5q-22 0 -31.5 14t-9.5 30q0 20 13 34t35 23t50 13t57 4q102 0 146 -52t44 -152v-203q0 -19 7 -24.5t18 -7.5q30 -6 30 -36q0 -42 -59 -42q-52 0 -80 45q-56 -48 -136 -48q-82 0 -123.5 42t-41.5 112
v3q0 151 187 151q46 0 90 -12v44zM230 219q-26 0 -42.5 -5.5t-25.5 -15t-12 -22.5t-3 -27v-3q0 -30 16.5 -46.5t58.5 -16.5q26 0 49 8t46 27v90q-22 5 -45 8t-42 3zM239 707q11 -11 25.5 -24.5t28 -27.5t23 -26.5t9.5 -21.5q0 -19 -12.5 -30.5t-29.5 -11.5q-13 0 -21.5 5
t-17.5 15l-75 78q-13 13 -13 28q0 18 13 29.5t27 11.5q13 0 19 -3.5t14 -11.5l10 -10v0z" />
    <glyph glyph-name="aacute" unicode="&#xe1;" horiz-adv-x="502" 
d="M40 0zM317 333q0 88 -92 88q-20 0 -33 -4t-26 -9l-19 -8q-10 -5 -26 -5q-22 0 -31.5 14t-9.5 30q0 20 13 34t35 23t50 13t57 4q102 0 146 -52t44 -152v-203q0 -19 7 -24.5t18 -7.5q30 -6 30 -36q0 -42 -59 -42q-52 0 -80 45q-56 -48 -136 -48q-82 0 -123.5 42t-41.5 112
v3q0 151 187 151q46 0 90 -12v44zM230 219q-26 0 -42.5 -5.5t-25.5 -15t-12 -22.5t-3 -27v-3q0 -30 16.5 -46.5t58.5 -16.5q26 0 49 8t46 27v90q-22 5 -45 8t-42 3zM276 717q8 8 14 11.5t19 3.5q14 0 27 -11.5t13 -29.5q0 -15 -13 -28l-75 -78q-9 -10 -17.5 -15t-21.5 -5
q-17 0 -29.5 11.5t-12.5 30.5q0 9 9.5 21.5t23 26.5t28 27.5t25.5 24.5z" />
    <glyph glyph-name="acircumflex" unicode="&#xe2;" horiz-adv-x="502" 
d="M40 0zM317 333q0 88 -92 88q-20 0 -33 -4t-26 -9l-19 -8q-10 -5 -26 -5q-22 0 -31.5 14t-9.5 30q0 20 13 34t35 23t50 13t57 4q102 0 146 -52t44 -152v-203q0 -19 7 -24.5t18 -7.5q30 -6 30 -36q0 -42 -59 -42q-52 0 -80 45q-56 -48 -136 -48q-82 0 -123.5 42t-41.5 112
v3q0 151 187 151q46 0 90 -12v44zM230 219q-26 0 -42.5 -5.5t-25.5 -15t-12 -22.5t-3 -27v-3q0 -30 16.5 -46.5t58.5 -16.5q26 0 49 8t46 27v90q-22 5 -45 8t-42 3zM251 625q-10 -8 -21 -19t-23 -21.5t-23 -17.5t-21 -7q-15 0 -29 9.5t-14 26.5q0 12 10.5 25t21.5 21l69 55
q6 5 13 8t17 3t17 -3t13 -8l69 -55q11 -8 21.5 -21t10.5 -25q0 -17 -14 -26.5t-29 -9.5q-10 0 -21 7t-23 17.5t-23 21.5t-21 19z" />
    <glyph glyph-name="atilde" unicode="&#xe3;" horiz-adv-x="502" 
d="M40 0zM317 333q0 88 -92 88q-20 0 -33 -4t-26 -9l-19 -8q-10 -5 -26 -5q-22 0 -31.5 14t-9.5 30q0 20 13 34t35 23t50 13t57 4q102 0 146 -52t44 -152v-203q0 -19 7 -24.5t18 -7.5q30 -6 30 -36q0 -42 -59 -42q-52 0 -80 45q-56 -48 -136 -48q-82 0 -123.5 42t-41.5 112
v3q0 151 187 151q46 0 90 -12v44zM230 219q-26 0 -42.5 -5.5t-25.5 -15t-12 -22.5t-3 -27v-3q0 -30 16.5 -46.5t58.5 -16.5q26 0 49 8t46 27v90q-22 5 -45 8t-42 3zM398 646q0 -14 -8 -26t-21 -21t-28 -14.5t-29 -5.5q-18 0 -32.5 5t-27 11.5t-24 12.5t-22.5 7q-12 1 -20 -4
t-14.5 -11t-13 -11t-16.5 -5q-14 0 -26 9t-12 25q0 31 26 51.5t59 20.5q18 0 32.5 -5.5t27 -12t23.5 -12t23 -6.5q13 0 20.5 5t13.5 11t12 11t17 5q16 0 28 -11.5t12 -28.5z" />
    <glyph glyph-name="adieresis" unicode="&#xe4;" horiz-adv-x="502" 
d="M40 0zM317 333q0 88 -92 88q-20 0 -33 -4t-26 -9l-19 -8q-10 -5 -26 -5q-22 0 -31.5 14t-9.5 30q0 20 13 34t35 23t50 13t57 4q102 0 146 -52t44 -152v-203q0 -19 7 -24.5t18 -7.5q30 -6 30 -36q0 -42 -59 -42q-52 0 -80 45q-56 -48 -136 -48q-82 0 -123.5 42t-41.5 112
v3q0 151 187 151q46 0 90 -12v44zM230 219q-26 0 -42.5 -5.5t-25.5 -15t-12 -22.5t-3 -27v-3q0 -30 16.5 -46.5t58.5 -16.5q26 0 49 8t46 27v90q-22 5 -45 8t-42 3zM393 634q0 -23 -16.5 -39.5t-39.5 -16.5t-40 16.5t-17 39.5q0 22 17 38t40 16t39.5 -15.5t16.5 -38.5z
M219 634q0 -23 -16.5 -39.5t-40.5 -16.5q-23 0 -39 16.5t-16 39.5q0 22 16 38t39 16q24 0 40.5 -15.5t16.5 -38.5z" />
    <glyph glyph-name="aring" unicode="&#xe5;" horiz-adv-x="502" 
d="M40 0zM317 333q0 88 -92 88q-20 0 -33 -4t-26 -9l-19 -8q-10 -5 -26 -5q-22 0 -31.5 14t-9.5 30q0 20 13 34t35 23t50 13t57 4q102 0 146 -52t44 -152v-203q0 -19 7 -24.5t18 -7.5q30 -6 30 -36q0 -42 -59 -42q-52 0 -80 45q-56 -48 -136 -48q-82 0 -123.5 42t-41.5 112
v3q0 151 187 151q46 0 90 -12v44zM230 219q-26 0 -42.5 -5.5t-25.5 -15t-12 -22.5t-3 -27v-3q0 -30 16.5 -46.5t58.5 -16.5q26 0 49 8t46 27v90q-22 5 -45 8t-42 3zM357 644q0 -44 -30 -74t-74 -30q-45 0 -75 30t-30 74q0 21 8 40t22.5 33.5t33.5 22.5t41 8t41 -8t33 -22.5
t22 -33.5t8 -40zM302 644q0 20 -14.5 35t-34.5 15t-34.5 -15t-14.5 -35t14.5 -34.5t34.5 -14.5t34.5 14.5t14.5 34.5z" />
    <glyph glyph-name="ae" unicode="&#xe6;" horiz-adv-x="712" 
d="M502 192q-20 0 -42.5 1.5t-44.5 4.5v-40q0 -34 23.5 -54t70.5 -20q29 0 50 7t47 18q5 2 9.5 3.5t11.5 1.5q21 0 35.5 -14.5t14.5 -32.5q0 -21 -19.5 -35.5t-47 -23.5t-57.5 -12.5t-50 -3.5q-49 0 -83.5 16t-56.5 45q-70 -61 -165 -61q-85 0 -126.5 43t-41.5 114v3
q0 154 191 154q47 0 86 -10v37q0 88 -92 88q-23 0 -38.5 -5t-31.5 -13q-5 -2 -13 -5.5t-19 -3.5q-22 0 -32 14t-11 29q-2 20 11 34.5t35.5 23.5t51 13.5t57.5 4.5q51 0 84 -16.5t53 -49.5q21 30 57.5 48t89.5 18q88 0 132.5 -45.5t44.5 -121.5q0 -72 -43.5 -113t-140.5 -41z
M579 346q0 39 -20 56t-56 17q-42 0 -65 -19.5t-23 -53.5v-59q24 -2 50.5 -4t39.5 -2q23 0 37.5 5.5t22.5 14.5t11 21t3 24zM307 205q-22 6 -45 9t-42 3q-26 0 -42.5 -5.5t-25.5 -14.5t-12 -21t-3 -25v-3q0 -28 15.5 -45.5t57.5 -17.5q28 0 51 8.5t46 26.5v85z" />
    <glyph glyph-name="ccedilla" unicode="&#xe7;" horiz-adv-x="418" 
d="M353 -123q0 -39 -29.5 -65t-83.5 -26q-15 0 -32.5 2.5t-32.5 8.5t-24.5 15t-9.5 22t8 17.5t19 4.5q10 0 28.5 -3t38.5 -3q23 0 34 10t11 22q0 15 -15.5 21t-34.5 10t-34.5 10t-15.5 21q0 12 2.5 26t5.5 27q-37 6 -64 23t-44.5 41t-26 54.5t-8.5 64.5v143q0 39 11.5 73.5
t35 59.5t60 39.5t86.5 14.5q20 0 46.5 -3t50.5 -11.5t41 -23t17 -36.5q0 -19 -14.5 -30.5t-37.5 -11.5q-4 0 -12 2l-21 8q-14 5 -28 9.5t-34 4.5q-51 0 -72 -25t-21 -70v-143q0 -45 21.5 -70.5t71.5 -25.5q16 0 29 4t24 8.5t22 8.5t23 4q25 0 36 -13t11 -27q0 -21 -14 -35.5
t-34.5 -23t-45 -12.5t-45.5 -5q-2 -8 -2.5 -14.5t-1.5 -14.5q58 -3 81.5 -26.5t23.5 -60.5z" />
    <glyph glyph-name="egrave" unicode="&#xe8;" horiz-adv-x="460" 
d="M45 0zM242 197q-21 0 -43 1.5t-46 5.5v-46q0 -34 23 -54t71 -20q28 0 50 7t47 18q2 2 7.5 3.5t14.5 1.5q26 0 37.5 -15t11.5 -30q0 -23 -19.5 -37.5t-47 -23.5t-58 -12.5t-52.5 -3.5q-46 0 -82 13t-60.5 36t-37.5 54.5t-13 67.5v177q0 37 13 68.5t38 54.5t62 36.5
t85 13.5q91 0 136 -45.5t45 -120.5q0 -71 -43 -110.5t-139 -39.5zM317 350q0 40 -19.5 57t-56.5 17q-42 0 -65 -21t-23 -57v-59q26 -3 51.5 -4.5t36.5 -1.5q43 0 59.5 18.5t16.5 50.5zM208 707q11 -11 25.5 -24.5t28 -27.5t23 -26.5t9.5 -21.5q0 -19 -12.5 -30.5
t-29.5 -11.5q-13 0 -21.5 5t-17.5 15l-75 78q-13 13 -13 28q0 18 13 29.5t27 11.5q13 0 19 -3.5t14 -11.5l10 -10v0z" />
    <glyph glyph-name="eacute" unicode="&#xe9;" horiz-adv-x="460" 
d="M45 0zM242 197q-21 0 -43 1.5t-46 5.5v-46q0 -34 23 -54t71 -20q28 0 50 7t47 18q2 2 7.5 3.5t14.5 1.5q26 0 37.5 -15t11.5 -30q0 -23 -19.5 -37.5t-47 -23.5t-58 -12.5t-52.5 -3.5q-46 0 -82 13t-60.5 36t-37.5 54.5t-13 67.5v177q0 37 13 68.5t38 54.5t62 36.5
t85 13.5q91 0 136 -45.5t45 -120.5q0 -71 -43 -110.5t-139 -39.5zM317 350q0 40 -19.5 57t-56.5 17q-42 0 -65 -21t-23 -57v-59q26 -3 51.5 -4.5t36.5 -1.5q43 0 59.5 18.5t16.5 50.5zM282 717q8 8 14 11.5t19 3.5q14 0 27 -11.5t13 -29.5q0 -15 -13 -28l-75 -78
q-9 -10 -17.5 -15t-21.5 -5q-17 0 -29.5 11.5t-12.5 30.5q0 9 9.5 21.5t23 26.5t28 27.5t25.5 24.5z" />
    <glyph glyph-name="ecircumflex" unicode="&#xea;" horiz-adv-x="460" 
d="M45 0zM242 197q-21 0 -43 1.5t-46 5.5v-46q0 -34 23 -54t71 -20q28 0 50 7t47 18q2 2 7.5 3.5t14.5 1.5q26 0 37.5 -15t11.5 -30q0 -23 -19.5 -37.5t-47 -23.5t-58 -12.5t-52.5 -3.5q-46 0 -82 13t-60.5 36t-37.5 54.5t-13 67.5v177q0 37 13 68.5t38 54.5t62 36.5
t85 13.5q91 0 136 -45.5t45 -120.5q0 -71 -43 -110.5t-139 -39.5zM317 350q0 40 -19.5 57t-56.5 17q-42 0 -65 -21t-23 -57v-59q26 -3 51.5 -4.5t36.5 -1.5q43 0 59.5 18.5t16.5 50.5zM235 625q-10 -8 -21 -19t-23 -21.5t-23 -17.5t-21 -7q-15 0 -29 9.5t-14 26.5
q0 12 10.5 25t21.5 21l69 55q6 5 13 8t17 3t17 -3t13 -8l69 -55q11 -8 21.5 -21t10.5 -25q0 -17 -14 -26.5t-29 -9.5q-10 0 -21 7t-23 17.5t-23 21.5t-21 19z" />
    <glyph glyph-name="edieresis" unicode="&#xeb;" horiz-adv-x="460" 
d="M45 0zM242 197q-21 0 -43 1.5t-46 5.5v-46q0 -34 23 -54t71 -20q28 0 50 7t47 18q2 2 7.5 3.5t14.5 1.5q26 0 37.5 -15t11.5 -30q0 -23 -19.5 -37.5t-47 -23.5t-58 -12.5t-52.5 -3.5q-46 0 -82 13t-60.5 36t-37.5 54.5t-13 67.5v177q0 37 13 68.5t38 54.5t62 36.5
t85 13.5q91 0 136 -45.5t45 -120.5q0 -71 -43 -110.5t-139 -39.5zM317 350q0 40 -19.5 57t-56.5 17q-42 0 -65 -21t-23 -57v-59q26 -3 51.5 -4.5t36.5 -1.5q43 0 59.5 18.5t16.5 50.5zM373 634q0 -23 -16.5 -39.5t-39.5 -16.5t-40 16.5t-17 39.5q0 22 17 38t40 16
t39.5 -15.5t16.5 -38.5zM199 634q0 -23 -16.5 -39.5t-40.5 -16.5q-23 0 -39 16.5t-16 39.5q0 22 16 38t39 16q24 0 40.5 -15.5t16.5 -38.5z" />
    <glyph glyph-name="igrave" unicode="&#xec;" horiz-adv-x="265" 
d="M13 0zM96 707q11 -11 25.5 -24.5t28 -27.5t23 -26.5t9.5 -21.5q0 -19 -12.5 -30.5t-29.5 -11.5q-13 0 -21.5 5t-17.5 15l-75 78q-13 13 -13 28q0 18 13 29.5t27 11.5q13 0 19 -3.5t14 -11.5l10 -10v0zM186 43q0 -22 -15.5 -36.5t-38.5 -14.5t-38.5 14.5t-15.5 36.5v417
q0 20 15.5 35t38.5 15t38.5 -15t15.5 -35v-417v0z" />
    <glyph glyph-name="iacute" unicode="&#xed;" horiz-adv-x="265" 
d="M78 0zM182 717q8 8 14 11.5t19 3.5q14 0 27 -11.5t13 -29.5q0 -15 -13 -28l-75 -78q-9 -10 -17.5 -15t-21.5 -5q-17 0 -29.5 11.5t-12.5 30.5q0 9 9.5 21.5t23 26.5t28 27.5t25.5 24.5zM186 43q0 -22 -15.5 -36.5t-38.5 -14.5t-38.5 14.5t-15.5 36.5v417q0 20 15.5 35
t38.5 15t38.5 -15t15.5 -35v-417v0z" />
    <glyph glyph-name="icircumflex" unicode="&#xee;" horiz-adv-x="265" 
d="M3 0zM186 43q0 -22 -15.5 -36.5t-38.5 -14.5t-38.5 14.5t-15.5 36.5v417q0 20 15.5 35t38.5 15t38.5 -15t15.5 -35v-417v0zM134 625q-10 -8 -21 -19t-23 -21.5t-23 -17.5t-21 -7q-15 0 -29 9.5t-14 26.5q0 12 10.5 25t21.5 21l69 55q6 5 13 8t17 3t17 -3t13 -8l69 -55
q11 -8 21.5 -21t10.5 -25q0 -17 -14 -26.5t-29 -9.5q-10 0 -21 7t-23 17.5t-23 21.5t-21 19z" />
    <glyph glyph-name="idieresis" unicode="&#xef;" horiz-adv-x="265" 
d="M0 0zM277 634q0 -23 -16.5 -39.5t-39.5 -16.5t-40 16.5t-17 39.5q0 22 17 38t40 16t39.5 -15.5t16.5 -38.5zM103 634q0 -23 -16.5 -39.5t-40.5 -16.5q-23 0 -39 16.5t-16 39.5q0 22 16 38t39 16q24 0 40.5 -15.5t16.5 -38.5zM186 43q0 -22 -15.5 -36.5t-38.5 -14.5
t-38.5 14.5t-15.5 36.5v417q0 20 15.5 35t38.5 15t38.5 -15t15.5 -35v-417v0z" />
    <glyph glyph-name="eth" unicode="&#xf0;" horiz-adv-x="537" 
d="M516 663q2 -2 2 -7q0 -19 -14 -27l-59 -39q22 -48 34 -114.5t12 -154.5q0 -100 -15 -164t-43 -101t-68 -51.5t-90 -14.5q-61 0 -104.5 17t-72 47t-42 70.5t-13.5 88.5q0 47 13 88.5t38 72t62.5 48.5t87.5 18q26 0 63 -7.5t71 -30.5q-2 42 -6.5 73t-12.5 54l-51 -31
q-8 -6 -14 -8t-10 -2q-11 -2 -22 8.5t-10 24.5q0 8 3 15.5t11 12.5l59 38q-19 18 -41 24t-43 8q-7 0 -15 1.5t-14 6t-9.5 13.5t-2.5 25q2 22 15 32.5t55 10.5q85 0 139 -63l52 35q11 8 24 9q10 0 15.5 -3.5t8.5 -8.5q4 -5 5 -12zM381 299q-12 10 -28 18.5t-33.5 14.5
t-35.5 9.5t-33 3.5q-48 0 -74 -33.5t-26 -93.5q0 -28 6.5 -52t20.5 -41.5t37 -27.5t55 -10q63 0 87 45.5t24 146.5v20z" />
    <glyph glyph-name="ntilde" unicode="&#xf1;" horiz-adv-x="529" 
d="M47 0zM180 43q0 -21 -13.5 -35.5t-40.5 -14.5t-40.5 14.5t-13.5 35.5v321q0 16 -1 25.5t-3 15t-4.5 8.5t-4.5 7q-6 9 -9 15t-3 15q0 20 14.5 33t37.5 13q28 0 47 -29q34 23 69.5 33.5t68.5 10.5q87 0 130.5 -53t43.5 -139v-276q0 -21 -14 -35.5t-40 -14.5t-40 14.5
t-14 35.5v276q0 48 -20.5 74t-58.5 26q-43 0 -94 -31q3 -14 3 -24v-321zM399 646q0 -14 -8 -26t-21 -21t-28 -14.5t-29 -5.5q-18 0 -32.5 5t-27 11.5t-24 12.5t-22.5 7q-12 1 -20 -4t-14.5 -11t-13 -11t-16.5 -5q-14 0 -26 9t-12 25q0 31 26 51.5t59 20.5q18 0 32.5 -5.5
t27 -12t23.5 -12t23 -6.5q13 0 20.5 5t13.5 11t12 11t17 5q16 0 28 -11.5t12 -28.5z" />
    <glyph glyph-name="ograve" unicode="&#xf2;" horiz-adv-x="494" 
d="M45 0zM247 -8q-50 0 -87.5 14t-63 38.5t-38.5 58t-13 71.5v158q0 39 13 72t38.5 57.5t63 38.5t87.5 14q49 0 87 -14t63.5 -38.5t38.5 -57.5t13 -72v-158q0 -38 -13 -71.5t-38.5 -58t-63.5 -38.5t-87 -14zM247 87q47 0 70.5 23t23.5 64v159q0 40 -23.5 63t-70.5 23
t-70.5 -23t-23.5 -63v-159q0 -41 23.5 -64t70.5 -23zM215 707q11 -11 25.5 -24.5t28 -27.5t23 -26.5t9.5 -21.5q0 -19 -12.5 -30.5t-29.5 -11.5q-13 0 -21.5 5t-17.5 15l-75 78q-13 13 -13 28q0 18 13 29.5t27 11.5q13 0 19 -3.5t14 -11.5l10 -10v0z" />
    <glyph glyph-name="oacute" unicode="&#xf3;" horiz-adv-x="494" 
d="M45 0zM247 -8q-50 0 -87.5 14t-63 38.5t-38.5 58t-13 71.5v158q0 39 13 72t38.5 57.5t63 38.5t87.5 14q49 0 87 -14t63.5 -38.5t38.5 -57.5t13 -72v-158q0 -38 -13 -71.5t-38.5 -58t-63.5 -38.5t-87 -14zM247 87q47 0 70.5 23t23.5 64v159q0 40 -23.5 63t-70.5 23
t-70.5 -23t-23.5 -63v-159q0 -41 23.5 -64t70.5 -23zM277 717q8 8 14 11.5t19 3.5q14 0 27 -11.5t13 -29.5q0 -15 -13 -28l-75 -78q-9 -10 -17.5 -15t-21.5 -5q-17 0 -29.5 11.5t-12.5 30.5q0 9 9.5 21.5t23 26.5t28 27.5t25.5 24.5z" />
    <glyph glyph-name="ocircumflex" unicode="&#xf4;" horiz-adv-x="494" 
d="M45 0zM247 -8q-50 0 -87.5 14t-63 38.5t-38.5 58t-13 71.5v158q0 39 13 72t38.5 57.5t63 38.5t87.5 14q49 0 87 -14t63.5 -38.5t38.5 -57.5t13 -72v-158q0 -38 -13 -71.5t-38.5 -58t-63.5 -38.5t-87 -14zM247 87q47 0 70.5 23t23.5 64v159q0 40 -23.5 63t-70.5 23
t-70.5 -23t-23.5 -63v-159q0 -41 23.5 -64t70.5 -23zM247 625q-10 -8 -21 -19t-23 -21.5t-23 -17.5t-21 -7q-15 0 -29 9.5t-14 26.5q0 12 10.5 25t21.5 21l69 55q6 5 13 8t17 3t17 -3t13 -8l69 -55q11 -8 21.5 -21t10.5 -25q0 -17 -14 -26.5t-29 -9.5q-10 0 -21 7t-23 17.5
t-23 21.5t-21 19z" />
    <glyph glyph-name="otilde" unicode="&#xf5;" horiz-adv-x="494" 
d="M45 0zM247 -8q-50 0 -87.5 14t-63 38.5t-38.5 58t-13 71.5v158q0 39 13 72t38.5 57.5t63 38.5t87.5 14q49 0 87 -14t63.5 -38.5t38.5 -57.5t13 -72v-158q0 -38 -13 -71.5t-38.5 -58t-63.5 -38.5t-87 -14zM247 87q47 0 70.5 23t23.5 64v159q0 40 -23.5 63t-70.5 23
t-70.5 -23t-23.5 -63v-159q0 -41 23.5 -64t70.5 -23zM394 646q0 -14 -8 -26t-21 -21t-28 -14.5t-29 -5.5q-18 0 -32.5 5t-27 11.5t-24 12.5t-22.5 7q-12 1 -20 -4t-14.5 -11t-13 -11t-16.5 -5q-14 0 -26 9t-12 25q0 31 26 51.5t59 20.5q18 0 32.5 -5.5t27 -12t23.5 -12
t23 -6.5q13 0 20.5 5t13.5 11t12 11t17 5q16 0 28 -11.5t12 -28.5z" />
    <glyph glyph-name="odieresis" unicode="&#xf6;" horiz-adv-x="494" 
d="M45 0zM247 -8q-50 0 -87.5 14t-63 38.5t-38.5 58t-13 71.5v158q0 39 13 72t38.5 57.5t63 38.5t87.5 14q49 0 87 -14t63.5 -38.5t38.5 -57.5t13 -72v-158q0 -38 -13 -71.5t-38.5 -58t-63.5 -38.5t-87 -14zM247 87q47 0 70.5 23t23.5 64v159q0 40 -23.5 63t-70.5 23
t-70.5 -23t-23.5 -63v-159q0 -41 23.5 -64t70.5 -23zM389 634q0 -23 -16.5 -39.5t-39.5 -16.5t-40 16.5t-17 39.5q0 22 17 38t40 16t39.5 -15.5t16.5 -38.5zM215 634q0 -23 -16.5 -39.5t-40.5 -16.5q-23 0 -39 16.5t-16 39.5q0 22 16 38t39 16q24 0 40.5 -15.5t16.5 -38.5z
" />
    <glyph glyph-name="oslash" unicode="&#xf8;" horiz-adv-x="494" 
d="M83 61q-20 23 -29 52t-9 61v158q0 39 13 72t38.5 57.5t63 38.5t87.5 14q40 0 72 -9t56 -26l25 35q8 11 21 11q11 0 19 -8.5t8 -17.5q0 -7 -5 -15l-30 -42q36 -47 36 -110v-158q0 -38 -13 -71t-38.5 -57.5t-63.5 -38.5t-87 -14q-76 0 -126 32l-23 -34q-8 -11 -22 -11
q-11 0 -18.5 8t-7.5 18q0 7 5 15zM153 176q6 -2 9 -2q39 56 77.5 111t77.5 110q-26 24 -70 24q-47 0 -70.5 -23t-23.5 -63v-157zM247 87q47 0 70.5 23t23.5 64v139v12t-1 12l-161 -229q24 -21 68 -21z" />
    <glyph glyph-name="ugrave" unicode="&#xf9;" horiz-adv-x="529" 
d="M69 0zM381 32q-34 -22 -69.5 -31t-70.5 -9q-42 0 -74.5 14t-54 39.5t-32.5 61t-11 78.5v276q0 21 14 35t40 14t40 -14t14 -35v-276q0 -48 19.5 -74t58.5 -26q23 0 46.5 7t47.5 20q-1 7 -1.5 13t-0.5 11v325q0 21 13.5 35t40.5 14t40.5 -14t13.5 -35v-335q0 -26 5 -34.5
t13 -18.5q5 -5 8 -11.5t3 -15.5q0 -22 -15.5 -35t-35.5 -13q-17 0 -29.5 9.5t-22.5 24.5zM224 707q11 -11 25.5 -24.5t28 -27.5t23 -26.5t9.5 -21.5q0 -19 -12.5 -30.5t-29.5 -11.5q-13 0 -21.5 5t-17.5 15l-75 78q-13 13 -13 28q0 18 13 29.5t27 11.5q13 0 19 -3.5
t14 -11.5l10 -10v0z" />
    <glyph glyph-name="uacute" unicode="&#xfa;" horiz-adv-x="529" 
d="M69 0zM381 32q-34 -22 -69.5 -31t-70.5 -9q-42 0 -74.5 14t-54 39.5t-32.5 61t-11 78.5v276q0 21 14 35t40 14t40 -14t14 -35v-276q0 -48 19.5 -74t58.5 -26q23 0 46.5 7t47.5 20q-1 7 -1.5 13t-0.5 11v325q0 21 13.5 35t40.5 14t40.5 -14t13.5 -35v-335q0 -26 5 -34.5
t13 -18.5q5 -5 8 -11.5t3 -15.5q0 -22 -15.5 -35t-35.5 -13q-17 0 -29.5 9.5t-22.5 24.5zM313 717q8 8 14 11.5t19 3.5q14 0 27 -11.5t13 -29.5q0 -15 -13 -28l-75 -78q-9 -10 -17.5 -15t-21.5 -5q-17 0 -29.5 11.5t-12.5 30.5q0 9 9.5 21.5t23 26.5t28 27.5t25.5 24.5z" />
    <glyph glyph-name="ucircumflex" unicode="&#xfb;" horiz-adv-x="529" 
d="M69 0zM381 32q-34 -22 -69.5 -31t-70.5 -9q-42 0 -74.5 14t-54 39.5t-32.5 61t-11 78.5v276q0 21 14 35t40 14t40 -14t14 -35v-276q0 -48 19.5 -74t58.5 -26q23 0 46.5 7t47.5 20q-1 7 -1.5 13t-0.5 11v325q0 21 13.5 35t40.5 14t40.5 -14t13.5 -35v-335q0 -26 5 -34.5
t13 -18.5q5 -5 8 -11.5t3 -15.5q0 -22 -15.5 -35t-35.5 -13q-17 0 -29.5 9.5t-22.5 24.5zM264 625q-10 -8 -21 -19t-23 -21.5t-23 -17.5t-21 -7q-15 0 -29 9.5t-14 26.5q0 12 10.5 25t21.5 21l69 55q6 5 13 8t17 3t17 -3t13 -8l69 -55q11 -8 21.5 -21t10.5 -25
q0 -17 -14 -26.5t-29 -9.5q-10 0 -21 7t-23 17.5t-23 21.5t-21 19z" />
    <glyph glyph-name="udieresis" unicode="&#xfc;" horiz-adv-x="529" 
d="M69 0zM381 32q-34 -22 -69.5 -31t-70.5 -9q-42 0 -74.5 14t-54 39.5t-32.5 61t-11 78.5v276q0 21 14 35t40 14t40 -14t14 -35v-276q0 -48 19.5 -74t58.5 -26q23 0 46.5 7t47.5 20q-1 7 -1.5 13t-0.5 11v325q0 21 13.5 35t40.5 14t40.5 -14t13.5 -35v-335q0 -26 5 -34.5
t13 -18.5q5 -5 8 -11.5t3 -15.5q0 -22 -15.5 -35t-35.5 -13q-17 0 -29.5 9.5t-22.5 24.5zM407 634q0 -23 -16.5 -39.5t-39.5 -16.5t-40 16.5t-17 39.5q0 22 17 38t40 16t39.5 -15.5t16.5 -38.5zM233 634q0 -23 -16.5 -39.5t-40.5 -16.5q-23 0 -39 16.5t-16 39.5q0 22 16 38
t39 16q24 0 40.5 -15.5t16.5 -38.5z" />
    <glyph glyph-name="yacute" unicode="&#xfd;" horiz-adv-x="443" 
d="M16 0zM304 69q-19 -59 -37.5 -109t-43.5 -86t-60.5 -56.5t-88.5 -20.5q-24 0 -39.5 14t-15.5 35q0 18 13.5 32.5t37.5 16.5q40 0 62.5 28.5t43.5 91.5l-157 428q-2 5 -2.5 10.5t-0.5 9.5q0 20 15.5 33.5t38.5 13.5q15 0 29 -8.5t20 -25.5l9 -27q26 -76 51 -151t50 -153
q23 85 46 166.5t49 164.5q5 17 20.5 25.5t30.5 8.5q20 0 37 -13.5t17 -36.5q0 -8 -3 -15zM276 717q8 8 14 11.5t19 3.5q14 0 27 -11.5t13 -29.5q0 -15 -13 -28l-75 -78q-9 -10 -17.5 -15t-21.5 -5q-17 0 -29.5 11.5t-12.5 30.5q0 9 9.5 21.5t23 26.5t28 27.5t25.5 24.5z" />
    <glyph glyph-name="thorn" unicode="&#xfe;" horiz-adv-x="510" 
d="M177 138q37 -39 97 -39q44 0 63.5 19t19.5 54v183q0 34 -19.5 53t-63.5 19q-60 0 -97 -39v-250zM69 674q0 20 14 34.5t40 14.5t40 -14.5t14 -34.5v-195q26 17 54.5 25.5t66.5 8.5q45 0 76.5 -12.5t52 -34t29.5 -51t9 -63.5v-178q0 -34 -9 -63.5t-29.5 -51t-52 -34
t-76.5 -12.5q-38 0 -66.5 9t-54.5 26v-215q0 -20 -14 -35t-40 -15t-40 15t-14 35v841z" />
    <glyph glyph-name="ydieresis" unicode="&#xff;" horiz-adv-x="443" 
d="M16 0zM304 69q-19 -59 -37.5 -109t-43.5 -86t-60.5 -56.5t-88.5 -20.5q-24 0 -39.5 14t-15.5 35q0 18 13.5 32.5t37.5 16.5q40 0 62.5 28.5t43.5 91.5l-157 428q-2 5 -2.5 10.5t-0.5 9.5q0 20 15.5 33.5t38.5 13.5q15 0 29 -8.5t20 -25.5l9 -27q26 -76 51 -151t50 -153
q23 85 46 166.5t49 164.5q5 17 20.5 25.5t30.5 8.5q20 0 37 -13.5t17 -36.5q0 -8 -3 -15zM364 634q0 -23 -16.5 -39.5t-39.5 -16.5t-40 16.5t-17 39.5q0 22 17 38t40 16t39.5 -15.5t16.5 -38.5zM190 634q0 -23 -16.5 -39.5t-40.5 -16.5q-23 0 -39 16.5t-16 39.5q0 22 16 38
t39 16q24 0 40.5 -15.5t16.5 -38.5z" />
    <glyph glyph-name="Amacron" unicode="&#x100;" horiz-adv-x="569" 
d="M20 0zM129 29q-5 -18 -21.5 -28t-30.5 -10q-23 0 -40 14t-17 37q0 4 0.5 10t1.5 9l195 593q8 26 23 43t44 17t43.5 -17t23.5 -43l195 -593q2 -3 2.5 -9t0.5 -10q0 -23 -16.5 -37t-40.5 -14q-27 0 -39 17t-22 44l-32 97h-233zM284 549q-19 -80 -41.5 -154t-45.5 -150h173
q-23 76 -46.5 151t-39.5 153zM460 833q0 -18 -13.5 -30.5t-32.5 -12.5h-259q-20 0 -33.5 12.5t-13.5 30.5t13.5 31t33.5 13h259q19 0 32.5 -13t13.5 -31z" />
    <glyph glyph-name="amacron" unicode="&#x101;" horiz-adv-x="502" 
d="M40 0zM317 333q0 88 -92 88q-20 0 -33 -4t-26 -9l-19 -8q-10 -5 -26 -5q-22 0 -31.5 14t-9.5 30q0 20 13 34t35 23t50 13t57 4q102 0 146 -52t44 -152v-203q0 -19 7 -24.5t18 -7.5q30 -6 30 -36q0 -42 -59 -42q-52 0 -80 45q-56 -48 -136 -48q-82 0 -123.5 42t-41.5 112
v3q0 151 187 151q46 0 90 -12v44zM230 219q-26 0 -42.5 -5.5t-25.5 -15t-12 -22.5t-3 -27v-3q0 -30 16.5 -46.5t58.5 -16.5q26 0 49 8t46 27v90q-22 5 -45 8t-42 3zM415 633q0 -18 -13.5 -30.5t-32.5 -12.5h-259q-20 0 -33.5 12.5t-13.5 30.5t13.5 31t33.5 13h259
q19 0 32.5 -13t13.5 -31z" />
    <glyph glyph-name="Abreve" unicode="&#x102;" horiz-adv-x="569" 
d="M20 0zM129 29q-5 -18 -21.5 -28t-30.5 -10q-23 0 -40 14t-17 37q0 4 0.5 10t1.5 9l195 593q8 26 23 43t44 17t43.5 -17t23.5 -43l195 -593q2 -3 2.5 -9t0.5 -10q0 -23 -16.5 -37t-40.5 -14q-27 0 -39 17t-22 44l-32 97h-233zM284 549q-19 -80 -41.5 -154t-45.5 -150h173
q-23 76 -46.5 151t-39.5 153zM284 839q23 0 37 11t25 25q8 9 16 14t21 5q16 0 29 -10t7 -36q-5 -21 -20 -37t-34.5 -27t-41.5 -16.5t-40 -5.5q-20 0 -41.5 6t-41 17.5t-34 27t-18.5 35.5q-6 26 7 36t29 10q14 0 22.5 -6t14.5 -13q11 -14 25.5 -25t37.5 -11z" />
    <glyph glyph-name="abreve" unicode="&#x103;" horiz-adv-x="502" 
d="M40 0zM317 333q0 88 -92 88q-20 0 -33 -4t-26 -9l-19 -8q-10 -5 -26 -5q-22 0 -31.5 14t-9.5 30q0 20 13 34t35 23t50 13t57 4q102 0 146 -52t44 -152v-203q0 -19 7 -24.5t18 -7.5q30 -6 30 -36q0 -42 -59 -42q-52 0 -80 45q-56 -48 -136 -48q-82 0 -123.5 42t-41.5 112
v3q0 151 187 151q46 0 90 -12v44zM230 219q-26 0 -42.5 -5.5t-25.5 -15t-12 -22.5t-3 -27v-3q0 -30 16.5 -46.5t58.5 -16.5q26 0 49 8t46 27v90q-22 5 -45 8t-42 3zM251 639q23 0 37 11t25 25q8 9 16 14t21 5q16 0 29 -10t7 -36q-5 -21 -20 -37t-34.5 -27t-41.5 -16.5
t-40 -5.5q-20 0 -41.5 6t-41 17.5t-34 27t-18.5 35.5q-6 26 7 36t29 10q14 0 22.5 -6t14.5 -13q11 -14 25.5 -25t37.5 -11z" />
    <glyph glyph-name="Aogonek" unicode="&#x104;" horiz-adv-x="569" 
d="M608 -161q0 -15 -8.5 -24t-21.5 -14t-28 -6.5t-28 -1.5q-51 0 -81.5 23t-30.5 73q0 28 12.5 59t31.5 58q-10 9 -18 26t-14.5 37.5t-12 41.5t-10.5 38h-233q-9 -29 -17.5 -57t-18.5 -50t-24 -35.5t-33 -13.5q-21 0 -37 13.5t-16 35.5q0 4 0.5 10t1.5 9l195 593
q8 24 23.5 42t43.5 18q23 0 37 -11.5t22 -31.5l15 -38l188 -572q2 -3 2.5 -9t0.5 -10q0 -11 -5 -20t-11 -17q-17 -20 -27.5 -47.5t-10.5 -52.5q0 -15 8.5 -25t26.5 -10q14 0 23.5 2t18.5 2q15 0 25.5 -10.5t10.5 -24.5zM284 549q-19 -80 -41.5 -154t-45.5 -150h173
q-23 76 -46.5 151t-39.5 153z" />
    <glyph glyph-name="aogonek" unicode="&#x105;" horiz-adv-x="502" 
d="M535 -161q0 -15 -8.5 -24t-21.5 -14t-28 -6.5t-28 -1.5q-51 0 -81.5 23t-30.5 73q0 27 12.5 56.5t33.5 56.5q-26 10 -42 39q-28 -24 -61 -36.5t-75 -12.5q-82 0 -123.5 42.5t-41.5 112.5v3q0 151 187 151q46 0 90 -12v44q0 88 -92 88q-23 0 -38.5 -5t-31.5 -13
q-5 -2 -13 -5.5t-19 -3.5q-23 0 -33 15t-10 30q-1 20 12.5 34t35.5 23t50 13t57 4q102 0 146 -52t44 -152v-203q0 -19 7 -23t18 -9q6 -3 13 -8t11 -12t4 -16t-6 -19q-9 -14 -18 -29.5t-15.5 -32t-8 -33t4.5 -32.5q3 -8 10.5 -11.5t16.5 -5t19 -1.5h18q15 0 25.5 -10.5
t10.5 -24.5zM230 219q-26 0 -42.5 -5.5t-25.5 -15t-12 -22.5t-3 -27v-3q0 -30 16.5 -46.5t58.5 -16.5q26 0 49 8t46 27v90q-22 5 -45 8t-42 3z" />
    <glyph glyph-name="Cacute" unicode="&#x106;" horiz-adv-x="502" 
d="M40 0zM40 456q0 58 14.5 106t44 81.5t74.5 52t107 18.5q37 0 71.5 -7.5t61.5 -21t43 -31t16 -36.5q0 -20 -14.5 -34t-36.5 -14q-14 0 -21.5 4.5t-18.5 11.5l-5 3q-40 28 -91 28q-38 0 -64 -11t-42 -32t-22.5 -51t-6.5 -67v-206q0 -37 6.5 -67t22.5 -51t42 -32t64 -11
q50 0 91 27l5 3q11 7 18.5 11.5t21.5 4.5q22 0 36.5 -14t14.5 -33q0 -20 -16 -37.5t-43 -30.5t-61.5 -20.5t-71.5 -7.5q-62 0 -107 18.5t-74.5 52t-44 81t-14.5 106.5v206zM322 917q8 8 14 11.5t19 3.5q14 0 27 -11.5t13 -29.5q0 -15 -13 -28l-75 -78q-9 -10 -17.5 -15
t-21.5 -5q-17 0 -29.5 11.5t-12.5 30.5q0 9 9.5 21.5t23 26.5t28 27.5t25.5 24.5z" />
    <glyph glyph-name="cacute" unicode="&#x107;" horiz-adv-x="418" 
d="M45 0zM45 323q0 39 11.5 73.5t35 59.5t60 39.5t86.5 14.5q20 0 46.5 -3t50.5 -11.5t41 -23t17 -36.5q0 -16 -11 -29t-37 -13q-12 0 -25 4q-17 8 -33 14t-41 6q-51 0 -72 -25t-21 -70v-143q0 -45 21 -70.5t72 -25.5q25 0 41 6t33 14q6 2 11 3.5t13 1.5q26 0 37.5 -13.5
t11.5 -29.5q0 -22 -17 -36.5t-41 -22.5t-51 -11.5t-47 -3.5q-50 0 -86 14.5t-59.5 40t-35 60t-11.5 73.5v143zM267 717q8 8 14 11.5t19 3.5q14 0 27 -11.5t13 -29.5q0 -15 -13 -28l-75 -78q-9 -10 -17.5 -15t-21.5 -5q-17 0 -29.5 11.5t-12.5 30.5q0 9 9.5 21.5t23 26.5
t28 27.5t25.5 24.5z" />
    <glyph glyph-name="Ccircumflex" unicode="&#x108;" horiz-adv-x="502" 
d="M40 0zM40 456q0 58 14.5 106t44 81.5t74.5 52t107 18.5q37 0 71.5 -7.5t61.5 -21t43 -31t16 -36.5q0 -20 -14.5 -34t-36.5 -14q-14 0 -21.5 4.5t-18.5 11.5l-5 3q-40 28 -91 28q-38 0 -64 -11t-42 -32t-22.5 -51t-6.5 -67v-206q0 -37 6.5 -67t22.5 -51t42 -32t64 -11
q50 0 91 27l5 3q11 7 18.5 11.5t21.5 4.5q22 0 36.5 -14t14.5 -33q0 -20 -16 -37.5t-43 -30.5t-61.5 -20.5t-71.5 -7.5q-62 0 -107 18.5t-74.5 52t-44 81t-14.5 106.5v206zM264 825q-10 -8 -21 -19t-23 -21.5t-23 -17.5t-21 -7q-15 0 -29 9.5t-14 26.5q0 12 10.5 25t21.5 21
l69 55q6 5 13 8t17 3t17 -3t13 -8l69 -55q11 -8 21.5 -21t10.5 -25q0 -17 -14 -26.5t-29 -9.5q-10 0 -21 7t-23 17.5t-23 21.5t-21 19z" />
    <glyph glyph-name="ccircumflex" unicode="&#x109;" horiz-adv-x="418" 
d="M45 0zM45 323q0 39 11.5 73.5t35 59.5t60 39.5t86.5 14.5q20 0 46.5 -3t50.5 -11.5t41 -23t17 -36.5q0 -16 -11 -29t-37 -13q-12 0 -25 4q-17 8 -33 14t-41 6q-51 0 -72 -25t-21 -70v-143q0 -45 21 -70.5t72 -25.5q25 0 41 6t33 14q6 2 11 3.5t13 1.5q26 0 37.5 -13.5
t11.5 -29.5q0 -22 -17 -36.5t-41 -22.5t-51 -11.5t-47 -3.5q-50 0 -86 14.5t-59.5 40t-35 60t-11.5 73.5v143zM226 625q-10 -8 -21 -19t-23 -21.5t-23 -17.5t-21 -7q-15 0 -29 9.5t-14 26.5q0 12 10.5 25t21.5 21l69 55q6 5 13 8t17 3t17 -3t13 -8l69 -55q11 -8 21.5 -21
t10.5 -25q0 -17 -14 -26.5t-29 -9.5q-10 0 -21 7t-23 17.5t-23 21.5t-21 19z" />
    <glyph glyph-name="Cdotaccent" unicode="&#x10a;" horiz-adv-x="502" 
d="M40 0zM40 456q0 58 14.5 106t44 81.5t74.5 52t107 18.5q37 0 71.5 -7.5t61.5 -21t43 -31t16 -36.5q0 -20 -14.5 -34t-36.5 -14q-14 0 -21.5 4.5t-18.5 11.5l-5 3q-40 28 -91 28q-38 0 -64 -11t-42 -32t-22.5 -51t-6.5 -67v-206q0 -37 6.5 -67t22.5 -51t42 -32t64 -11
q50 0 91 27l5 3q11 7 18.5 11.5t21.5 4.5q22 0 36.5 -14t14.5 -33q0 -20 -16 -37.5t-43 -30.5t-61.5 -20.5t-71.5 -7.5q-62 0 -107 18.5t-74.5 52t-44 81t-14.5 106.5v206zM307 827q0 -23 -16.5 -39.5t-40.5 -16.5q-23 0 -39 16.5t-16 39.5q0 22 16 38t39 16
q24 0 40.5 -15.5t16.5 -38.5z" />
    <glyph glyph-name="cdotaccent" unicode="&#x10b;" horiz-adv-x="418" 
d="M45 0zM45 323q0 39 11.5 73.5t35 59.5t60 39.5t86.5 14.5q20 0 46.5 -3t50.5 -11.5t41 -23t17 -36.5q0 -16 -11 -29t-37 -13q-12 0 -25 4q-17 8 -33 14t-41 6q-51 0 -72 -25t-21 -70v-143q0 -45 21 -70.5t72 -25.5q25 0 41 6t33 14q6 2 11 3.5t13 1.5q26 0 37.5 -13.5
t11.5 -29.5q0 -22 -17 -36.5t-41 -22.5t-51 -11.5t-47 -3.5q-50 0 -86 14.5t-59.5 40t-35 60t-11.5 73.5v143zM264 627q0 -23 -16.5 -39.5t-40.5 -16.5q-23 0 -39 16.5t-16 39.5q0 22 16 38t39 16q24 0 40.5 -15.5t16.5 -38.5z" />
    <glyph glyph-name="Ccaron" unicode="&#x10c;" horiz-adv-x="502" 
d="M40 0zM40 456q0 58 14.5 106t44 81.5t74.5 52t107 18.5q37 0 71.5 -7.5t61.5 -21t43 -31t16 -36.5q0 -20 -14.5 -34t-36.5 -14q-14 0 -21.5 4.5t-18.5 11.5l-5 3q-40 28 -91 28q-38 0 -64 -11t-42 -32t-22.5 -51t-6.5 -67v-206q0 -37 6.5 -67t22.5 -51t42 -32t64 -11
q50 0 91 27l5 3q11 7 18.5 11.5t21.5 4.5q22 0 36.5 -14t14.5 -33q0 -20 -16 -37.5t-43 -30.5t-61.5 -20.5t-71.5 -7.5q-62 0 -107 18.5t-74.5 52t-44 81t-14.5 106.5v206zM282 842q11 9 22 20.5t22.5 22t23.5 18t25 7.5q18 0 31 -9.5t13 -27.5q0 -10 -4 -17t-12 -15
q-9 -9 -24.5 -23t-33 -28t-34.5 -24t-29 -10t-29 10t-34.5 24t-33 28t-24.5 23q-8 8 -12 15t-4 17q0 18 13 27.5t31 9.5q13 0 25 -7.5t23.5 -18t22.5 -22t22 -20.5z" />
    <glyph glyph-name="ccaron" unicode="&#x10d;" horiz-adv-x="418" 
d="M45 0zM45 323q0 39 11.5 73.5t35 59.5t60 39.5t86.5 14.5q20 0 46.5 -3t50.5 -11.5t41 -23t17 -36.5q0 -16 -11 -29t-37 -13q-12 0 -25 4q-17 8 -33 14t-41 6q-51 0 -72 -25t-21 -70v-143q0 -45 21 -70.5t72 -25.5q25 0 41 6t33 14q6 2 11 3.5t13 1.5q26 0 37.5 -13.5
t11.5 -29.5q0 -22 -17 -36.5t-41 -22.5t-51 -11.5t-47 -3.5q-50 0 -86 14.5t-59.5 40t-35 60t-11.5 73.5v143zM237 642q11 9 22 20.5t22.5 22t23.5 18t25 7.5q18 0 31 -9.5t13 -27.5q0 -10 -4 -17t-12 -15q-9 -9 -24.5 -23t-33 -28t-34.5 -24t-29 -10t-29 10t-34.5 24
t-33 28t-24.5 23q-8 8 -12 15t-4 17q0 18 13 27.5t31 9.5q13 0 25 -7.5t23.5 -18t22.5 -22t22 -20.5z" />
    <glyph glyph-name="Dcaron" unicode="&#x10e;" horiz-adv-x="574" 
d="M68 0zM533 267q0 -52 -15 -100.5t-48.5 -85.5t-89 -59t-136.5 -22h-113q-26 0 -44.5 17.5t-18.5 42.5v586q0 24 18.5 42t44.5 18h113q81 0 136 -21.5t89 -57t49 -82.5t15 -98v-180zM423 447q0 33 -8.5 61.5t-28 49.5t-50 33t-75.5 12h-83v-501h83q45 0 76 13t50 35.5
t27.5 52.5t8.5 64v180zM287 842q11 9 22 20.5t22.5 22t23.5 18t25 7.5q18 0 31 -9.5t13 -27.5q0 -10 -4 -17t-12 -15q-9 -9 -24.5 -23t-33 -28t-34.5 -24t-29 -10t-29 10t-34.5 24t-33 28t-24.5 23q-8 8 -12 15t-4 17q0 18 13 27.5t31 9.5q13 0 25 -7.5t23.5 -18t22.5 -22
t22 -20.5z" />
    <glyph glyph-name="dcaron" unicode="&#x10f;" horiz-adv-x="657" 
d="M45 0zM223 509q24 0 48.5 -4t51.5 -15v184q0 20 14 34.5t40 14.5t40 -14.5t14 -34.5v-553q0 -16 5 -26t17 -21q11 -13 11 -27q0 -23 -16 -35.5t-34 -12.5t-32 9.5t-25 25.5q-35 -19 -69 -30.5t-72 -11.5q-42 0 -73.5 14t-53.5 39.5t-33 61t-11 78.5v120q0 45 9 82.5
t29.5 64.5t54.5 42t85 15zM323 401q-24 9 -48 13t-39 4q-46 0 -64.5 -27.5t-18.5 -85.5v-120q0 -100 81 -100q39 0 91 25q-2 6 -2 11v10v270zM516 504q0 12 4.5 22t10 20t11 21.5t9.5 27.5q-25 4 -41 22t-16 43q0 26 20 45.5t49 19.5q27 0 47.5 -19t20.5 -48q0 -24 -8 -56
t-20.5 -60.5t-27.5 -48.5t-29 -20q-10 0 -21 5.5t-9 25.5z" />
    <glyph glyph-name="Dcroat" unicode="&#x110;" horiz-adv-x="595" 
d="M13 0zM554 267q0 -52 -15 -100.5t-48.5 -85.5t-89 -59t-136.5 -22h-113q-26 0 -44.5 17.5t-18.5 42.5v244h-24q-22 0 -37 14.5t-15 34.5t15 34.5t37 14.5h24v243q0 25 18.5 42.5t44.5 17.5h113q81 0 136 -21t89 -57t49 -82.5t15 -97.5v-180zM365 353q0 -20 -14.5 -34.5
t-36.5 -14.5h-115v-202h83q45 0 76 13t50 35.5t27.5 52.5t8.5 64v180q0 33 -8.5 61.5t-28 49.5t-50 33t-75.5 12h-83v-201h115q22 0 36.5 -14.5t14.5 -34.5z" />
    <glyph glyph-name="dcroat" unicode="&#x111;" horiz-adv-x="540" 
d="M223 509q24 0 48.5 -4t51.5 -15v69h-100q-18 0 -30 12.5t-12 30.5q0 17 12 30t30 13h100v29q0 20 14 34.5t40 14.5t40 -14.5t14 -34.5v-29h56q17 0 29 -13t12 -30t-12 -30t-29 -13h-56v-438q0 -16 5 -26t17 -21q11 -13 11 -27q0 -23 -16 -35.5t-34 -12.5t-32 9.5
t-25 25.5q-35 -19 -69 -30.5t-72 -11.5q-42 0 -73.5 14t-53.5 39.5t-33 61t-11 78.5v120q0 45 9 82.5t29.5 64.5t54.5 42t85 15zM323 401q-24 9 -48 13t-39 4q-46 0 -64.5 -27.5t-18.5 -85.5v-120q0 -100 81 -100q39 0 91 25q-2 6 -2 11v10v270z" />
    <glyph glyph-name="Emacron" unicode="&#x112;" horiz-adv-x="494" 
d="M68 0zM466 53q0 -23 -16 -38t-39 -15h-265q-31 0 -54.5 12.5t-23.5 46.5v587q0 22 17.5 40.5t44.5 18.5h271q23 0 39 -15.5t16 -37.5t-16 -36t-39 -14h-223v-197h204q20 0 37 -14.5t17 -36.5t-15.5 -37t-38.5 -15h-204v-200h233q22 0 38.5 -14.5t16.5 -34.5zM423 833
q0 -18 -13.5 -30.5t-32.5 -12.5h-259q-20 0 -33.5 12.5t-13.5 30.5t13.5 31t33.5 13h259q19 0 32.5 -13t13.5 -31z" />
    <glyph glyph-name="emacron" unicode="&#x113;" horiz-adv-x="460" 
d="M45 0zM242 197q-21 0 -43 1.5t-46 5.5v-46q0 -34 23 -54t71 -20q28 0 50 7t47 18q2 2 7.5 3.5t14.5 1.5q26 0 37.5 -15t11.5 -30q0 -23 -19.5 -37.5t-47 -23.5t-58 -12.5t-52.5 -3.5q-46 0 -82 13t-60.5 36t-37.5 54.5t-13 67.5v177q0 37 13 68.5t38 54.5t62 36.5
t85 13.5q91 0 136 -45.5t45 -120.5q0 -71 -43 -110.5t-139 -39.5zM317 350q0 40 -19.5 57t-56.5 17q-42 0 -65 -21t-23 -57v-59q26 -3 51.5 -4.5t36.5 -1.5q43 0 59.5 18.5t16.5 50.5zM405 633q0 -18 -13.5 -30.5t-32.5 -12.5h-259q-20 0 -33.5 12.5t-13.5 30.5t13.5 31
t33.5 13h259q19 0 32.5 -13t13.5 -31z" />
    <glyph glyph-name="Ebreve" unicode="&#x114;" horiz-adv-x="494" 
d="M68 0zM466 53q0 -23 -16 -38t-39 -15h-265q-31 0 -54.5 12.5t-23.5 46.5v587q0 22 17.5 40.5t44.5 18.5h271q23 0 39 -15.5t16 -37.5t-16 -36t-39 -14h-223v-197h204q20 0 37 -14.5t17 -36.5t-15.5 -37t-38.5 -15h-204v-200h233q22 0 38.5 -14.5t16.5 -34.5zM247 839
q23 0 37 11t25 25q8 9 16 14t21 5q16 0 29 -10t7 -36q-5 -21 -20 -37t-34.5 -27t-41.5 -16.5t-40 -5.5q-20 0 -41.5 6t-41 17.5t-34 27t-18.5 35.5q-6 26 7 36t29 10q14 0 22.5 -6t14.5 -13q11 -14 25.5 -25t37.5 -11z" />
    <glyph glyph-name="ebreve" unicode="&#x115;" horiz-adv-x="460" 
d="M45 0zM242 197q-21 0 -43 1.5t-46 5.5v-46q0 -34 23 -54t71 -20q28 0 50 7t47 18q2 2 7.5 3.5t14.5 1.5q26 0 37.5 -15t11.5 -30q0 -23 -19.5 -37.5t-47 -23.5t-58 -12.5t-52.5 -3.5q-46 0 -82 13t-60.5 36t-37.5 54.5t-13 67.5v177q0 37 13 68.5t38 54.5t62 36.5
t85 13.5q91 0 136 -45.5t45 -120.5q0 -71 -43 -110.5t-139 -39.5zM317 350q0 40 -19.5 57t-56.5 17q-42 0 -65 -21t-23 -57v-59q26 -3 51.5 -4.5t36.5 -1.5q43 0 59.5 18.5t16.5 50.5zM229 639q23 0 37 11t25 25q8 9 16 14t21 5q16 0 29 -10t7 -36q-5 -21 -20 -37t-34.5 -27
t-41.5 -16.5t-40 -5.5q-20 0 -41.5 6t-41 17.5t-34 27t-18.5 35.5q-6 26 7 36t29 10q14 0 22.5 -6t14.5 -13q11 -14 25.5 -25t37.5 -11z" />
    <glyph glyph-name="Edotaccent" unicode="&#x116;" horiz-adv-x="494" 
d="M68 0zM466 53q0 -23 -16 -38t-39 -15h-265q-31 0 -54.5 12.5t-23.5 46.5v587q0 22 17.5 40.5t44.5 18.5h271q23 0 39 -15.5t16 -37.5t-16 -36t-39 -14h-223v-197h204q20 0 37 -14.5t17 -36.5t-15.5 -37t-38.5 -15h-204v-200h233q22 0 38.5 -14.5t16.5 -34.5zM303 827
q0 -23 -16.5 -39.5t-40.5 -16.5q-23 0 -39 16.5t-16 39.5q0 22 16 38t39 16q24 0 40.5 -15.5t16.5 -38.5z" />
    <glyph glyph-name="edotaccent" unicode="&#x117;" horiz-adv-x="460" 
d="M45 0zM242 197q-21 0 -43 1.5t-46 5.5v-46q0 -34 23 -54t71 -20q28 0 50 7t47 18q2 2 7.5 3.5t14.5 1.5q26 0 37.5 -15t11.5 -30q0 -23 -19.5 -37.5t-47 -23.5t-58 -12.5t-52.5 -3.5q-46 0 -82 13t-60.5 36t-37.5 54.5t-13 67.5v177q0 37 13 68.5t38 54.5t62 36.5
t85 13.5q91 0 136 -45.5t45 -120.5q0 -71 -43 -110.5t-139 -39.5zM317 350q0 40 -19.5 57t-56.5 17q-42 0 -65 -21t-23 -57v-59q26 -3 51.5 -4.5t36.5 -1.5q43 0 59.5 18.5t16.5 50.5zM285 627q0 -23 -16.5 -39.5t-40.5 -16.5q-23 0 -39 16.5t-16 39.5q0 22 16 38t39 16
q24 0 40.5 -15.5t16.5 -38.5z" />
    <glyph glyph-name="Eogonek" unicode="&#x118;" horiz-adv-x="494" 
d="M486 -161q0 -15 -8.5 -24t-21.5 -14t-28 -6.5t-28 -1.5q-51 0 -81.5 23t-30.5 73q0 27 11.5 56t30.5 55h-164q-18 0 -35.5 2t-31.5 8t-22.5 17.5t-8.5 31.5v587q0 22 17.5 40.5t44.5 18.5h271q7 0 16.5 -4.5t18 -12t14.5 -17t6 -19.5q0 -22 -16 -36t-39 -14h-223v-197
h204q6 0 15.5 -4t18 -11t14.5 -16.5t6 -19.5q0 -22 -15.5 -37t-38.5 -15h-204v-200h233q20 0 37.5 -14.5t17.5 -34.5q0 -23 -16 -38t-39 -15l-20 -37q-8 -14 -12.5 -30t-5.5 -28q0 -15 8.5 -25t26.5 -10q13 0 23 2t19 2q15 0 25.5 -10.5t10.5 -24.5z" />
    <glyph glyph-name="eogonek" unicode="&#x119;" horiz-adv-x="460" 
d="M424 -161q0 -15 -8.5 -24t-21.5 -14t-28 -6.5t-28 -1.5q-51 0 -81.5 23t-30.5 73q0 26 10 52.5t28 52.5q-8 0 -14.5 -0.5t-11.5 -0.5q-51 0 -87.5 14.5t-60 40t-34.5 59.5t-11 74v159q0 37 13 68.5t38 54.5t62 36.5t85 13.5q91 0 136 -45.5t45 -120.5q0 -71 -43 -110.5
t-139 -39.5q-21 0 -43 1.5t-46 5.5v-46q0 -33 23 -53.5t71 -20.5q28 0 50 7t47 18q2 2 7.5 3.5t14.5 1.5q21 0 35 -14t14 -31t-13 -27.5t-29 -21.5q-35 -24 -48.5 -53t-13.5 -62q0 -15 8.5 -25t26.5 -10q13 0 23 2t19 2q15 0 25.5 -10.5t10.5 -24.5zM317 350q0 40 -19.5 57
t-56.5 17q-42 0 -65 -21t-23 -57v-59q26 -3 51.5 -4.5t36.5 -1.5q43 0 59.5 18.5t16.5 50.5z" />
    <glyph glyph-name="Ecaron" unicode="&#x11a;" horiz-adv-x="494" 
d="M68 0zM466 53q0 -23 -16 -38t-39 -15h-265q-31 0 -54.5 12.5t-23.5 46.5v587q0 22 17.5 40.5t44.5 18.5h271q23 0 39 -15.5t16 -37.5t-16 -36t-39 -14h-223v-197h204q20 0 37 -14.5t17 -36.5t-15.5 -37t-38.5 -15h-204v-200h233q22 0 38.5 -14.5t16.5 -34.5zM274 842
q11 9 22 20.5t22.5 22t23.5 18t25 7.5q18 0 31 -9.5t13 -27.5q0 -10 -4 -17t-12 -15q-9 -9 -24.5 -23t-33 -28t-34.5 -24t-29 -10t-29 10t-34.5 24t-33 28t-24.5 23q-8 8 -12 15t-4 17q0 18 13 27.5t31 9.5q13 0 25 -7.5t23.5 -18t22.5 -22t22 -20.5z" />
    <glyph glyph-name="ecaron" unicode="&#x11b;" horiz-adv-x="460" 
d="M45 0zM242 197q-21 0 -43 1.5t-46 5.5v-46q0 -34 23 -54t71 -20q28 0 50 7t47 18q2 2 7.5 3.5t14.5 1.5q26 0 37.5 -15t11.5 -30q0 -23 -19.5 -37.5t-47 -23.5t-58 -12.5t-52.5 -3.5q-46 0 -82 13t-60.5 36t-37.5 54.5t-13 67.5v177q0 37 13 68.5t38 54.5t62 36.5
t85 13.5q91 0 136 -45.5t45 -120.5q0 -71 -43 -110.5t-139 -39.5zM317 350q0 40 -19.5 57t-56.5 17q-42 0 -65 -21t-23 -57v-59q26 -3 51.5 -4.5t36.5 -1.5q43 0 59.5 18.5t16.5 50.5zM229 642q11 9 22 20.5t22.5 22t23.5 18t25 7.5q18 0 31 -9.5t13 -27.5q0 -10 -4 -17
t-12 -15q-9 -9 -24.5 -23t-33 -28t-34.5 -24t-29 -10t-29 10t-34.5 24t-33 28t-24.5 23q-8 8 -12 15t-4 17q0 18 13 27.5t31 9.5q13 0 25 -7.5t23.5 -18t22.5 -22t22 -20.5z" />
    <glyph glyph-name="Gcircumflex" unicode="&#x11c;" horiz-adv-x="540" 
d="M40 0zM150 250q0 -37 6.5 -67t22.5 -51t42 -32t64 -11q31 0 54.5 7.5t43.5 21.5v185h-75q-20 0 -35 15t-15 36t15 35.5t35 14.5h114q28 0 49 -14.5t21 -43.5v-230q0 -33 -19.5 -56.5t-50.5 -38.5t-68.5 -22t-73.5 -7q-62 0 -107 18.5t-74.5 52t-44 81t-14.5 106.5v206
q0 58 14.5 106t44 81.5t74.5 52t107 18.5q37 0 71.5 -7.5t61.5 -21t43 -31t16 -36.5q0 -20 -14.5 -34t-36.5 -14q-14 0 -21.5 4.5t-18.5 11.5l-5 3q-20 14 -42.5 21t-48.5 7q-38 0 -64 -11t-42 -32t-22.5 -51t-6.5 -67v-206zM270 825q-10 -8 -21 -19t-23 -21.5t-23 -17.5
t-21 -7q-15 0 -29 9.5t-14 26.5q0 12 10.5 25t21.5 21l69 55q6 5 13 8t17 3t17 -3t13 -8l69 -55q11 -8 21.5 -21t10.5 -25q0 -17 -14 -26.5t-29 -9.5q-10 0 -21 7t-23 17.5t-23 21.5t-21 19z" />
    <glyph glyph-name="gcircumflex" unicode="&#x11d;" horiz-adv-x="513" 
d="M40 0zM236 513q37 0 69.5 -8.5t63.5 -25.5q18 29 41.5 43t42.5 14t35 -13.5t16 -33.5q0 -10 -4 -17t-8 -11l-15 -15q-10 -10 -16.5 -17.5t-10.5 -14.5t-5.5 -15.5t-1.5 -19.5v-59q0 -39 -12 -72t-37 -57t-62 -38t-87 -14q-17 0 -34.5 2t-32.5 7q-5 -11 -7 -19t-2 -16
q0 -23 14 -30.5t27 -7.5h42q46 0 85 -9t68 -27.5t45.5 -46.5t16.5 -67t-16.5 -69.5t-46 -52.5t-69.5 -33.5t-88 -11.5q-46 0 -84 11t-65.5 31t-42.5 49.5t-15 66.5q0 33 14 60.5t44 53.5q-14 20 -19.5 41.5t-5.5 38.5t7 37t26 40q-59 53 -59 140q0 40 12 74t36 59t59 39
t82 14zM335 350v24.5t1 24.5q-22 11 -42.5 17.5t-43.5 6.5q-48 0 -71.5 -25t-23.5 -73q0 -44 21.5 -70t70.5 -26q45 0 66.5 23.5t21.5 65.5v32zM233 -17q-16 0 -30.5 1t-28.5 2q-26 -26 -26 -60q0 -36 25 -56t76 -20q48 0 79 18.5t31 54.5q0 60 -105 60h-21zM256 625
q-10 -8 -21 -19t-23 -21.5t-23 -17.5t-21 -7q-15 0 -29 9.5t-14 26.5q0 12 10.5 25t21.5 21l69 55q6 5 13 8t17 3t17 -3t13 -8l69 -55q11 -8 21.5 -21t10.5 -25q0 -17 -14 -26.5t-29 -9.5q-10 0 -21 7t-23 17.5t-23 21.5t-21 19z" />
    <glyph glyph-name="Gbreve" unicode="&#x11e;" horiz-adv-x="540" 
d="M40 0zM150 250q0 -37 6.5 -67t22.5 -51t42 -32t64 -11q31 0 54.5 7.5t43.5 21.5v185h-75q-20 0 -35 15t-15 36t15 35.5t35 14.5h114q28 0 49 -14.5t21 -43.5v-230q0 -33 -19.5 -56.5t-50.5 -38.5t-68.5 -22t-73.5 -7q-62 0 -107 18.5t-74.5 52t-44 81t-14.5 106.5v206
q0 58 14.5 106t44 81.5t74.5 52t107 18.5q37 0 71.5 -7.5t61.5 -21t43 -31t16 -36.5q0 -20 -14.5 -34t-36.5 -14q-14 0 -21.5 4.5t-18.5 11.5l-5 3q-20 14 -42.5 21t-48.5 7q-38 0 -64 -11t-42 -32t-22.5 -51t-6.5 -67v-206zM270 839q23 0 37 11t25 25q8 9 16 14t21 5
q16 0 29 -10t7 -36q-5 -21 -20 -37t-34.5 -27t-41.5 -16.5t-40 -5.5q-20 0 -41.5 6t-41 17.5t-34 27t-18.5 35.5q-6 26 7 36t29 10q14 0 22.5 -6t14.5 -13q11 -14 25.5 -25t37.5 -11z" />
    <glyph glyph-name="gbreve" unicode="&#x11f;" horiz-adv-x="513" 
d="M40 0zM236 513q37 0 69.5 -8.5t63.5 -25.5q18 29 41.5 43t42.5 14t35 -13.5t16 -33.5q0 -10 -4 -17t-8 -11l-15 -15q-10 -10 -16.5 -17.5t-10.5 -14.5t-5.5 -15.5t-1.5 -19.5v-59q0 -39 -12 -72t-37 -57t-62 -38t-87 -14q-17 0 -34.5 2t-32.5 7q-5 -11 -7 -19t-2 -16
q0 -23 14 -30.5t27 -7.5h42q46 0 85 -9t68 -27.5t45.5 -46.5t16.5 -67t-16.5 -69.5t-46 -52.5t-69.5 -33.5t-88 -11.5q-46 0 -84 11t-65.5 31t-42.5 49.5t-15 66.5q0 33 14 60.5t44 53.5q-14 20 -19.5 41.5t-5.5 38.5t7 37t26 40q-59 53 -59 140q0 40 12 74t36 59t59 39
t82 14zM335 350v24.5t1 24.5q-22 11 -42.5 17.5t-43.5 6.5q-48 0 -71.5 -25t-23.5 -73q0 -44 21.5 -70t70.5 -26q45 0 66.5 23.5t21.5 65.5v32zM233 -17q-16 0 -30.5 1t-28.5 2q-26 -26 -26 -60q0 -36 25 -56t76 -20q48 0 79 18.5t31 54.5q0 60 -105 60h-21zM256 639
q23 0 37 11t25 25q8 9 16 14t21 5q16 0 29 -10t7 -36q-5 -21 -20 -37t-34.5 -27t-41.5 -16.5t-40 -5.5q-20 0 -41.5 6t-41 17.5t-34 27t-18.5 35.5q-6 26 7 36t29 10q14 0 22.5 -6t14.5 -13q11 -14 25.5 -25t37.5 -11z" />
    <glyph glyph-name="Gdotaccent" unicode="&#x120;" horiz-adv-x="540" 
d="M40 0zM150 250q0 -37 6.5 -67t22.5 -51t42 -32t64 -11q31 0 54.5 7.5t43.5 21.5v185h-75q-20 0 -35 15t-15 36t15 35.5t35 14.5h114q28 0 49 -14.5t21 -43.5v-230q0 -33 -19.5 -56.5t-50.5 -38.5t-68.5 -22t-73.5 -7q-62 0 -107 18.5t-74.5 52t-44 81t-14.5 106.5v206
q0 58 14.5 106t44 81.5t74.5 52t107 18.5q37 0 71.5 -7.5t61.5 -21t43 -31t16 -36.5q0 -20 -14.5 -34t-36.5 -14q-14 0 -21.5 4.5t-18.5 11.5l-5 3q-20 14 -42.5 21t-48.5 7q-38 0 -64 -11t-42 -32t-22.5 -51t-6.5 -67v-206zM326 827q0 -23 -16.5 -39.5t-40.5 -16.5
q-23 0 -39 16.5t-16 39.5q0 22 16 38t39 16q24 0 40.5 -15.5t16.5 -38.5z" />
    <glyph glyph-name="gdotaccent" unicode="&#x121;" horiz-adv-x="513" 
d="M40 0zM236 513q37 0 69.5 -8.5t63.5 -25.5q18 29 41.5 43t42.5 14t35 -13.5t16 -33.5q0 -10 -4 -17t-8 -11l-15 -15q-10 -10 -16.5 -17.5t-10.5 -14.5t-5.5 -15.5t-1.5 -19.5v-59q0 -39 -12 -72t-37 -57t-62 -38t-87 -14q-17 0 -34.5 2t-32.5 7q-5 -11 -7 -19t-2 -16
q0 -23 14 -30.5t27 -7.5h42q46 0 85 -9t68 -27.5t45.5 -46.5t16.5 -67t-16.5 -69.5t-46 -52.5t-69.5 -33.5t-88 -11.5q-46 0 -84 11t-65.5 31t-42.5 49.5t-15 66.5q0 33 14 60.5t44 53.5q-14 20 -19.5 41.5t-5.5 38.5t7 37t26 40q-59 53 -59 140q0 40 12 74t36 59t59 39
t82 14zM335 350v24.5t1 24.5q-22 11 -42.5 17.5t-43.5 6.5q-48 0 -71.5 -25t-23.5 -73q0 -44 21.5 -70t70.5 -26q45 0 66.5 23.5t21.5 65.5v32zM233 -17q-16 0 -30.5 1t-28.5 2q-26 -26 -26 -60q0 -36 25 -56t76 -20q48 0 79 18.5t31 54.5q0 60 -105 60h-21zM312 627
q0 -23 -16.5 -39.5t-40.5 -16.5q-23 0 -39 16.5t-16 39.5q0 22 16 38t39 16q24 0 40.5 -15.5t16.5 -38.5z" />
    <glyph glyph-name="uni0122" unicode="&#x122;" horiz-adv-x="540" 
d="M40 0zM150 250q0 -37 6.5 -67t22.5 -51t42 -32t64 -11q31 0 54.5 7.5t43.5 21.5v185h-75q-20 0 -35 15t-15 36t15 35.5t35 14.5h114q28 0 49 -14.5t21 -43.5v-230q0 -33 -19.5 -56.5t-50.5 -38.5t-68.5 -22t-73.5 -7q-62 0 -107 18.5t-74.5 52t-44 81t-14.5 106.5v206
q0 58 14.5 106t44 81.5t74.5 52t107 18.5q37 0 71.5 -7.5t61.5 -21t43 -31t16 -36.5q0 -20 -14.5 -34t-36.5 -14q-14 0 -21.5 4.5t-18.5 11.5l-5 3q-20 14 -42.5 21t-48.5 7q-38 0 -64 -11t-42 -32t-22.5 -51t-6.5 -67v-206zM344 -104q0 -21 -9 -44.5t-22.5 -43.5t-28.5 -33
t-27 -13q-7 0 -12.5 4t-5.5 13q0 8 4 14.5t10 13.5t12 15t11 19q-26 2 -42.5 14t-16.5 40q0 23 15.5 38.5t47.5 15.5q33 0 48.5 -15.5t15.5 -37.5z" />
    <glyph glyph-name="uni0123" unicode="&#x123;" horiz-adv-x="513" 
d="M236 513q37 0 69.5 -8.5t63.5 -25.5q18 29 41.5 43t42.5 14t35 -13.5t16 -33.5q0 -10 -4 -17t-8 -11l-15 -15q-10 -10 -16.5 -17.5t-10.5 -14.5t-5.5 -15.5t-1.5 -19.5v-59q0 -39 -12 -72t-37 -57t-62 -38t-87 -14q-17 0 -34.5 2t-32.5 7q-5 -11 -7 -19t-2 -16
q0 -23 14 -30.5t27 -7.5h42q46 0 85 -9t68 -27.5t45.5 -46.5t16.5 -67t-16.5 -69.5t-46 -52.5t-69.5 -33.5t-88 -11.5q-46 0 -84 11t-65.5 31t-42.5 49.5t-15 66.5q0 33 14 60.5t44 53.5q-14 20 -19.5 41.5t-5.5 38.5t7 37t26 40q-59 53 -59 140q0 40 12 74t36 59t59 39
t82 14zM335 350v24.5t1 24.5q-22 11 -42.5 17.5t-43.5 6.5q-48 0 -71.5 -25t-23.5 -73q0 -44 21.5 -70t70.5 -26q45 0 66.5 23.5t21.5 65.5v32zM233 -17q-16 0 -30.5 1t-28.5 2q-26 -26 -26 -60q0 -36 25 -56t76 -20q48 0 79 18.5t31 54.5q0 60 -105 60h-21zM183 621
q0 21 9 44.5t22.5 43.5t28.5 33t27 13q7 0 12.5 -4t5.5 -13q0 -8 -4 -15t-10 -14t-12.5 -15t-10.5 -18q26 -2 42.5 -14.5t16.5 -39.5q0 -23 -15.5 -38.5t-47.5 -15.5q-33 0 -48.5 15.5t-15.5 37.5z" />
    <glyph glyph-name="Hcircumflex" unicode="&#x124;" horiz-adv-x="600" 
d="M68 0zM531 43q0 -21 -16 -37t-39 -16q-22 0 -38.5 16t-16.5 37v258h-243v-258q0 -21 -16 -37t-39 -16t-39 16t-16 37v619q0 21 16 36.5t39 15.5t39 -15.5t16 -36.5v-258h243v258q0 21 16.5 36.5t38.5 15.5t38.5 -15.5t16.5 -36.5v-619v0zM300 825q-10 -8 -21 -19
t-23 -21.5t-23 -17.5t-21 -7q-15 0 -29 9.5t-14 26.5q0 12 10.5 25t21.5 21l69 55q6 5 13 8t17 3t17 -3t13 -8l69 -55q11 -8 21.5 -21t10.5 -25q0 -17 -14 -26.5t-29 -9.5q-10 0 -21 7t-23 17.5t-23 21.5t-21 19z" />
    <glyph glyph-name="Itilde" unicode="&#x128;" horiz-adv-x="247" 
d="M0 0zM68 662q0 21 16 36.5t39 15.5t39 -15.5t16 -36.5v-620q0 -20 -16 -36t-39 -16t-39 16t-16 36v620zM272 846q0 -14 -8 -26t-21 -21t-28 -14.5t-29 -5.5q-18 0 -32.5 5t-27 11.5t-24 12.5t-22.5 7q-12 1 -20 -4t-14.5 -11t-13 -11t-16.5 -5q-14 0 -26 9t-12 25
q0 31 26 51.5t59 20.5q18 0 32.5 -5.5t27 -12t23.5 -12t23 -6.5q13 0 20.5 5t13.5 11t12 11t17 5q16 0 28 -11.5t12 -28.5z" />
    <glyph glyph-name="itilde" unicode="&#x129;" horiz-adv-x="265" 
d="M0 0zM281 646q0 -14 -8 -26t-21 -21t-28 -14.5t-29 -5.5q-18 0 -32.5 5t-27 11.5t-24 12.5t-22.5 7q-12 1 -20 -4t-14.5 -11t-13 -11t-16.5 -5q-14 0 -26 9t-12 25q0 31 26 51.5t59 20.5q18 0 32.5 -5.5t27 -12t23.5 -12t23 -6.5q13 0 20.5 5t13.5 11t12 11t17 5
q16 0 28 -11.5t12 -28.5zM186 43q0 -22 -15.5 -36.5t-38.5 -14.5t-38.5 14.5t-15.5 36.5v417q0 20 15.5 35t38.5 15t38.5 -15t15.5 -35v-417v0z" />
    <glyph glyph-name="Imacron" unicode="&#x12a;" horiz-adv-x="247" 
d="M0 0zM68 662q0 21 16 36.5t39 15.5t39 -15.5t16 -36.5v-620q0 -20 -16 -36t-39 -16t-39 16t-16 36v620zM301 833q0 -18 -13.5 -30.5t-32.5 -12.5h-259q-20 0 -33.5 12.5t-13.5 30.5t13.5 31t33.5 13h259q19 0 32.5 -13t13.5 -31z" />
    <glyph glyph-name="imacron" unicode="&#x12b;" horiz-adv-x="265" 
d="M0 0zM310 633q0 -18 -13.5 -30.5t-32.5 -12.5h-259q-20 0 -33.5 12.5t-13.5 30.5t13.5 31t33.5 13h259q19 0 32.5 -13t13.5 -31zM186 43q0 -22 -15.5 -36.5t-38.5 -14.5t-38.5 14.5t-15.5 36.5v417q0 20 15.5 35t38.5 15t38.5 -15t15.5 -35v-417v0z" />
    <glyph glyph-name="Ibreve" unicode="&#x12c;" horiz-adv-x="247" 
d="M0 0zM68 662q0 21 16 36.5t39 15.5t39 -15.5t16 -36.5v-620q0 -20 -16 -36t-39 -16t-39 16t-16 36v620zM125 839q23 0 37 11t25 25q8 9 16 14t21 5q16 0 29 -10t7 -36q-5 -21 -20 -37t-34.5 -27t-41.5 -16.5t-40 -5.5q-20 0 -41.5 6t-41 17.5t-34 27t-18.5 35.5
q-6 26 7 36t29 10q14 0 22.5 -6t14.5 -13q11 -14 25.5 -25t37.5 -11z" />
    <glyph glyph-name="ibreve" unicode="&#x12d;" horiz-adv-x="265" 
d="M0 0zM134 639q23 0 37 11t25 25q8 9 16 14t21 5q16 0 29 -10t7 -36q-5 -21 -20 -37t-34.5 -27t-41.5 -16.5t-40 -5.5q-20 0 -41.5 6t-41 17.5t-34 27t-18.5 35.5q-6 26 7 36t29 10q14 0 22.5 -6t14.5 -13q11 -14 25.5 -25t37.5 -11zM186 43q0 -22 -15.5 -36.5
t-38.5 -14.5t-38.5 14.5t-15.5 36.5v417q0 20 15.5 35t38.5 15t38.5 -15t15.5 -35v-417v0z" />
    <glyph glyph-name="Iogonek" unicode="&#x12e;" horiz-adv-x="247" 
d="M233 -161q0 -15 -8.5 -24t-21.5 -14t-28 -6.5t-28 -1.5q-51 0 -81.5 23t-30.5 73q0 29 13 59t36 57q-16 16 -16 37v620q0 21 16 36.5t39 15.5t39 -15.5t16 -36.5v-595q0 -23 -9 -41t-20 -38q-13 -18 -21 -40.5t-8 -42.5q0 -15 8.5 -25t26.5 -10q14 0 23.5 2t18.5 2
q15 0 25.5 -10.5t10.5 -24.5z" />
    <glyph glyph-name="iogonek" unicode="&#x12f;" horiz-adv-x="265" 
d="M239 -161q0 -15 -8.5 -24t-21.5 -14t-28 -6.5t-28 -1.5q-51 0 -81.5 23t-30.5 73q0 29 14.5 59.5t37.5 58.5q-15 13 -15 36v399q0 27 12 47.5t42 20.5q23 0 38.5 -15t15.5 -35v-380q-1 -29 -7 -49t-23 -43q-13 -19 -21.5 -41t-8.5 -42q0 -15 8.5 -25t26.5 -10
q14 0 23.5 2t18.5 2q15 0 25.5 -10.5t10.5 -24.5zM195 656q0 -25 -18.5 -42t-44.5 -17q-27 0 -45 17.5t-18 41.5q0 25 18 42t45 17q26 0 44.5 -17.5t18.5 -41.5z" />
    <glyph glyph-name="Idotaccent" unicode="&#x130;" horiz-adv-x="247" 
d="M68 0zM68 662q0 21 16 36.5t39 15.5t39 -15.5t16 -36.5v-620q0 -20 -16 -36t-39 -16t-39 16t-16 36v620zM181 827q0 -23 -16.5 -39.5t-40.5 -16.5q-23 0 -39 16.5t-16 39.5q0 22 16 38t39 16q24 0 40.5 -15.5t16.5 -38.5z" />
    <glyph glyph-name="dotlessi" unicode="&#x131;" horiz-adv-x="265" 
d="M186 43q0 -22 -15.5 -36.5t-38.5 -14.5t-38.5 14.5t-15.5 36.5v417q0 20 15.5 35t38.5 15t38.5 -15t15.5 -35v-417v0z" />
    <glyph glyph-name="Jcircumflex" unicode="&#x134;" horiz-adv-x="405" 
d="M20 0zM337 230q0 -56 -10.5 -100.5t-35.5 -75.5t-67 -47.5t-104 -16.5q-12 0 -29.5 1.5t-33 7t-26.5 17t-11 31.5q0 25 16.5 38t33.5 13q13 0 26.5 -3t34.5 -3q30 0 48.5 9.5t29 27.5t14.5 43.5t4 57.5v432q0 22 15.5 37t39.5 15q22 0 38.5 -15.5t16.5 -36.5v-432z
M281 825q-10 -8 -21 -19t-23 -21.5t-23 -17.5t-21 -7q-15 0 -29 9.5t-14 26.5q0 12 10.5 25t21.5 21l69 55q6 5 13 8t17 3t17 -3t13 -8l69 -55q11 -8 21.5 -21t10.5 -25q0 -17 -14 -26.5t-29 -9.5q-10 0 -21 7t-23 17.5t-23 21.5t-21 19z" />
    <glyph glyph-name="jcircumflex" unicode="&#x135;" horiz-adv-x="265" 
d="M0 0zM186 0q0 -42 -11.5 -78t-34 -62t-55 -40.5t-74.5 -14.5q-17 0 -30 9.5t-17 26.5v-1q-2 10 -2 14q0 21 14.5 31.5t28.5 13.5q34 8 53.5 29t19.5 68v471q0 21 15.5 36t38.5 15t38.5 -15t15.5 -36v-467zM134 625q-10 -8 -21 -19t-23 -21.5t-23 -17.5t-21 -7
q-15 0 -29 9.5t-14 26.5q0 12 10.5 25t21.5 21l69 55q6 5 13 8t17 3t17 -3t13 -8l69 -55q11 -8 21.5 -21t10.5 -25q0 -17 -14 -26.5t-29 -9.5q-10 0 -21 7t-23 17.5t-23 21.5t-21 19z" />
    <glyph glyph-name="uni0136" unicode="&#x136;" horiz-adv-x="527" 
d="M68 0zM212 302l-34 -41v-218q0 -21 -16 -36.5t-39 -15.5t-39 15.5t-16 36.5v619q0 21 16 36.5t39 15.5t39 -15.5t16 -36.5v-240l225 268q8 9 20.5 16.5t26.5 7.5q17 0 34.5 -14t17.5 -37q0 -9 -2.5 -17.5t-10.5 -17.5l-207 -244q57 -78 113 -156t113 -156q5 -8 6.5 -14
t1.5 -13q0 -18 -13 -36t-40 -18q-30 0 -46 23zM360 -104q0 -21 -9 -44.5t-22.5 -43.5t-28.5 -33t-27 -13q-7 0 -12.5 4t-5.5 13q0 8 4 14.5t10 13.5t12 15t11 19q-26 2 -42.5 14t-16.5 40q0 23 15.5 38.5t47.5 15.5q33 0 48.5 -15.5t15.5 -37.5z" />
    <glyph glyph-name="uni0137" unicode="&#x137;" horiz-adv-x="463" 
d="M69 0zM177 328l144 153q10 11 22 19.5t29 8.5q22 0 37 -13.5t15 -33.5t-14 -34l-135 -140q40 -56 79.5 -111t78.5 -111q5 -6 7 -14.5t2 -15.5q-2 -20 -16.5 -31.5t-35.5 -11.5q-12 0 -19.5 2t-13.5 7t-11.5 13t-13.5 20l-132 190q-6 -5 -11.5 -11.5t-11.5 -11.5v-137
q0 -28 -11.5 -50t-42.5 -22q-23 0 -38.5 14t-15.5 36v605q0 15 2 28.5t8 24t16.5 16.5t27.5 6q23 0 38.5 -14.5t15.5 -35.5v-345zM323 -104q0 -21 -9 -44.5t-22.5 -43.5t-28.5 -33t-27 -13q-7 0 -12.5 4t-5.5 13q0 8 4 14.5t10 13.5t12 15t11 19q-26 2 -42.5 14t-16.5 40
q0 23 15.5 38.5t47.5 15.5q33 0 48.5 -15.5t15.5 -37.5z" />
    <glyph glyph-name="Lacute" unicode="&#x139;" horiz-adv-x="475" 
d="M68 0zM463 51q0 -22 -15.5 -36.5t-37.5 -14.5h-282q-24 0 -42 16.5t-18 40.5v605q0 21 16 36.5t39 15.5t39 -15.5t16 -36.5v-561h232q21 0 37 -14.5t16 -35.5zM193 917q8 8 14 11.5t19 3.5q14 0 27 -11.5t13 -29.5q0 -15 -13 -28l-75 -78q-9 -10 -17.5 -15t-21.5 -5
q-17 0 -29.5 11.5t-12.5 30.5q0 9 9.5 21.5t23 26.5t28 27.5t25.5 24.5z" />
    <glyph glyph-name="lacute" unicode="&#x13a;" horiz-adv-x="248" 
d="M69 0zM148 -8q-12 0 -26 3.5t-25.5 15t-19.5 33.5t-8 58v571q0 20 15.5 35t38.5 15t38.5 -14.5t15.5 -35.5v-565q0 -16 2 -24.5t12 -19.5q5 -5 9 -10.5t4 -16.5q0 -21 -15 -33t-41 -12zM175 913q8 8 14 11.5t19 3.5q14 0 27 -11.5t13 -29.5q0 -15 -13 -28l-75 -78
q-9 -10 -17.5 -15t-21.5 -5q-17 0 -29.5 11.5t-12.5 30.5q0 9 9.5 21.5t23 26.5t28 27.5t25.5 24.5z" />
    <glyph glyph-name="uni013B" unicode="&#x13b;" horiz-adv-x="475" 
d="M68 0zM463 51q0 -22 -15.5 -36.5t-37.5 -14.5h-282q-24 0 -42 16.5t-18 40.5v605q0 21 16 36.5t39 15.5t39 -15.5t16 -36.5v-561h232q21 0 37 -14.5t16 -35.5zM324 -104q0 -21 -9 -44.5t-22.5 -43.5t-28.5 -33t-27 -13q-7 0 -12.5 4t-5.5 13q0 8 4 14.5t10 13.5t12 15
t11 19q-26 2 -42.5 14t-16.5 40q0 23 15.5 38.5t47.5 15.5q33 0 48.5 -15.5t15.5 -37.5z" />
    <glyph glyph-name="uni013C" unicode="&#x13c;" horiz-adv-x="248" 
d="M62 0zM148 -8q-12 0 -26 3.5t-25.5 15t-19.5 33.5t-8 58v571q0 20 15.5 35t38.5 15t38.5 -14.5t15.5 -35.5v-565q0 -16 2 -24.5t12 -19.5q5 -5 9 -10.5t4 -16.5q0 -21 -15 -33t-41 -12zM189 -104q0 -21 -9 -44.5t-22.5 -43.5t-28.5 -33t-27 -13q-7 0 -12.5 4t-5.5 13
q0 8 4 14.5t10 13.5t12 15t11 19q-26 2 -42.5 14t-16.5 40q0 23 15.5 38.5t47.5 15.5q33 0 48.5 -15.5t15.5 -37.5z" />
    <glyph glyph-name="Lcaron" unicode="&#x13d;" horiz-adv-x="475" 
d="M68 0zM463 51q0 -22 -15.5 -36.5t-37.5 -14.5h-282q-24 0 -42 16.5t-18 40.5v605q0 21 16 36.5t39 15.5t39 -15.5t16 -36.5v-561h232q21 0 37 -14.5t16 -35.5zM312 504q0 12 4.5 22t10 20t11 21.5t9.5 27.5q-25 4 -41 22t-16 43q0 26 20 45.5t49 19.5q27 0 47.5 -19
t20.5 -48q0 -24 -8 -56t-20.5 -60.5t-27.5 -48.5t-29 -20q-10 0 -21 5.5t-9 25.5z" />
    <glyph glyph-name="lcaron" unicode="&#x13e;" horiz-adv-x="407" 
d="M69 0zM148 -8q-12 0 -26 3.5t-25.5 15t-19.5 33.5t-8 58v571q0 20 15.5 35t38.5 15t38.5 -14.5t15.5 -35.5v-565q0 -16 2 -24.5t12 -19.5q5 -5 9 -10.5t4 -16.5q0 -21 -15 -33t-41 -12zM269 504q0 12 4.5 22t10 20t11 21.5t9.5 27.5q-25 4 -41 22t-16 43q0 26 20 45.5
t49 19.5q27 0 47.5 -19t20.5 -48q0 -24 -8 -56t-20.5 -60.5t-27.5 -48.5t-29 -20q-10 0 -21 5.5t-9 25.5z" />
    <glyph glyph-name="Lslash" unicode="&#x141;" horiz-adv-x="519" 
d="M499 51q0 -22 -15.5 -36.5t-37.5 -14.5h-282q-24 0 -42 16.5t-18 40.5v217l-23 -15q-6 -5 -12.5 -8.5t-13.5 -3.5q-17 0 -31 10t-14 31q0 9 5 18.5t14 14.5l75 49v292q0 21 16 36.5t39 15.5t39 -15.5t16 -36.5v-220l58 39q8 5 14.5 8t17.5 3t21.5 -7.5t14.5 -20.5
q2 -8 2 -13q0 -20 -17 -32l-111 -73v-245h232q21 0 37 -14.5t16 -35.5z" />
    <glyph glyph-name="lslash" unicode="&#x142;" horiz-adv-x="357" 
d="M340 464q2 -8 2 -13q0 -20 -17 -32l-102 -67v-244q0 -16 2 -24.5t12 -19.5q5 -5 9 -10.5t4 -16.5q0 -21 -15 -33t-41 -12q-12 0 -26 3.5t-25.5 15t-19.5 33.5t-8 58v179l-34 -22q-6 -5 -12.5 -8.5t-13.5 -3.5q-17 0 -31 10t-14 31q0 9 5 18.5t14 14.5l86 56v296
q0 20 15.5 35t38.5 15t38.5 -14.5t15.5 -35.5v-225l49 33q8 5 14.5 8t17.5 3t21.5 -7.5t14.5 -20.5z" />
    <glyph glyph-name="Nacute" unicode="&#x143;" horiz-adv-x="620" 
d="M68 0zM492 -10q-16 0 -31 8t-23 21l-260 469v-445q0 -21 -16.5 -37t-39.5 -16t-38.5 16t-15.5 37v615q0 24 16 40t42 16q17 0 32 -8t23 -22q11 -19 31.5 -56t45.5 -82t52.5 -95t52.5 -96t45.5 -83t32.5 -57v446q0 22 16.5 37.5t39.5 15.5t38.5 -15.5t15.5 -37.5v-615
q0 -23 -16.5 -39.5t-42.5 -16.5zM361 917q8 8 14 11.5t19 3.5q14 0 27 -11.5t13 -29.5q0 -15 -13 -28l-75 -78q-9 -10 -17.5 -15t-21.5 -5q-17 0 -29.5 11.5t-12.5 30.5q0 9 9.5 21.5t23 26.5t28 27.5t25.5 24.5z" />
    <glyph glyph-name="nacute" unicode="&#x144;" horiz-adv-x="529" 
d="M47 0zM180 43q0 -21 -13.5 -35.5t-40.5 -14.5t-40.5 14.5t-13.5 35.5v321q0 16 -1 25.5t-3 15t-4.5 8.5t-4.5 7q-6 9 -9 15t-3 15q0 20 14.5 33t37.5 13q28 0 47 -29q34 23 69.5 33.5t68.5 10.5q87 0 130.5 -53t43.5 -139v-276q0 -21 -14 -35.5t-40 -14.5t-40 14.5
t-14 35.5v276q0 48 -20.5 74t-58.5 26q-43 0 -94 -31q3 -14 3 -24v-321zM275 717q8 8 14 11.5t19 3.5q14 0 27 -11.5t13 -29.5q0 -15 -13 -28l-75 -78q-9 -10 -17.5 -15t-21.5 -5q-17 0 -29.5 11.5t-12.5 30.5q0 9 9.5 21.5t23 26.5t28 27.5t25.5 24.5z" />
    <glyph glyph-name="uni0145" unicode="&#x145;" horiz-adv-x="620" 
d="M68 0zM492 -10q-16 0 -31 8t-23 21l-260 469v-445q0 -21 -16.5 -37t-39.5 -16t-38.5 16t-15.5 37v615q0 24 16 40t42 16q17 0 32 -8t23 -22q11 -19 31.5 -56t45.5 -82t52.5 -95t52.5 -96t45.5 -83t32.5 -57v446q0 22 16.5 37.5t39.5 15.5t38.5 -15.5t15.5 -37.5v-615
q0 -23 -16.5 -39.5t-42.5 -16.5zM374 -104q0 -21 -9 -44.5t-22.5 -43.5t-28.5 -33t-27 -13q-7 0 -12.5 4t-5.5 13q0 8 4 14.5t10 13.5t12 15t11 19q-26 2 -42.5 14t-16.5 40q0 23 15.5 38.5t47.5 15.5q33 0 48.5 -15.5t15.5 -37.5z" />
    <glyph glyph-name="uni0146" unicode="&#x146;" horiz-adv-x="529" 
d="M47 0zM180 43q0 -21 -13.5 -35.5t-40.5 -14.5t-40.5 14.5t-13.5 35.5v321q0 16 -1 25.5t-3 15t-4.5 8.5t-4.5 7q-6 9 -9 15t-3 15q0 20 14.5 33t37.5 13q28 0 47 -29q34 23 69.5 33.5t68.5 10.5q87 0 130.5 -53t43.5 -139v-276q0 -21 -14 -35.5t-40 -14.5t-40 14.5
t-14 35.5v276q0 48 -20.5 74t-58.5 26q-43 0 -94 -31q3 -14 3 -24v-321zM328 -104q0 -21 -9 -44.5t-22.5 -43.5t-28.5 -33t-27 -13q-7 0 -12.5 4t-5.5 13q0 8 4 14.5t10 13.5t12 15t11 19q-26 2 -42.5 14t-16.5 40q0 23 15.5 38.5t47.5 15.5q33 0 48.5 -15.5t15.5 -37.5z
" />
    <glyph glyph-name="Ncaron" unicode="&#x147;" horiz-adv-x="620" 
d="M68 0zM492 -10q-16 0 -31 8t-23 21l-260 469v-445q0 -21 -16.5 -37t-39.5 -16t-38.5 16t-15.5 37v615q0 24 16 40t42 16q17 0 32 -8t23 -22q11 -19 31.5 -56t45.5 -82t52.5 -95t52.5 -96t45.5 -83t32.5 -57v446q0 22 16.5 37.5t39.5 15.5t38.5 -15.5t15.5 -37.5v-615
q0 -23 -16.5 -39.5t-42.5 -16.5zM310 842q11 9 22 20.5t22.5 22t23.5 18t25 7.5q18 0 31 -9.5t13 -27.5q0 -10 -4 -17t-12 -15q-9 -9 -24.5 -23t-33 -28t-34.5 -24t-29 -10t-29 10t-34.5 24t-33 28t-24.5 23q-8 8 -12 15t-4 17q0 18 13 27.5t31 9.5q13 0 25 -7.5t23.5 -18
t22.5 -22t22 -20.5z" />
    <glyph glyph-name="ncaron" unicode="&#x148;" horiz-adv-x="529" 
d="M47 0zM180 43q0 -21 -13.5 -35.5t-40.5 -14.5t-40.5 14.5t-13.5 35.5v321q0 16 -1 25.5t-3 15t-4.5 8.5t-4.5 7q-6 9 -9 15t-3 15q0 20 14.5 33t37.5 13q28 0 47 -29q34 23 69.5 33.5t68.5 10.5q87 0 130.5 -53t43.5 -139v-276q0 -21 -14 -35.5t-40 -14.5t-40 14.5
t-14 35.5v276q0 48 -20.5 74t-58.5 26q-43 0 -94 -31q3 -14 3 -24v-321zM264 642q11 9 22 20.5t22.5 22t23.5 18t25 7.5q18 0 31 -9.5t13 -27.5q0 -10 -4 -17t-12 -15q-9 -9 -24.5 -23t-33 -28t-34.5 -24t-29 -10t-29 10t-34.5 24t-33 28t-24.5 23q-8 8 -12 15t-4 17
q0 18 13 27.5t31 9.5q13 0 25 -7.5t23.5 -18t22.5 -22t22 -20.5z" />
    <glyph glyph-name="Omacron" unicode="&#x14c;" horiz-adv-x="580" 
d="M45 0zM290 -10q-61 0 -107 20.5t-76.5 55.5t-46 82.5t-15.5 101.5v206q0 52 13.5 99t43 82.5t76 56t112.5 20.5t112.5 -20.5t76 -56t43 -82.5t13.5 -99v-206q0 -54 -15.5 -101.5t-46 -82.5t-76.5 -55.5t-107 -20.5zM290 612q-74 0 -104.5 -43t-30.5 -113v-206
q0 -70 32.5 -113.5t102.5 -43.5q69 0 102 43.5t33 113.5v206q0 70 -30.5 113t-104.5 43zM466 833q0 -18 -13.5 -30.5t-32.5 -12.5h-259q-20 0 -33.5 12.5t-13.5 30.5t13.5 31t33.5 13h259q19 0 32.5 -13t13.5 -31z" />
    <glyph glyph-name="omacron" unicode="&#x14d;" horiz-adv-x="494" 
d="M45 0zM247 -8q-50 0 -87.5 14t-63 38.5t-38.5 58t-13 71.5v158q0 39 13 72t38.5 57.5t63 38.5t87.5 14q49 0 87 -14t63.5 -38.5t38.5 -57.5t13 -72v-158q0 -38 -13 -71.5t-38.5 -58t-63.5 -38.5t-87 -14zM247 87q47 0 70.5 23t23.5 64v159q0 40 -23.5 63t-70.5 23
t-70.5 -23t-23.5 -63v-159q0 -41 23.5 -64t70.5 -23zM423 633q0 -18 -13.5 -30.5t-32.5 -12.5h-259q-20 0 -33.5 12.5t-13.5 30.5t13.5 31t33.5 13h259q19 0 32.5 -13t13.5 -31z" />
    <glyph glyph-name="Obreve" unicode="&#x14e;" horiz-adv-x="580" 
d="M45 0zM290 -10q-61 0 -107 20.5t-76.5 55.5t-46 82.5t-15.5 101.5v206q0 52 13.5 99t43 82.5t76 56t112.5 20.5t112.5 -20.5t76 -56t43 -82.5t13.5 -99v-206q0 -54 -15.5 -101.5t-46 -82.5t-76.5 -55.5t-107 -20.5zM290 612q-74 0 -104.5 -43t-30.5 -113v-206
q0 -70 32.5 -113.5t102.5 -43.5q69 0 102 43.5t33 113.5v206q0 70 -30.5 113t-104.5 43zM290 839q23 0 37 11t25 25q8 9 16 14t21 5q16 0 29 -10t7 -36q-5 -21 -20 -37t-34.5 -27t-41.5 -16.5t-40 -5.5q-20 0 -41.5 6t-41 17.5t-34 27t-18.5 35.5q-6 26 7 36t29 10
q14 0 22.5 -6t14.5 -13q11 -14 25.5 -25t37.5 -11z" />
    <glyph glyph-name="obreve" unicode="&#x14f;" horiz-adv-x="494" 
d="M45 0zM247 -8q-50 0 -87.5 14t-63 38.5t-38.5 58t-13 71.5v158q0 39 13 72t38.5 57.5t63 38.5t87.5 14q49 0 87 -14t63.5 -38.5t38.5 -57.5t13 -72v-158q0 -38 -13 -71.5t-38.5 -58t-63.5 -38.5t-87 -14zM247 87q47 0 70.5 23t23.5 64v159q0 40 -23.5 63t-70.5 23
t-70.5 -23t-23.5 -63v-159q0 -41 23.5 -64t70.5 -23zM247 639q23 0 37 11t25 25q8 9 16 14t21 5q16 0 29 -10t7 -36q-5 -21 -20 -37t-34.5 -27t-41.5 -16.5t-40 -5.5q-20 0 -41.5 6t-41 17.5t-34 27t-18.5 35.5q-6 26 7 36t29 10q14 0 22.5 -6t14.5 -13q11 -14 25.5 -25
t37.5 -11z" />
    <glyph glyph-name="Ohungarumlaut" unicode="&#x150;" horiz-adv-x="580" 
d="M45 0zM290 -10q-61 0 -107 20.5t-76.5 55.5t-46 82.5t-15.5 101.5v206q0 52 13.5 99t43 82.5t76 56t112.5 20.5t112.5 -20.5t76 -56t43 -82.5t13.5 -99v-206q0 -54 -15.5 -101.5t-46 -82.5t-76.5 -55.5t-107 -20.5zM290 612q-74 0 -104.5 -43t-30.5 -113v-206
q0 -70 32.5 -113.5t102.5 -43.5q69 0 102 43.5t33 113.5v206q0 70 -30.5 113t-104.5 43zM235 907q9 11 17.5 21.5t26.5 10.5q16 0 29 -13t13 -30q0 -10 -8 -21l-60 -90q-8 -13 -17.5 -20t-24.5 -7q-17 0 -30 13t-13 30q0 7 4 14zM388 907q8 11 17 21.5t26 10.5
q16 0 30 -13.5t14 -28.5q0 -7 -5 -15l-65 -97q-8 -12 -16.5 -19.5t-24.5 -7.5q-17 0 -30.5 12.5t-13.5 29.5q0 9 5 15z" />
    <glyph glyph-name="ohungarumlaut" unicode="&#x151;" horiz-adv-x="494" 
d="M45 0zM247 -8q-50 0 -87.5 14t-63 38.5t-38.5 58t-13 71.5v158q0 39 13 72t38.5 57.5t63 38.5t87.5 14q49 0 87 -14t63.5 -38.5t38.5 -57.5t13 -72v-158q0 -38 -13 -71.5t-38.5 -58t-63.5 -38.5t-87 -14zM247 87q47 0 70.5 23t23.5 64v159q0 40 -23.5 63t-70.5 23
t-70.5 -23t-23.5 -63v-159q0 -41 23.5 -64t70.5 -23zM194 707q9 11 17.5 21.5t26.5 10.5q16 0 29 -13t13 -30q0 -10 -8 -21l-60 -90q-8 -13 -17.5 -20t-24.5 -7q-17 0 -30 13t-13 30q0 7 4 14zM347 707q8 11 17 21.5t26 10.5q16 0 30 -13.5t14 -28.5q0 -7 -5 -15l-65 -97
q-8 -12 -16.5 -19.5t-24.5 -7.5q-17 0 -30.5 12.5t-13.5 29.5q0 9 5 15z" />
    <glyph glyph-name="OE" unicode="&#x152;" horiz-adv-x="756" 
d="M738 53q0 -23 -16 -38t-39 -15h-235q-24 0 -43 7t-26 27q-24 -20 -55 -32t-69 -12q-56 0 -98 19t-70.5 51.5t-42.5 76.5t-14 94v244q0 49 12.5 92.5t39.5 76t69.5 51.5t103.5 19q40 0 71.5 -10.5t54.5 -29.5q7 12 20 21.5t31 9.5h241q23 0 39 -15.5t16 -37.5
q0 -21 -16 -35.5t-39 -14.5h-193v-197h174q20 0 37 -14.5t17 -36.5t-15.5 -37t-38.5 -15h-174v-200h203q22 0 38.5 -14.5t16.5 -34.5zM255 612q-64 0 -89.5 -37.5t-25.5 -99.5v-244q0 -61 27.5 -99.5t87.5 -38.5q59 0 87 38.5t28 99.5v244q0 62 -25.5 99.5t-89.5 37.5z" />
    <glyph glyph-name="oe" unicode="&#x153;" horiz-adv-x="731" 
d="M228 -7q-47 0 -84 14t-62.5 38.5t-38.5 57.5t-13 71v158q0 38 13 71.5t38.5 58t62.5 38.5t84 14q54 0 91 -18.5t60 -50.5q21 32 58 50t91 18q86 0 131.5 -45.5t45.5 -121.5q0 -72 -43.5 -113t-140.5 -41q-18 0 -40.5 1.5t-46.5 5.5v-41q0 -34 23.5 -54t70.5 -20
q29 0 50.5 7t47.5 18h-1q2 2 7.5 3.5t13.5 1.5q21 0 35.5 -14.5t14.5 -32.5q0 -21 -19.5 -35.5t-47 -23t-57.5 -12t-50 -3.5q-52 0 -88 18t-57 49q-22 -32 -59 -49.5t-90 -17.5zM232 87q47 0 70.5 23t23.5 64v159q0 40 -23.5 63t-70.5 23t-70.5 -23t-23.5 -63v-159
q0 -41 23.5 -64t70.5 -23zM598 346q0 39 -20 56t-56 17q-42 0 -65 -19.5t-23 -53.5v-59q26 -3 51.5 -4.5t38.5 -1.5q24 0 38.5 5.5t22.5 14.5t10.5 21t2.5 24z" />
    <glyph glyph-name="Racute" unicode="&#x154;" horiz-adv-x="595" 
d="M68 0zM536 499q0 -78 -39.5 -126t-107.5 -65q37 -60 74 -117.5t74 -117.5q4 -4 6 -13t2 -14q0 -23 -18.5 -38.5t-38.5 -15.5q-31 0 -46 24l-173 282h-91v-254q0 -21 -16.5 -37t-39.5 -16q-22 0 -38 15.5t-16 37.5v601q0 24 18 42t43 18h174q66 0 110.5 -18t72 -47t39 -66
t11.5 -75zM426 499q0 19 -5.5 37.5t-19.5 33t-38.5 23.5t-63.5 9h-121v-203h127q59 0 90 25.5t31 74.5zM308 917q8 8 14 11.5t19 3.5q14 0 27 -11.5t13 -29.5q0 -15 -13 -28l-75 -78q-9 -10 -17.5 -15t-21.5 -5q-17 0 -29.5 11.5t-12.5 30.5q0 9 9.5 21.5t23 26.5t28 27.5
t25.5 24.5z" />
    <glyph glyph-name="racute" unicode="&#x155;" horiz-adv-x="357" 
d="M48 0zM289 409h-29.5t-26 -2t-26 -7t-29.5 -14q1 -7 1.5 -12.5t0.5 -10.5v-320q0 -22 -15.5 -36.5t-38.5 -14.5t-38.5 14.5t-15.5 36.5v320q0 21 -3 34t-11 24q-5 6 -7.5 12t-2.5 15q0 21 15.5 34t36.5 13q14 0 25.5 -8t20.5 -21q34 20 69.5 31.5t61.5 11.5
q38 0 52.5 -14t14.5 -35q0 -24 -16 -38.5t-39 -12.5zM249 717q8 8 14 11.5t19 3.5q14 0 27 -11.5t13 -29.5q0 -15 -13 -28l-75 -78q-9 -10 -17.5 -15t-21.5 -5q-17 0 -29.5 11.5t-12.5 30.5q0 9 9.5 21.5t23 26.5t28 27.5t25.5 24.5z" />
    <glyph glyph-name="uni0156" unicode="&#x156;" horiz-adv-x="595" 
d="M68 0zM536 499q0 -78 -39.5 -126t-107.5 -65q37 -60 74 -117.5t74 -117.5q4 -4 6 -13t2 -14q0 -23 -18.5 -38.5t-38.5 -15.5q-31 0 -46 24l-173 282h-91v-254q0 -21 -16.5 -37t-39.5 -16q-22 0 -38 15.5t-16 37.5v601q0 24 18 42t43 18h174q66 0 110.5 -18t72 -47t39 -66
t11.5 -75zM426 499q0 19 -5.5 37.5t-19.5 33t-38.5 23.5t-63.5 9h-121v-203h127q59 0 90 25.5t31 74.5zM361 -104q0 -21 -9 -44.5t-22.5 -43.5t-28.5 -33t-27 -13q-7 0 -12.5 4t-5.5 13q0 8 4 14.5t10 13.5t12 15t11 19q-26 2 -42.5 14t-16.5 40q0 23 15.5 38.5t47.5 15.5
q33 0 48.5 -15.5t15.5 -37.5z" />
    <glyph glyph-name="uni0157" unicode="&#x157;" horiz-adv-x="357" 
d="M48 0zM289 409h-29.5t-26 -2t-26 -7t-29.5 -14q1 -7 1.5 -12.5t0.5 -10.5v-320q0 -22 -15.5 -36.5t-38.5 -14.5t-38.5 14.5t-15.5 36.5v320q0 21 -3 34t-11 24q-5 6 -7.5 12t-2.5 15q0 21 15.5 34t36.5 13q14 0 25.5 -8t20.5 -21q34 20 69.5 31.5t61.5 11.5
q38 0 52.5 -14t14.5 -35q0 -24 -16 -38.5t-39 -12.5zM190 -104q0 -21 -9 -44.5t-22.5 -43.5t-28.5 -33t-27 -13q-7 0 -12.5 4t-5.5 13q0 8 4 14.5t10 13.5t12 15t11 19q-26 2 -42.5 14t-16.5 40q0 23 15.5 38.5t47.5 15.5q33 0 48.5 -15.5t15.5 -37.5z" />
    <glyph glyph-name="Rcaron" unicode="&#x158;" horiz-adv-x="595" 
d="M68 0zM536 499q0 -78 -39.5 -126t-107.5 -65q37 -60 74 -117.5t74 -117.5q4 -4 6 -13t2 -14q0 -23 -18.5 -38.5t-38.5 -15.5q-31 0 -46 24l-173 282h-91v-254q0 -21 -16.5 -37t-39.5 -16q-22 0 -38 15.5t-16 37.5v601q0 24 18 42t43 18h174q66 0 110.5 -18t72 -47t39 -66
t11.5 -75zM426 499q0 19 -5.5 37.5t-19.5 33t-38.5 23.5t-63.5 9h-121v-203h127q59 0 90 25.5t31 74.5zM288 842q11 9 22 20.5t22.5 22t23.5 18t25 7.5q18 0 31 -9.5t13 -27.5q0 -10 -4 -17t-12 -15q-9 -9 -24.5 -23t-33 -28t-34.5 -24t-29 -10t-29 10t-34.5 24t-33 28
t-24.5 23q-8 8 -12 15t-4 17q0 18 13 27.5t31 9.5q13 0 25 -7.5t23.5 -18t22.5 -22t22 -20.5z" />
    <glyph glyph-name="rcaron" unicode="&#x159;" horiz-adv-x="357" 
d="M43 0zM289 409h-29.5t-26 -2t-26 -7t-29.5 -14q1 -7 1.5 -12.5t0.5 -10.5v-320q0 -22 -15.5 -36.5t-38.5 -14.5t-38.5 14.5t-15.5 36.5v320q0 21 -3 34t-11 24q-5 6 -7.5 12t-2.5 15q0 21 15.5 34t36.5 13q14 0 25.5 -8t20.5 -21q34 20 69.5 31.5t61.5 11.5
q38 0 52.5 -14t14.5 -35q0 -24 -16 -38.5t-39 -12.5zM180 642q11 9 22 20.5t22.5 22t23.5 18t25 7.5q18 0 31 -9.5t13 -27.5q0 -10 -4 -17t-12 -15q-9 -9 -24.5 -23t-33 -28t-34.5 -24t-29 -10t-29 10t-34.5 24t-33 28t-24.5 23q-8 8 -12 15t-4 17q0 18 13 27.5t31 9.5
q13 0 25 -7.5t23.5 -18t22.5 -22t22 -20.5z" />
    <glyph glyph-name="Sacute" unicode="&#x15a;" horiz-adv-x="506" 
d="M36 0zM355 197q0 40 -16.5 58.5t-32.5 26.5q-25 12 -54.5 21.5t-59.5 20t-58 24.5t-49.5 35.5t-34.5 53t-13 76.5q0 94 58.5 147.5t158.5 53.5q20 0 51.5 -3t61.5 -11.5t51.5 -24t21.5 -40.5q0 -20 -14.5 -35t-40.5 -15q-13 0 -25 4t-26 9.5t-31.5 9.5t-42.5 4
q-21 0 -41 -4.5t-35.5 -15t-24.5 -29t-9 -45.5q0 -21 5 -35t12.5 -24t16 -15.5t16.5 -9.5q25 -13 55 -22.5t60 -20.5t57.5 -25t49 -35t34.5 -52t13 -75q0 -51 -17.5 -90.5t-49 -67t-74.5 -41.5t-93 -14q-26 0 -60.5 4.5t-65 14.5t-52 26t-21.5 39q0 20 14.5 35.5t36.5 15.5
q11 0 24.5 -5t31 -11.5t40.5 -11.5t53 -5q60 0 89.5 27t29.5 77zM304 917q8 8 14 11.5t19 3.5q14 0 27 -11.5t13 -29.5q0 -15 -13 -28l-75 -78q-9 -10 -17.5 -15t-21.5 -5q-17 0 -29.5 11.5t-12.5 30.5q0 9 9.5 21.5t23 26.5t28 27.5t25.5 24.5z" />
    <glyph glyph-name="sacute" unicode="&#x15b;" horiz-adv-x="426" 
d="M42 0zM48 363q0 68 44.5 109t132.5 41q22 0 47.5 -3.5t47 -11.5t35.5 -22t14 -36q0 -20 -12 -30.5t-32 -10.5q-12 0 -21.5 3.5t-20.5 7.5t-24.5 7.5t-33.5 3.5q-9 0 -21.5 -1.5t-23.5 -6.5t-18.5 -14.5t-7.5 -25.5q0 -25 17.5 -39t43 -24.5t56 -21t56 -27.5t43 -44.5
t17.5 -72.5q0 -70 -46 -110.5t-136 -40.5q-21 0 -49.5 3t-53.5 10.5t-42.5 20t-17.5 32.5q0 7 2.5 17t9 18t17 12.5t27.5 0.5q14 -3 42.5 -13t60.5 -10q34 0 57 15.5t23 42.5q0 23 -17.5 36.5t-43 23.5t-56 19.5t-56 26.5t-43 44t-17.5 71zM260 717q8 8 14 11.5t19 3.5
q14 0 27 -11.5t13 -29.5q0 -15 -13 -28l-75 -78q-9 -10 -17.5 -15t-21.5 -5q-17 0 -29.5 11.5t-12.5 30.5q0 9 9.5 21.5t23 26.5t28 27.5t25.5 24.5z" />
    <glyph glyph-name="Scircumflex" unicode="&#x15c;" horiz-adv-x="506" 
d="M36 0zM355 197q0 40 -16.5 58.5t-32.5 26.5q-25 12 -54.5 21.5t-59.5 20t-58 24.5t-49.5 35.5t-34.5 53t-13 76.5q0 94 58.5 147.5t158.5 53.5q20 0 51.5 -3t61.5 -11.5t51.5 -24t21.5 -40.5q0 -20 -14.5 -35t-40.5 -15q-13 0 -25 4t-26 9.5t-31.5 9.5t-42.5 4
q-21 0 -41 -4.5t-35.5 -15t-24.5 -29t-9 -45.5q0 -21 5 -35t12.5 -24t16 -15.5t16.5 -9.5q25 -13 55 -22.5t60 -20.5t57.5 -25t49 -35t34.5 -52t13 -75q0 -51 -17.5 -90.5t-49 -67t-74.5 -41.5t-93 -14q-26 0 -60.5 4.5t-65 14.5t-52 26t-21.5 39q0 20 14.5 35.5t36.5 15.5
q11 0 24.5 -5t31 -11.5t40.5 -11.5t53 -5q60 0 89.5 27t29.5 77zM253 825q-10 -8 -21 -19t-23 -21.5t-23 -17.5t-21 -7q-15 0 -29 9.5t-14 26.5q0 12 10.5 25t21.5 21l69 55q6 5 13 8t17 3t17 -3t13 -8l69 -55q11 -8 21.5 -21t10.5 -25q0 -17 -14 -26.5t-29 -9.5
q-10 0 -21 7t-23 17.5t-23 21.5t-21 19z" />
    <glyph glyph-name="scircumflex" unicode="&#x15d;" horiz-adv-x="426" 
d="M42 0zM48 363q0 68 44.5 109t132.5 41q22 0 47.5 -3.5t47 -11.5t35.5 -22t14 -36q0 -20 -12 -30.5t-32 -10.5q-12 0 -21.5 3.5t-20.5 7.5t-24.5 7.5t-33.5 3.5q-9 0 -21.5 -1.5t-23.5 -6.5t-18.5 -14.5t-7.5 -25.5q0 -25 17.5 -39t43 -24.5t56 -21t56 -27.5t43 -44.5
t17.5 -72.5q0 -70 -46 -110.5t-136 -40.5q-21 0 -49.5 3t-53.5 10.5t-42.5 20t-17.5 32.5q0 7 2.5 17t9 18t17 12.5t27.5 0.5q14 -3 42.5 -13t60.5 -10q34 0 57 15.5t23 42.5q0 23 -17.5 36.5t-43 23.5t-56 19.5t-56 26.5t-43 44t-17.5 71zM213 625q-10 -8 -21 -19
t-23 -21.5t-23 -17.5t-21 -7q-15 0 -29 9.5t-14 26.5q0 12 10.5 25t21.5 21l69 55q6 5 13 8t17 3t17 -3t13 -8l69 -55q11 -8 21.5 -21t10.5 -25q0 -17 -14 -26.5t-29 -9.5q-10 0 -21 7t-23 17.5t-23 21.5t-21 19z" />
    <glyph glyph-name="Scedilla" unicode="&#x15e;" horiz-adv-x="506" 
d="M368 -123q0 -37 -28.5 -64t-81.5 -27q-16 0 -34 3t-33 9t-25 14.5t-10 20.5q0 14 8 18.5t19 4.5q10 0 28.5 -3t38.5 -3q23 0 34 10t11 22q0 16 -15.5 21t-34.5 8.5t-34.5 9.5t-15.5 24q0 2 0.5 4.5t0.5 4.5l6 39q-27 2 -56 7.5t-53.5 15.5t-40.5 24.5t-16 34.5t14.5 35.5
t36.5 15.5q11 0 25 -5t31.5 -11.5t40.5 -11.5t52 -5q60 0 89.5 27t29.5 77q0 41 -16.5 59t-32.5 26q-39 17 -85.5 30t-87.5 35.5t-68.5 61t-27.5 104.5q0 94 58.5 147.5t158.5 53.5q20 0 51.5 -3t61.5 -11.5t51.5 -24t21.5 -40.5q0 -15 -14.5 -32.5t-40.5 -17.5q-13 0 -25 4
t-26 9.5t-31.5 9.5t-42.5 4q-21 0 -41 -4.5t-35.5 -15t-24.5 -29t-9 -45.5q0 -21 5 -35t12.5 -24t16 -15.5t16.5 -9.5q26 -14 56.5 -23.5t60 -20.5t57 -24.5t49 -34.5t34 -52t12.5 -75q0 -47 -15 -84.5t-42 -64.5t-64 -42.5t-81 -19.5q-2 -8 -2.5 -14.5t-1.5 -14.5
q58 -3 81.5 -26.5t23.5 -60.5z" />
    <glyph glyph-name="scedilla" unicode="&#x15f;" horiz-adv-x="426" 
d="M48 363q0 68 44.5 109t132.5 41q22 0 47.5 -3.5t47 -11.5t35.5 -22t14 -36q0 -20 -12 -30.5t-32 -10.5q-12 0 -21.5 3.5t-20.5 7.5t-24.5 7.5t-33.5 3.5q-9 0 -21.5 -1.5t-23.5 -6.5t-18.5 -14.5t-7.5 -25.5q0 -25 17.5 -39t43 -24.5t56 -21t56 -27.5t43 -44.5
t17.5 -72.5q0 -66 -40.5 -105.5t-119.5 -44.5q-1 -8 -1.5 -15t-2.5 -15q58 -3 81.5 -26.5t23.5 -60.5t-28 -64t-81 -27q-16 0 -34 2.5t-33 8t-25 14.5t-10 23q0 13 7.5 17.5t19.5 4.5q11 0 29.5 -3t37.5 -3q23 0 34 10t11 22q0 16 -15.5 21.5t-34.5 9.5t-34.5 10.5
t-15.5 23.5q0 10 2.5 24t4.5 25q-21 2 -42.5 6t-39 11.5t-28.5 18.5t-11 27q0 7 2.5 17t9 18t17 12.5t27.5 0.5q14 -3 42.5 -13t60.5 -10q34 0 57 15.5t23 42.5q0 23 -17.5 36.5t-43 23.5t-56 19.5t-56 26.5t-43 44t-17.5 71z" />
    <glyph glyph-name="Scaron" unicode="&#x160;" horiz-adv-x="506" 
d="M36 0zM355 197q0 40 -16.5 58.5t-32.5 26.5q-25 12 -54.5 21.5t-59.5 20t-58 24.5t-49.5 35.5t-34.5 53t-13 76.5q0 94 58.5 147.5t158.5 53.5q20 0 51.5 -3t61.5 -11.5t51.5 -24t21.5 -40.5q0 -20 -14.5 -35t-40.5 -15q-13 0 -25 4t-26 9.5t-31.5 9.5t-42.5 4
q-21 0 -41 -4.5t-35.5 -15t-24.5 -29t-9 -45.5q0 -21 5 -35t12.5 -24t16 -15.5t16.5 -9.5q25 -13 55 -22.5t60 -20.5t57.5 -25t49 -35t34.5 -52t13 -75q0 -51 -17.5 -90.5t-49 -67t-74.5 -41.5t-93 -14q-26 0 -60.5 4.5t-65 14.5t-52 26t-21.5 39q0 20 14.5 35.5t36.5 15.5
q11 0 24.5 -5t31 -11.5t40.5 -11.5t53 -5q60 0 89.5 27t29.5 77zM253 842q11 9 22 20.5t22.5 22t23.5 18t25 7.5q18 0 31 -9.5t13 -27.5q0 -10 -4 -17t-12 -15q-9 -9 -24.5 -23t-33 -28t-34.5 -24t-29 -10t-29 10t-34.5 24t-33 28t-24.5 23q-8 8 -12 15t-4 17q0 18 13 27.5
t31 9.5q13 0 25 -7.5t23.5 -18t22.5 -22t22 -20.5z" />
    <glyph glyph-name="scaron" unicode="&#x161;" horiz-adv-x="426" 
d="M42 0zM48 363q0 68 44.5 109t132.5 41q22 0 47.5 -3.5t47 -11.5t35.5 -22t14 -36q0 -20 -12 -30.5t-32 -10.5q-12 0 -21.5 3.5t-20.5 7.5t-24.5 7.5t-33.5 3.5q-9 0 -21.5 -1.5t-23.5 -6.5t-18.5 -14.5t-7.5 -25.5q0 -25 17.5 -39t43 -24.5t56 -21t56 -27.5t43 -44.5
t17.5 -72.5q0 -70 -46 -110.5t-136 -40.5q-21 0 -49.5 3t-53.5 10.5t-42.5 20t-17.5 32.5q0 7 2.5 17t9 18t17 12.5t27.5 0.5q14 -3 42.5 -13t60.5 -10q34 0 57 15.5t23 42.5q0 23 -17.5 36.5t-43 23.5t-56 19.5t-56 26.5t-43 44t-17.5 71zM220 642q11 9 22 20.5t22.5 22
t23.5 18t25 7.5q18 0 31 -9.5t13 -27.5q0 -10 -4 -17t-12 -15q-9 -9 -24.5 -23t-33 -28t-34.5 -24t-29 -10t-29 10t-34.5 24t-33 28t-24.5 23q-8 8 -12 15t-4 17q0 18 13 27.5t31 9.5q13 0 25 -7.5t23.5 -18t22.5 -22t22 -20.5z" />
    <glyph glyph-name="uni0162" unicode="&#x162;" horiz-adv-x="503" 
d="M388 -123q0 -37 -28.5 -64t-81.5 -27q-18 0 -36 3.5t-32.5 10t-24 15t-9.5 18.5q0 14 8 18.5t19 4.5q10 0 28.5 -3t38.5 -3q23 0 34 10t11 22q0 16 -15.5 21t-34.5 8.5t-34.5 9.5t-15.5 24q0 2 0.5 4.5t0.5 4.5l7 44q-12 6 -19.5 18t-7.5 26v560h-121q-9 0 -18.5 4.5
t-17.5 11.5t-13.5 16.5t-5.5 18.5q0 17 16 34.5t39 17.5h352q7 0 16.5 -4.5t18.5 -11.5t15 -16.5t6 -19.5q0 -17 -17 -34t-39 -17h-121v-560q0 -20 -17 -34l-6 -44q58 -3 81.5 -26.5t23.5 -60.5z" />
    <glyph glyph-name="uni0163" unicode="&#x163;" horiz-adv-x="341" 
d="M177 484h89q20 0 35.5 -14t15.5 -35q0 -20 -15 -34t-36 -14h-89v-198q1 -27 4 -45.5t10.5 -30t20.5 -16.5t33 -5q5 0 10 0.5t8 0.5q32 0 49.5 -9.5t17.5 -35.5q0 -17 -6.5 -27t-17 -15.5t-24 -7.5t-27.5 -2q-19 0 -37 3q-2 -10 -3 -18.5t-1 -16.5q58 -3 81.5 -26.5
t23.5 -60.5q0 -39 -30 -65t-84 -26q-15 0 -32.5 2.5t-31.5 8.5t-23.5 15t-9.5 21q0 14 7.5 18.5t19.5 4.5q11 0 29.5 -3t37.5 -3q23 0 34 10t11 22t-9.5 18.5t-32.5 11.5q-16 3 -27 4.5t-18 5t-10 9.5t-3 18q0 14 3 31t7 31q-52 21 -70 70t-18 124v403q0 21 14 35.5t40 14.5
t40 -15t14 -35v-124z" />
    <glyph glyph-name="Tcaron" unicode="&#x164;" horiz-adv-x="503" 
d="M20 0zM196 602h-121q-24 0 -39.5 15.5t-15.5 35.5q0 17 16 34.5t39 17.5h352q21 0 38.5 -15t17.5 -37q0 -20 -16.5 -35.5t-39.5 -15.5h-121v-560q0 -20 -16 -36t-39 -16t-39 16t-16 36v560zM251 842q11 9 22 20.5t22.5 22t23.5 18t25 7.5q18 0 31 -9.5t13 -27.5
q0 -10 -4 -17t-12 -15q-9 -9 -24.5 -23t-33 -28t-34.5 -24t-29 -10t-29 10t-34.5 24t-33 28t-24.5 23q-8 8 -12 15t-4 17q0 18 13 27.5t31 9.5q13 0 25 -7.5t23.5 -18t22.5 -22t22 -20.5z" />
    <glyph glyph-name="tcaron" unicode="&#x165;" horiz-adv-x="499" 
d="M69 0zM69 608q0 21 14 35.5t40 14.5t40 -15t14 -35v-124h89q21 0 36 -14t15 -35q0 -20 -15 -34t-36 -14h-89v-175q0 -33 2 -56t9.5 -37t20.5 -20.5t36 -6.5q5 0 10 0.5t8 0.5q32 0 49.5 -9.5t17.5 -35.5q0 -17 -6.5 -27.5t-17.5 -16t-24.5 -7t-28.5 -1.5
q-55 0 -90.5 13.5t-56.5 39.5t-29 65.5t-8 90.5v403zM361 504q0 12 4.5 22t10 20t11 21.5t9.5 27.5q-25 4 -41 22t-16 43q0 26 20 45.5t49 19.5q27 0 47.5 -19t20.5 -48q0 -24 -8 -56t-20.5 -60.5t-27.5 -48.5t-29 -20q-10 0 -21 5.5t-9 25.5z" />
    <glyph glyph-name="Utilde" unicode="&#x168;" horiz-adv-x="592" 
d="M60 0zM532 235q0 -53 -16 -98t-46.5 -77.5t-74.5 -51t-99 -18.5q-57 0 -101 18.5t-74 51t-45.5 77.5t-15.5 98v425q0 23 16 38.5t40 15.5q22 0 38 -15.5t16 -38.5v-425q0 -63 30.5 -102.5t95.5 -39.5q64 0 94.5 39.5t30.5 102.5v425q0 22 15.5 38t38.5 16q24 0 40.5 -16
t16.5 -38v-425v0zM443 846q0 -14 -8 -26t-21 -21t-28 -14.5t-29 -5.5q-18 0 -32.5 5t-27 11.5t-24 12.5t-22.5 7q-12 1 -20 -4t-14.5 -11t-13 -11t-16.5 -5q-14 0 -26 9t-12 25q0 31 26 51.5t59 20.5q18 0 32.5 -5.5t27 -12t23.5 -12t23 -6.5q13 0 20.5 5t13.5 11t12 11
t17 5q16 0 28 -11.5t12 -28.5z" />
    <glyph glyph-name="utilde" unicode="&#x169;" horiz-adv-x="529" 
d="M69 0zM381 32q-34 -22 -69.5 -31t-70.5 -9q-42 0 -74.5 14t-54 39.5t-32.5 61t-11 78.5v276q0 21 14 35t40 14t40 -14t14 -35v-276q0 -48 19.5 -74t58.5 -26q23 0 46.5 7t47.5 20q-1 7 -1.5 13t-0.5 11v325q0 21 13.5 35t40.5 14t40.5 -14t13.5 -35v-335q0 -26 5 -34.5
t13 -18.5q5 -5 8 -11.5t3 -15.5q0 -22 -15.5 -35t-35.5 -13q-17 0 -29.5 9.5t-22.5 24.5zM411 646q0 -14 -8 -26t-21 -21t-28 -14.5t-29 -5.5q-18 0 -32.5 5t-27 11.5t-24 12.5t-22.5 7q-12 1 -20 -4t-14.5 -11t-13 -11t-16.5 -5q-14 0 -26 9t-12 25q0 31 26 51.5t59 20.5
q18 0 32.5 -5.5t27 -12t23.5 -12t23 -6.5q13 0 20.5 5t13.5 11t12 11t17 5q16 0 28 -11.5t12 -28.5z" />
    <glyph glyph-name="Umacron" unicode="&#x16a;" horiz-adv-x="592" 
d="M60 0zM532 235q0 -53 -16 -98t-46.5 -77.5t-74.5 -51t-99 -18.5q-57 0 -101 18.5t-74 51t-45.5 77.5t-15.5 98v425q0 23 16 38.5t40 15.5q22 0 38 -15.5t16 -38.5v-425q0 -63 30.5 -102.5t95.5 -39.5q64 0 94.5 39.5t30.5 102.5v425q0 22 15.5 38t38.5 16q24 0 40.5 -16
t16.5 -38v-425v0zM472 833q0 -18 -13.5 -30.5t-32.5 -12.5h-259q-20 0 -33.5 12.5t-13.5 30.5t13.5 31t33.5 13h259q19 0 32.5 -13t13.5 -31z" />
    <glyph glyph-name="umacron" unicode="&#x16b;" horiz-adv-x="529" 
d="M69 0zM381 32q-34 -22 -69.5 -31t-70.5 -9q-42 0 -74.5 14t-54 39.5t-32.5 61t-11 78.5v276q0 21 14 35t40 14t40 -14t14 -35v-276q0 -48 19.5 -74t58.5 -26q23 0 46.5 7t47.5 20q-1 7 -1.5 13t-0.5 11v325q0 21 13.5 35t40.5 14t40.5 -14t13.5 -35v-335q0 -26 5 -34.5
t13 -18.5q5 -5 8 -11.5t3 -15.5q0 -22 -15.5 -35t-35.5 -13q-17 0 -29.5 9.5t-22.5 24.5zM440 633q0 -18 -13.5 -30.5t-32.5 -12.5h-259q-20 0 -33.5 12.5t-13.5 30.5t13.5 31t33.5 13h259q19 0 32.5 -13t13.5 -31z" />
    <glyph glyph-name="Ubreve" unicode="&#x16c;" horiz-adv-x="592" 
d="M60 0zM532 235q0 -53 -16 -98t-46.5 -77.5t-74.5 -51t-99 -18.5q-57 0 -101 18.5t-74 51t-45.5 77.5t-15.5 98v425q0 23 16 38.5t40 15.5q22 0 38 -15.5t16 -38.5v-425q0 -63 30.5 -102.5t95.5 -39.5q64 0 94.5 39.5t30.5 102.5v425q0 22 15.5 38t38.5 16q24 0 40.5 -16
t16.5 -38v-425v0zM296 839q23 0 37 11t25 25q8 9 16 14t21 5q16 0 29 -10t7 -36q-5 -21 -20 -37t-34.5 -27t-41.5 -16.5t-40 -5.5q-20 0 -41.5 6t-41 17.5t-34 27t-18.5 35.5q-6 26 7 36t29 10q14 0 22.5 -6t14.5 -13q11 -14 25.5 -25t37.5 -11z" />
    <glyph glyph-name="ubreve" unicode="&#x16d;" horiz-adv-x="529" 
d="M69 0zM381 32q-34 -22 -69.5 -31t-70.5 -9q-42 0 -74.5 14t-54 39.5t-32.5 61t-11 78.5v276q0 21 14 35t40 14t40 -14t14 -35v-276q0 -48 19.5 -74t58.5 -26q23 0 46.5 7t47.5 20q-1 7 -1.5 13t-0.5 11v325q0 21 13.5 35t40.5 14t40.5 -14t13.5 -35v-335q0 -26 5 -34.5
t13 -18.5q5 -5 8 -11.5t3 -15.5q0 -22 -15.5 -35t-35.5 -13q-17 0 -29.5 9.5t-22.5 24.5zM264 639q23 0 37 11t25 25q8 9 16 14t21 5q16 0 29 -10t7 -36q-5 -21 -20 -37t-34.5 -27t-41.5 -16.5t-40 -5.5q-20 0 -41.5 6t-41 17.5t-34 27t-18.5 35.5q-6 26 7 36t29 10
q14 0 22.5 -6t14.5 -13q11 -14 25.5 -25t37.5 -11z" />
    <glyph glyph-name="Uring" unicode="&#x16e;" horiz-adv-x="592" 
d="M60 0zM532 235q0 -53 -16 -98t-46.5 -77.5t-74.5 -51t-99 -18.5q-57 0 -101 18.5t-74 51t-45.5 77.5t-15.5 98v425q0 23 16 38.5t40 15.5q22 0 38 -15.5t16 -38.5v-425q0 -63 30.5 -102.5t95.5 -39.5q64 0 94.5 39.5t30.5 102.5v425q0 22 15.5 38t38.5 16q24 0 40.5 -16
t16.5 -38v-425v0zM400 844q0 -44 -30 -74t-74 -30q-45 0 -75 30t-30 74q0 21 8 40t22.5 33.5t33.5 22.5t41 8t41 -8t33 -22.5t22 -33.5t8 -40zM345 844q0 20 -14.5 35t-34.5 15t-34.5 -15t-14.5 -35t14.5 -34.5t34.5 -14.5t34.5 14.5t14.5 34.5z" />
    <glyph glyph-name="uring" unicode="&#x16f;" horiz-adv-x="529" 
d="M69 0zM381 32q-34 -22 -69.5 -31t-70.5 -9q-42 0 -74.5 14t-54 39.5t-32.5 61t-11 78.5v276q0 21 14 35t40 14t40 -14t14 -35v-276q0 -48 19.5 -74t58.5 -26q23 0 46.5 7t47.5 20q-1 7 -1.5 13t-0.5 11v325q0 21 13.5 35t40.5 14t40.5 -14t13.5 -35v-335q0 -26 5 -34.5
t13 -18.5q5 -5 8 -11.5t3 -15.5q0 -22 -15.5 -35t-35.5 -13q-17 0 -29.5 9.5t-22.5 24.5zM370 644q0 -44 -30 -74t-74 -30q-45 0 -75 30t-30 74q0 21 8 40t22.5 33.5t33.5 22.5t41 8t41 -8t33 -22.5t22 -33.5t8 -40zM315 644q0 20 -14.5 35t-34.5 15t-34.5 -15t-14.5 -35
t14.5 -34.5t34.5 -14.5t34.5 14.5t14.5 34.5z" />
    <glyph glyph-name="Uhungarumlaut" unicode="&#x170;" horiz-adv-x="592" 
d="M60 0zM532 235q0 -53 -16 -98t-46.5 -77.5t-74.5 -51t-99 -18.5q-57 0 -101 18.5t-74 51t-45.5 77.5t-15.5 98v425q0 23 16 38.5t40 15.5q22 0 38 -15.5t16 -38.5v-425q0 -63 30.5 -102.5t95.5 -39.5q64 0 94.5 39.5t30.5 102.5v425q0 22 15.5 38t38.5 16q24 0 40.5 -16
t16.5 -38v-425v0zM246 907q9 11 17.5 21.5t26.5 10.5q16 0 29 -13t13 -30q0 -10 -8 -21l-60 -90q-8 -13 -17.5 -20t-24.5 -7q-17 0 -30 13t-13 30q0 7 4 14zM399 907q8 11 17 21.5t26 10.5q16 0 30 -13.5t14 -28.5q0 -7 -5 -15l-65 -97q-8 -12 -16.5 -19.5t-24.5 -7.5
q-17 0 -30.5 12.5t-13.5 29.5q0 9 5 15z" />
    <glyph glyph-name="uhungarumlaut" unicode="&#x171;" horiz-adv-x="529" 
d="M69 0zM381 32q-34 -22 -69.5 -31t-70.5 -9q-42 0 -74.5 14t-54 39.5t-32.5 61t-11 78.5v276q0 21 14 35t40 14t40 -14t14 -35v-276q0 -48 19.5 -74t58.5 -26q23 0 46.5 7t47.5 20q-1 7 -1.5 13t-0.5 11v325q0 21 13.5 35t40.5 14t40.5 -14t13.5 -35v-335q0 -26 5 -34.5
t13 -18.5q5 -5 8 -11.5t3 -15.5q0 -22 -15.5 -35t-35.5 -13q-17 0 -29.5 9.5t-22.5 24.5zM209 707q9 11 17.5 21.5t26.5 10.5q16 0 29 -13t13 -30q0 -10 -8 -21l-60 -90q-8 -13 -17.5 -20t-24.5 -7q-17 0 -30 13t-13 30q0 7 4 14zM362 707q8 11 17 21.5t26 10.5
q16 0 30 -13.5t14 -28.5q0 -7 -5 -15l-65 -97q-8 -12 -16.5 -19.5t-24.5 -7.5q-17 0 -30.5 12.5t-13.5 29.5q0 9 5 15z" />
    <glyph glyph-name="Uogonek" unicode="&#x172;" horiz-adv-x="592" 
d="M532 235q0 -76 -32 -133.5t-91 -86.5q-14 -24 -30 -54t-16 -56q0 -15 8.5 -25t26.5 -10q14 0 23.5 2t18.5 2q15 0 25.5 -10.5t10.5 -24.5q0 -15 -8.5 -24t-21.5 -14t-28 -6.5t-28 -1.5q-51 0 -81.5 23t-30.5 73q0 25 10 51t27 51h-19q-57 0 -101 18.5t-74 51t-45.5 77
t-15.5 97.5v425q0 23 16 38.5t40 15.5q22 0 38 -15.5t16 -38.5v-425q0 -63 30.5 -102.5t95.5 -39.5q64 0 94.5 39.5t30.5 102.5v425q0 22 15.5 38t38.5 16q24 0 40.5 -16t16.5 -38v-425v0z" />
    <glyph glyph-name="uogonek" unicode="&#x173;" horiz-adv-x="529" 
d="M177 185q0 -48 20 -74t58 -26q23 0 46.5 7t47.5 20q-2 6 -2 12v12v325q0 19 13.5 34t40.5 15t40.5 -14t13.5 -35v-335q0 -20 4.5 -30.5t10 -17.5t10 -13.5t4.5 -18.5q0 -10 -3.5 -17.5t-8.5 -13.5l-10 -14q-14 -20 -24.5 -45.5t-10.5 -50.5q0 -15 8.5 -25t26.5 -10
q14 0 23.5 2t18.5 2q15 0 25.5 -10.5t10.5 -24.5q0 -15 -8.5 -24t-21.5 -14t-28 -6.5t-28 -1.5q-51 0 -81.5 23t-30.5 73q0 30 15 62t40 61q-9 9 -16 20q-34 -22 -69.5 -30.5t-70.5 -8.5q-46 0 -78.5 15t-53.5 42.5t-30.5 66.5t-9.5 86v258q0 19 13.5 34t40.5 15t40.5 -14
t13.5 -35v-276z" />
    <glyph glyph-name="Wcircumflex" unicode="&#x174;" horiz-adv-x="803" 
d="M13 0zM443 299q-12 51 -21.5 102.5t-20.5 103.5q-23 -115 -49 -228t-52 -228q-6 -20 -21 -39t-47 -19q-26 0 -44.5 18t-23.5 41q-39 154 -76.5 306.5t-74.5 306.5q0 23 19.5 35.5t40.5 12.5q17 0 31.5 -9.5t19.5 -29.5q17 -71 34 -141l34 -140q12 -49 21 -98.5t20 -98.5
q11 51 20.5 104.5t22.5 105.5l59 244q8 32 20.5 49t45.5 17q32 0 45 -18t21 -48l58 -244q12 -53 21.5 -105.5t21.5 -105.5q11 50 20.5 99t21.5 99l67 280q5 19 18.5 29.5t30.5 10.5q21 0 42 -11.5t21 -37.5v-4.5t-2 -7.5l-149 -600q-7 -23 -23 -41t-45 -18t-46 18.5
t-22 41.5zM401 825q-10 -8 -21 -19t-23 -21.5t-23 -17.5t-21 -7q-15 0 -29 9.5t-14 26.5q0 12 10.5 25t21.5 21l69 55q6 5 13 8t17 3t17 -3t13 -8l69 -55q11 -8 21.5 -21t10.5 -25q0 -17 -14 -26.5t-29 -9.5q-10 0 -21 7t-23 17.5t-23 21.5t-21 19z" />
    <glyph glyph-name="wcircumflex" unicode="&#x175;" horiz-adv-x="675" 
d="M20 0zM538 44q-8 -26 -21.5 -38.5t-42.5 -12.5q-20 0 -38 10.5t-23 30.5l-75 317q-18 -81 -36 -159.5t-39 -157.5q-6 -23 -21 -32t-40 -9q-27 0 -42.5 13.5t-22.5 38.5l-116 407q-1 4 -1 10q0 19 15.5 33.5t38.5 14.5q17 0 31 -9.5t19 -26.5l49 -188q10 -38 16 -77
t14 -78q10 45 18 89.5t19 89.5l39 157q5 19 20.5 31t39.5 12q23 0 37.5 -12t19.5 -31l39 -157q11 -45 19 -89.5t19 -89.5q8 39 14 78t16 77l48 188q4 15 19 25.5t32 10.5q21 0 37 -14t16 -36q0 -1 -0.5 -3.5t-0.5 -4.5zM337 625q-10 -8 -21 -19t-23 -21.5t-23 -17.5t-21 -7
q-15 0 -29 9.5t-14 26.5q0 12 10.5 25t21.5 21l69 55q6 5 13 8t17 3t17 -3t13 -8l69 -55q11 -8 21.5 -21t10.5 -25q0 -17 -14 -26.5t-29 -9.5q-10 0 -21 7t-23 17.5t-23 21.5t-21 19z" />
    <glyph glyph-name="Ycircumflex" unicode="&#x176;" horiz-adv-x="503" 
d="M13 0zM251 -10q-23 0 -39.5 16t-16.5 38v232l-177 361q-2 5 -3.5 11.5t-1.5 12.5q0 22 17.5 37.5t38.5 15.5q13 0 25 -5.5t19 -17.5l138 -288l138 288q7 12 19 17.5t25 5.5q22 0 39 -15.5t17 -37.5q0 -5 -1.5 -12t-3.5 -12l-177 -362v-231q0 -21 -16 -37.5t-40 -16.5z
M251 825q-10 -8 -21 -19t-23 -21.5t-23 -17.5t-21 -7q-15 0 -29 9.5t-14 26.5q0 12 10.5 25t21.5 21l69 55q6 5 13 8t17 3t17 -3t13 -8l69 -55q11 -8 21.5 -21t10.5 -25q0 -17 -14 -26.5t-29 -9.5q-10 0 -21 7t-23 17.5t-23 21.5t-21 19z" />
    <glyph glyph-name="ycircumflex" unicode="&#x177;" horiz-adv-x="442" 
d="M16 0zM304 69q-19 -59 -37.5 -109t-43.5 -86t-60.5 -56.5t-88.5 -20.5q-24 0 -39.5 14t-15.5 35q0 18 13.5 32.5t37.5 16.5q40 0 62.5 28.5t43.5 91.5l-157 428q-2 5 -2.5 10.5t-0.5 9.5q0 20 15.5 33.5t38.5 13.5q15 0 29 -8.5t20 -25.5l9 -27q26 -76 51 -151t50 -153
q23 85 46 166.5t49 164.5q5 17 20.5 25.5t30.5 8.5q20 0 37 -13.5t17 -36.5q0 -8 -3 -15zM212 625q-10 -8 -21 -19t-23 -21.5t-23 -17.5t-21 -7q-15 0 -29 9.5t-14 26.5q0 12 10.5 25t21.5 21l69 55q6 5 13 8t17 3t17 -3t13 -8l69 -55q11 -8 21.5 -21t10.5 -25
q0 -17 -14 -26.5t-29 -9.5q-10 0 -21 7t-23 17.5t-23 21.5t-21 19z" />
    <glyph glyph-name="Ydieresis" unicode="&#x178;" horiz-adv-x="503" 
d="M13 0zM251 -10q-23 0 -39.5 16t-16.5 38v232l-177 361q-2 5 -3.5 11.5t-1.5 12.5q0 22 17.5 37.5t38.5 15.5q13 0 25 -5.5t19 -17.5l138 -288l138 288q7 12 19 17.5t25 5.5q22 0 39 -15.5t17 -37.5q0 -5 -1.5 -12t-3.5 -12l-177 -362v-231q0 -21 -16 -37.5t-40 -16.5z
M394 834q0 -23 -16.5 -39.5t-39.5 -16.5t-40 16.5t-17 39.5q0 22 17 38t40 16t39.5 -15.5t16.5 -38.5zM220 834q0 -23 -16.5 -39.5t-40.5 -16.5q-23 0 -39 16.5t-16 39.5q0 22 16 38t39 16q24 0 40.5 -15.5t16.5 -38.5z" />
    <glyph glyph-name="Zacute" unicode="&#x179;" horiz-adv-x="504" 
d="M24 0zM479 53q0 -23 -16 -38t-39 -15h-343q-25 0 -41 16.5t-16 39.5q0 8 4 19.5t8 18.5q12 20 35.5 60t52 89t60 103.5t60 104t52 89t35.5 60.5h-251q-23 0 -38.5 15t-15.5 37q0 21 15.5 37t38.5 16h339q25 0 41.5 -16t16.5 -39q0 -11 -3.5 -20t-8.5 -17l-298 -509h257
q22 0 38.5 -14.5t16.5 -36.5zM307 917q8 8 14 11.5t19 3.5q14 0 27 -11.5t13 -29.5q0 -15 -13 -28l-75 -78q-9 -10 -17.5 -15t-21.5 -5q-17 0 -29.5 11.5t-12.5 30.5q0 9 9.5 21.5t23 26.5t28 27.5t25.5 24.5z" />
    <glyph glyph-name="zacute" unicode="&#x17a;" horiz-adv-x="409" 
d="M12 0zM394 454q0 -8 -2.5 -17.5t-8.5 -17.5l-232 -324h193q23 0 37.5 -14t14.5 -34t-14.5 -33.5t-37.5 -13.5h-277q-22 0 -38.5 15t-16.5 38q0 8 2 15.5t8 15.5l232 326h-181q-21 0 -36 13.5t-15 33.5q0 21 15 34.5t36 13.5h265q23 0 39.5 -13.5t16.5 -37.5zM257 717
q8 8 14 11.5t19 3.5q14 0 27 -11.5t13 -29.5q0 -15 -13 -28l-75 -78q-9 -10 -17.5 -15t-21.5 -5q-17 0 -29.5 11.5t-12.5 30.5q0 9 9.5 21.5t23 26.5t28 27.5t25.5 24.5z" />
    <glyph glyph-name="Zdotaccent" unicode="&#x17b;" horiz-adv-x="504" 
d="M24 0zM479 53q0 -23 -16 -38t-39 -15h-343q-25 0 -41 16.5t-16 39.5q0 8 4 19.5t8 18.5q12 20 35.5 60t52 89t60 103.5t60 104t52 89t35.5 60.5h-251q-23 0 -38.5 15t-15.5 37q0 21 15.5 37t38.5 16h339q25 0 41.5 -16t16.5 -39q0 -11 -3.5 -20t-8.5 -17l-298 -509h257
q22 0 38.5 -14.5t16.5 -36.5zM308 827q0 -23 -16.5 -39.5t-40.5 -16.5q-23 0 -39 16.5t-16 39.5q0 22 16 38t39 16q24 0 40.5 -15.5t16.5 -38.5z" />
    <glyph glyph-name="zdotaccent" unicode="&#x17c;" horiz-adv-x="409" 
d="M12 0zM394 454q0 -8 -2.5 -17.5t-8.5 -17.5l-232 -324h193q23 0 37.5 -14t14.5 -34t-14.5 -33.5t-37.5 -13.5h-277q-22 0 -38.5 15t-16.5 38q0 8 2 15.5t8 15.5l232 326h-181q-21 0 -36 13.5t-15 33.5q0 21 15 34.5t36 13.5h265q23 0 39.5 -13.5t16.5 -37.5zM260 627
q0 -23 -16.5 -39.5t-40.5 -16.5q-23 0 -39 16.5t-16 39.5q0 22 16 38t39 16q24 0 40.5 -15.5t16.5 -38.5z" />
    <glyph glyph-name="Zcaron" unicode="&#x17d;" horiz-adv-x="504" 
d="M24 0zM479 53q0 -23 -16 -38t-39 -15h-343q-25 0 -41 16.5t-16 39.5q0 8 4 19.5t8 18.5q12 20 35.5 60t52 89t60 103.5t60 104t52 89t35.5 60.5h-251q-23 0 -38.5 15t-15.5 37q0 21 15.5 37t38.5 16h339q25 0 41.5 -16t16.5 -39q0 -11 -3.5 -20t-8.5 -17l-298 -509h257
q22 0 38.5 -14.5t16.5 -36.5zM252 842q11 9 22 20.5t22.5 22t23.5 18t25 7.5q18 0 31 -9.5t13 -27.5q0 -10 -4 -17t-12 -15q-9 -9 -24.5 -23t-33 -28t-34.5 -24t-29 -10t-29 10t-34.5 24t-33 28t-24.5 23q-8 8 -12 15t-4 17q0 18 13 27.5t31 9.5q13 0 25 -7.5t23.5 -18
t22.5 -22t22 -20.5z" />
    <glyph glyph-name="zcaron" unicode="&#x17e;" horiz-adv-x="404" 
d="M11 0zM393 454q0 -8 -2.5 -17.5t-8.5 -17.5l-232 -324h193q23 0 37.5 -14t14.5 -34t-14.5 -33.5t-37.5 -13.5h-277q-22 0 -38.5 15t-16.5 38q0 8 2 15.5t8 15.5l232 326h-181q-21 0 -36 13.5t-15 33.5q0 21 15 34.5t36 13.5h265q23 0 39.5 -13.5t16.5 -37.5zM204 642
q11 9 22 20.5t22.5 22t23.5 18t25 7.5q18 0 31 -9.5t13 -27.5q0 -10 -4 -17t-12 -15q-9 -9 -24.5 -23t-33 -28t-34.5 -24t-29 -10t-29 10t-34.5 24t-33 28t-24.5 23q-8 8 -12 15t-4 17q0 18 13 27.5t31 9.5q13 0 25 -7.5t23.5 -18t22.5 -22t22 -20.5z" />
    <glyph glyph-name="florin" unicode="&#x192;" horiz-adv-x="512" 
d="M503 649q0 -15 -4.5 -23.5t-11.5 -12.5t-15.5 -5t-16.5 -1t-17 1t-14 1q-23 0 -39.5 -12t-21.5 -37l-20 -108h53q11 0 22.5 -1.5t20.5 -6.5t14.5 -14.5t5.5 -24.5q0 -16 -6 -25t-15.5 -13.5t-21 -5.5t-22.5 -1h-68l-69 -369q-6 -44 -18.5 -79.5t-32.5 -60t-50.5 -37.5
t-72.5 -13q-16 0 -31 1t-26 5t-18 11.5t-7 19.5q0 19 16 29q0 14 9.5 22t25.5 8h20q1 0 2 -0.5t2 -0.5q32 0 47 18t22 56l71 390h-51q-24 0 -43.5 8t-19.5 38q0 26 14.5 36t34.5 10h83q9 53 18.5 99t29 80t54 53.5t93.5 19.5q12 0 25.5 -2t24 -8t17.5 -16.5t7 -28.5z" />
    <glyph glyph-name="uni0218" unicode="&#x218;" horiz-adv-x="506" 
d="M36 0zM355 197q0 40 -16.5 58.5t-32.5 26.5q-25 12 -54.5 21.5t-59.5 20t-58 24.5t-49.5 35.5t-34.5 53t-13 76.5q0 94 58.5 147.5t158.5 53.5q20 0 51.5 -3t61.5 -11.5t51.5 -24t21.5 -40.5q0 -20 -14.5 -35t-40.5 -15q-13 0 -25 4t-26 9.5t-31.5 9.5t-42.5 4
q-21 0 -41 -4.5t-35.5 -15t-24.5 -29t-9 -45.5q0 -21 5 -35t12.5 -24t16 -15.5t16.5 -9.5q25 -13 55 -22.5t60 -20.5t57.5 -25t49 -35t34.5 -52t13 -75q0 -51 -17.5 -90.5t-49 -67t-74.5 -41.5t-93 -14q-26 0 -60.5 4.5t-65 14.5t-52 26t-21.5 39q0 20 14.5 35.5t36.5 15.5
q11 0 24.5 -5t31 -11.5t40.5 -11.5t53 -5q60 0 89.5 27t29.5 77zM317 -104q0 -21 -9 -44.5t-22.5 -43.5t-28.5 -33t-27 -13q-7 0 -12.5 4t-5.5 13q0 8 4 14.5t10 13.5t12 15t11 19q-26 2 -42.5 14t-16.5 40q0 23 15.5 38.5t47.5 15.5q33 0 48.5 -15.5t15.5 -37.5z" />
    <glyph glyph-name="uni0219" unicode="&#x219;" horiz-adv-x="426" 
d="M42 0zM48 363q0 68 44.5 109t132.5 41q22 0 47.5 -3.5t47 -11.5t35.5 -22t14 -36q0 -20 -12 -30.5t-32 -10.5q-12 0 -21.5 3.5t-20.5 7.5t-24.5 7.5t-33.5 3.5q-9 0 -21.5 -1.5t-23.5 -6.5t-18.5 -14.5t-7.5 -25.5q0 -25 17.5 -39t43 -24.5t56 -21t56 -27.5t43 -44.5
t17.5 -72.5q0 -70 -46 -110.5t-136 -40.5q-21 0 -49.5 3t-53.5 10.5t-42.5 20t-17.5 32.5q0 7 2.5 17t9 18t17 12.5t27.5 0.5q14 -3 42.5 -13t60.5 -10q34 0 57 15.5t23 42.5q0 23 -17.5 36.5t-43 23.5t-56 19.5t-56 26.5t-43 44t-17.5 71zM277 -104q0 -21 -9 -44.5
t-22.5 -43.5t-28.5 -33t-27 -13q-7 0 -12.5 4t-5.5 13q0 8 4 14.5t10 13.5t12 15t11 19q-26 2 -42.5 14t-16.5 40q0 23 15.5 38.5t47.5 15.5q33 0 48.5 -15.5t15.5 -37.5z" />
    <glyph glyph-name="uni021A" unicode="&#x21a;" horiz-adv-x="503" 
d="M20 0zM196 602h-121q-24 0 -39.5 15.5t-15.5 35.5q0 17 16 34.5t39 17.5h352q21 0 38.5 -15t17.5 -37q0 -20 -16.5 -35.5t-39.5 -15.5h-121v-560q0 -20 -16 -36t-39 -16t-39 16t-16 36v560zM315 -104q0 -21 -9 -44.5t-22.5 -43.5t-28.5 -33t-27 -13q-7 0 -12.5 4t-5.5 13
q0 8 4 14.5t10 13.5t12 15t11 19q-26 2 -42.5 14t-16.5 40q0 23 15.5 38.5t47.5 15.5q33 0 48.5 -15.5t15.5 -37.5z" />
    <glyph glyph-name="uni021B" unicode="&#x21b;" horiz-adv-x="341" 
d="M69 0zM69 608q0 21 14 35.5t40 14.5t40 -15t14 -35v-124h89q21 0 36 -14t15 -35q0 -20 -15 -34t-36 -14h-89v-175q0 -33 2 -56t9.5 -37t20.5 -20.5t36 -6.5q5 0 10 0.5t8 0.5q32 0 49.5 -9.5t17.5 -35.5q0 -17 -6.5 -27.5t-17.5 -16t-24.5 -7t-28.5 -1.5
q-55 0 -90.5 13.5t-56.5 39.5t-29 65.5t-8 90.5v403zM286 -104q0 -21 -9 -44.5t-22.5 -43.5t-28.5 -33t-27 -13q-7 0 -12.5 4t-5.5 13q0 8 4 14.5t10 13.5t12 15t11 19q-26 2 -42.5 14t-16.5 40q0 23 15.5 38.5t47.5 15.5q33 0 48.5 -15.5t15.5 -37.5z" />
    <glyph glyph-name="dotlessj" unicode="&#x237;" horiz-adv-x="265" 
d="M186 0q0 -42 -11.5 -78t-34 -62t-55 -40.5t-74.5 -14.5q-17 0 -30 9.5t-17 26.5v-1q-2 10 -2 14q0 21 14.5 31.5t28.5 13.5q34 8 53.5 29t19.5 68v471q0 21 15.5 36t38.5 15t38.5 -15t15.5 -36v-467z" />
    <glyph glyph-name="circumflex" unicode="&#x2c6;" horiz-adv-x="416" 
d="M212 625q-10 -8 -21 -19t-23 -21.5t-23 -17.5t-21 -7q-15 0 -29 9.5t-14 26.5q0 12 10.5 25t21.5 21l69 55q6 5 13 8t17 3t17 -3t13 -8l69 -55q11 -8 21.5 -21t10.5 -25q0 -17 -14 -26.5t-29 -9.5q-10 0 -21 7t-23 17.5t-23 21.5t-21 19z" />
    <glyph glyph-name="caron" unicode="&#x2c7;" horiz-adv-x="411" 
d="M211 642q11 9 22 20.5t22.5 22t23.5 18t25 7.5q18 0 31 -9.5t13 -27.5q0 -10 -4 -17t-12 -15q-9 -9 -24.5 -23t-33 -28t-34.5 -24t-29 -10t-29 10t-34.5 24t-33 28t-24.5 23q-8 8 -12 15t-4 17q0 18 13 27.5t31 9.5q13 0 25 -7.5t23.5 -18t22.5 -22t22 -20.5z" />
    <glyph glyph-name="breve" unicode="&#x2d8;" horiz-adv-x="387" 
d="M193 639q23 0 37 11t25 25q8 9 16 14t21 5q16 0 29 -10t7 -36q-5 -21 -20 -37t-34.5 -27t-41.5 -16.5t-40 -5.5q-20 0 -41.5 6t-41 17.5t-34 27t-18.5 35.5q-6 26 7 36t29 10q14 0 22.5 -6t14.5 -13q11 -14 25.5 -25t37.5 -11z" />
    <glyph glyph-name="dotaccent" unicode="&#x2d9;" horiz-adv-x="264" 
d="M188 627q0 -23 -16.5 -39.5t-40.5 -16.5q-23 0 -39 16.5t-16 39.5q0 22 16 38t39 16q24 0 40.5 -15.5t16.5 -38.5z" />
    <glyph glyph-name="ring" unicode="&#x2da;" horiz-adv-x="591" 
d="M386 644q0 -44 -30 -74t-74 -30q-45 0 -75 30t-30 74q0 21 8 40t22.5 33.5t33.5 22.5t41 8t41 -8t33 -22.5t22 -33.5t8 -40zM331 644q0 20 -14.5 35t-34.5 15t-34.5 -15t-14.5 -35t14.5 -34.5t34.5 -14.5t34.5 14.5t14.5 34.5z" />
    <glyph glyph-name="ogonek" unicode="&#x2db;" horiz-adv-x="342" 
d="M270 -161q0 -15 -8.5 -24t-21.5 -14t-28 -6.5t-28 -1.5q-51 0 -81.5 23t-30.5 73q0 27 11.5 56t30.5 55h81l-15 -26q-10 -17 -16.5 -35t-6.5 -34q0 -34 39 -34q17 0 24.5 1.5t13.5 1.5q14 0 25 -10.5t11 -24.5z" />
    <glyph glyph-name="tilde" unicode="&#x2dc;" horiz-adv-x="395" 
d="M342 646q0 -14 -8 -26t-21 -21t-28 -14.5t-29 -5.5q-18 0 -32.5 5t-27 11.5t-24 12.5t-22.5 7q-12 1 -20 -4t-14.5 -11t-13 -11t-16.5 -5q-14 0 -26 9t-12 25q0 31 26 51.5t59 20.5q18 0 32.5 -5.5t27 -12t23.5 -12t23 -6.5q13 0 20.5 5t13.5 11t12 11t17 5
q16 0 28 -11.5t12 -28.5z" />
    <glyph glyph-name="hungarumlaut" unicode="&#x2dd;" horiz-adv-x="430" 
d="M135 707q9 11 17.5 21.5t26.5 10.5q16 0 29 -13t13 -30q0 -10 -8 -21l-60 -90q-8 -13 -17.5 -20t-24.5 -7q-17 0 -30 13t-13 30q0 7 4 14zM288 707q8 11 17 21.5t26 10.5q16 0 30 -13.5t14 -28.5q0 -7 -5 -15l-65 -97q-8 -12 -16.5 -19.5t-24.5 -7.5q-17 0 -30.5 12.5
t-13.5 29.5q0 9 5 15z" />
    <glyph glyph-name="uni0400" unicode="&#x400;" horiz-adv-x="494" 
d="M68 0zM466 53q0 -23 -16 -38t-39 -15h-265q-31 0 -54.5 12.5t-23.5 46.5v587q0 22 17.5 40.5t44.5 18.5h271q23 0 39 -15.5t16 -37.5t-16 -36t-39 -14h-223v-197h204q20 0 37 -14.5t17 -36.5t-15.5 -37t-38.5 -15h-204v-200h233q22 0 38.5 -14.5t16.5 -34.5zM245 907
q11 -11 25.5 -24.5t28 -27.5t23 -26.5t9.5 -21.5q0 -19 -12.5 -30.5t-29.5 -11.5q-13 0 -21.5 5t-17.5 15l-75 78q-13 13 -13 28q0 18 13 29.5t27 11.5q13 0 19 -3.5t14 -11.5l10 -10v0z" />
    <glyph glyph-name="uni0401" unicode="&#x401;" horiz-adv-x="494" 
d="M68 0zM466 53q0 -23 -16 -38t-39 -15h-265q-31 0 -54.5 12.5t-23.5 46.5v587q0 22 17.5 40.5t44.5 18.5h271q23 0 39 -15.5t16 -37.5t-16 -36t-39 -14h-223v-197h204q20 0 37 -14.5t17 -36.5t-15.5 -37t-38.5 -15h-204v-200h233q22 0 38.5 -14.5t16.5 -34.5zM417 834
q0 -23 -16.5 -39.5t-39.5 -16.5t-40 16.5t-17 39.5q0 22 17 38t40 16t39.5 -15.5t16.5 -38.5zM243 834q0 -23 -16.5 -39.5t-40.5 -16.5q-23 0 -39 16.5t-16 39.5q0 22 16 38t39 16q24 0 40.5 -15.5t16.5 -38.5z" />
    <glyph glyph-name="uni0402" unicode="&#x402;" horiz-adv-x="664" 
d="M156 603h-81q-24 0 -39.5 15.5t-15.5 34.5t16 35.5t39 16.5h352q21 0 38.5 -14.5t17.5 -36.5q0 -21 -16.5 -36t-39.5 -15h-161v-171q28 12 57.5 17.5t57.5 5.5q107 0 166 -58t59 -173q0 -54 -12.5 -97t-36 -73.5t-56.5 -47t-75 -16.5q-47 0 -77 20t-30 47q0 20 15 34
t35 14q8 0 12.5 -2l9 -4t10.5 -4t17 -2q37 0 57.5 31t20.5 98q0 72 -29.5 101t-91.5 29q-27 0 -55.5 -6.5t-53.5 -20.5v-283q0 -20 -16 -36t-39 -16t-39 16t-16 36v561z" />
    <glyph glyph-name="uni0403" unicode="&#x403;" horiz-adv-x="466" 
d="M68 0zM303 917q8 8 14 11.5t19 3.5q14 0 27 -11.5t13 -29.5q0 -15 -13 -28l-75 -78q-9 -10 -17.5 -15t-21.5 -5q-17 0 -29.5 11.5t-12.5 30.5q0 9 9.5 21.5t23 26.5t28 27.5t25.5 24.5zM178 43q0 -20 -16 -36t-39 -16t-39 16t-16 36v605q0 21 17 39t43 18h272
q23 0 38.5 -15.5t15.5 -35.5q0 -22 -15.5 -36.5t-38.5 -14.5h-222v-560z" />
    <glyph glyph-name="uni0404" unicode="&#x404;" horiz-adv-x="502" 
d="M40 456q0 58 14.5 106t44 81.5t74.5 52t107 18.5q37 0 71.5 -7.5t61.5 -21t43 -31t16 -36.5q0 -20 -14.5 -34t-36.5 -14q-14 0 -21.5 4t-18.5 12q-18 13 -44 22t-52 9q-38 0 -64 -11t-42 -32t-22.5 -51t-6.5 -67v-51h171q21 0 37 -14.5t16 -36.5t-15 -37.5t-38 -15.5
h-171v-51q0 -37 6.5 -67t22.5 -51t42 -32t64 -11q24 0 43.5 7t35.5 16t30 16t27 7q22 0 36.5 -14t14.5 -33q0 -20 -16 -37.5t-43 -30.5t-61.5 -20.5t-71.5 -7.5q-62 0 -107 18.5t-74.5 52t-44 81t-14.5 106.5v206z" />
    <glyph glyph-name="uni0405" unicode="&#x405;" horiz-adv-x="506" 
d="M36 0zM355 197q0 40 -16.5 58.5t-32.5 26.5q-25 12 -54.5 21.5t-59.5 20t-58 24.5t-49.5 35.5t-34.5 53t-13 76.5q0 94 58.5 147.5t158.5 53.5q20 0 51.5 -3t61.5 -11.5t51.5 -24t21.5 -40.5q0 -20 -14.5 -35t-40.5 -15q-13 0 -25 4t-26 9.5t-31.5 9.5t-42.5 4
q-21 0 -41 -4.5t-35.5 -15t-24.5 -29t-9 -45.5q0 -21 5 -35t12.5 -24t16 -15.5t16.5 -9.5q25 -13 55 -22.5t60 -20.5t57.5 -25t49 -35t34.5 -52t13 -75q0 -51 -17.5 -90.5t-49 -67t-74.5 -41.5t-93 -14q-26 0 -60.5 4.5t-65 14.5t-52 26t-21.5 39q0 20 14.5 35.5t36.5 15.5
q11 0 24.5 -5t31 -11.5t40.5 -11.5t53 -5q60 0 89.5 27t29.5 77z" />
    <glyph glyph-name="uni0406" unicode="&#x406;" horiz-adv-x="247" 
d="M68 0zM68 662q0 21 16 36.5t39 15.5t39 -15.5t16 -36.5v-620q0 -20 -16 -36t-39 -16t-39 16t-16 36v620z" />
    <glyph glyph-name="uni0407" unicode="&#x407;" horiz-adv-x="247" 
d="M0 0zM68 662q0 21 16 36.5t39 15.5t39 -15.5t16 -36.5v-620q0 -20 -16 -36t-39 -16t-39 16t-16 36v620zM268 834q0 -23 -16.5 -39.5t-39.5 -16.5t-40 16.5t-17 39.5q0 22 17 38t40 16t39.5 -15.5t16.5 -38.5zM94 834q0 -23 -16.5 -39.5t-40.5 -16.5q-23 0 -39 16.5
t-16 39.5q0 22 16 38t39 16q24 0 40.5 -15.5t16.5 -38.5z" />
    <glyph glyph-name="uni0408" unicode="&#x408;" horiz-adv-x="405" 
d="M20 0zM337 230q0 -56 -10.5 -100.5t-35.5 -75.5t-67 -47.5t-104 -16.5q-12 0 -29.5 1.5t-33 7t-26.5 17t-11 31.5q0 25 16.5 38t33.5 13q13 0 26.5 -3t34.5 -3q30 0 48.5 9.5t29 27.5t14.5 43.5t4 57.5v432q0 22 15.5 37t39.5 15q22 0 38.5 -15.5t16.5 -36.5v-432z" />
    <glyph glyph-name="uni0409" unicode="&#x409;" horiz-adv-x="904" 
d="M273 603l-30 -428q-6 -81 -39 -131.5t-101 -50.5q-18 0 -34 1t-28 5.5t-19 14.5t-7 29q0 28 14 41.5t35 13.5q5 0 10 -1t18 -2q20 0 29.5 19t12.5 57l36 479q1 26 18.5 40.5t39.5 14.5h261q24 0 41.5 -16t17.5 -39v-194h79q55 0 99 -15t75.5 -43.5t48.5 -71t17 -96.5
q0 -45 -12.5 -86.5t-41 -73.5t-74.5 -51t-112 -19h-127q-26 0 -44.5 17.5t-18.5 42.5v543h-164zM603 102q47 0 77 9.5t47 26.5t23.5 40.5t6.5 50.5q0 64 -33 94t-97 30h-79v-251h55z" />
    <glyph glyph-name="uni040A" unicode="&#x40a;" horiz-adv-x="868" 
d="M178 43q0 -21 -16 -36.5t-39 -15.5t-39 15.5t-16 36.5v619q0 21 16 36.5t39 15.5t39 -15.5t16 -36.5v-258h223v256q0 23 16.5 38.5t38.5 15.5q23 0 39 -16t16 -38v-204h80q55 0 99 -15t75.5 -43.5t48.5 -71t17 -96.5q0 -45 -12.5 -86.5t-41 -73.5t-74.5 -51t-112 -19
h-127q-26 0 -44.5 17.5t-18.5 42.5v241h-223v-258zM511 102h80q40 0 65 11t39.5 29t20 41t5.5 46q0 64 -33 94t-97 30h-80v-251z" />
    <glyph glyph-name="uni040B" unicode="&#x40b;" horiz-adv-x="664" 
d="M483 654q0 -21 -16.5 -36t-39.5 -15h-161v-173q54 25 118 25q104 0 163 -58.5t59 -167.5v-185q0 -21 -16 -37.5t-39 -16.5q-22 0 -38.5 16t-16.5 38v184q0 67 -30 95.5t-90 28.5q-29 0 -57 -6.5t-53 -20.5v-283q0 -20 -16 -36t-39 -16t-39 16t-16 36v561h-81
q-24 0 -39.5 15t-15.5 35q0 18 16 35t39 17h352q21 0 38.5 -14.5t17.5 -36.5z" />
    <glyph glyph-name="uni040C" unicode="&#x40c;" horiz-adv-x="536" 
d="M68 0zM333 917q8 8 14 11.5t19 3.5q14 0 27 -11.5t13 -29.5q0 -15 -13 -28l-75 -78q-9 -10 -17.5 -15t-21.5 -5q-17 0 -29.5 11.5t-12.5 30.5q0 9 9.5 21.5t23 26.5t28 27.5t25.5 24.5zM178 404h35l204 286q17 24 46 24q25 0 39 -18.5t14 -36.5q0 -13 -8 -26l-204 -281
l204 -280q8 -15 8 -27q0 -9 -3.5 -18.5t-10.5 -17.5t-17 -13.5t-22 -5.5q-28 0 -46 24l-205 287h-34v-258q0 -21 -16 -37t-39 -16t-39 16t-16 37v619q0 21 16 36.5t39 15.5t39 -15.5t16 -36.5v-258z" />
    <glyph glyph-name="uni040D" unicode="&#x40d;" horiz-adv-x="609" 
d="M68 0zM253 907q11 -11 25.5 -24.5t28 -27.5t23 -26.5t9.5 -21.5q0 -19 -12.5 -30.5t-29.5 -11.5q-13 0 -21.5 5t-17.5 15l-75 78q-13 13 -13 28q0 18 13 29.5t27 11.5q13 0 19 -3.5t14 -11.5l10 -10v0zM127 -10q-26 0 -42.5 16.5t-16.5 39.5v615q0 22 15.5 37.5
t38.5 15.5t39.5 -15.5t16.5 -37.5v-444q11 20 31.5 57t45 82.5t51.5 95.5t51.5 95t44.5 81.5t31 55.5q8 14 23 22t32 8q25 0 41.5 -16t16.5 -40v-615q0 -21 -15.5 -37t-38.5 -16t-39.5 16t-16.5 37v442l-255 -466q-8 -13 -23 -21t-31 -8z" />
    <glyph glyph-name="uni040E" unicode="&#x40e;" horiz-adv-x="523" 
d="M20 0zM261 839q23 0 37 11t25 25q8 9 16 14t21 5q16 0 29 -10t7 -36q-5 -21 -20 -37t-34.5 -27t-41.5 -16.5t-40 -5.5q-20 0 -41.5 6t-41 17.5t-34 27t-18.5 35.5q-6 26 7 36t29 10q14 0 22.5 -6t14.5 -13q11 -14 25.5 -25t37.5 -11zM338 228q-19 -50 -38.5 -92
t-45 -73.5t-60.5 -50t-86 -19.5q-24 0 -39.5 13.5t-15.5 35.5q0 18 13.5 33t37.5 17q20 1 35.5 5.5t27.5 14t22 24.5t20 38l-186 473q-2 5 -2.5 10t-0.5 9q0 21 15.5 34.5t38.5 13.5q15 0 28.5 -8.5t20.5 -25.5l88 -227q15 -39 27 -79t25 -80q32 98 65.5 194t70.5 192
q6 17 20 25.5t30 8.5q20 0 37 -14t17 -37q0 -11 -4 -17z" />
    <glyph glyph-name="uni040F" unicode="&#x40f;" horiz-adv-x="599" 
d="M244 0h-121q-23 0 -39 15.5t-16 36.5v610q0 22 16 37.5t39 15.5t39 -15.5t16 -37.5v-560h243v560q0 22 16.5 37.5t38.5 15.5q23 0 39 -15.5t16 -37.5v-610q0 -21 -16.5 -36.5t-38.5 -15.5h-122v-112q0 -20 -16 -36t-39 -16t-39 16t-16 36v112z" />
    <glyph glyph-name="uni0410" unicode="&#x410;" horiz-adv-x="569" 
d="M20 0zM129 29q-5 -18 -21.5 -28t-30.5 -10q-23 0 -40 14t-17 37q0 4 0.5 10t1.5 9l195 593q8 26 23 43t44 17t43.5 -17t23.5 -43l195 -593q2 -3 2.5 -9t0.5 -10q0 -23 -16.5 -37t-40.5 -14q-27 0 -39 17t-22 44l-32 97h-233zM284 549q-19 -80 -41.5 -154t-45.5 -150h173
q-23 76 -46.5 151t-39.5 153z" />
    <glyph glyph-name="uni0411" unicode="&#x411;" horiz-adv-x="551" 
d="M178 603v-166h100q55 0 99 -14t75.5 -42t48.5 -68.5t17 -92.5q0 -43 -12.5 -83t-41 -70.5t-74.5 -48.5t-112 -18h-147q-26 0 -44.5 17.5t-18.5 42.5v588q0 21 17 39t43 18h292q23 0 38.5 -15.5t15.5 -35.5q0 -22 -15.5 -36.5t-38.5 -14.5h-242zM278 102q40 0 65 10.5
t39.5 27t20 37.5t5.5 42q0 115 -130 115h-100v-232h100z" />
    <glyph glyph-name="uni0412" unicode="&#x412;" horiz-adv-x="562" 
d="M68 0zM293 417q19 0 38 6t34.5 18t25 30.5t9.5 43.5q0 17 -5 33t-16 28t-29 19.5t-45 7.5h-127v-186h115zM178 314v-212h117q63 0 93.5 28t30.5 75q0 53 -35 81t-88 28h-118zM131 0q-27 0 -45 17.5t-18 42.5v585q0 26 18.5 43t44.5 17h169q52 0 91.5 -16t66 -42.5
t39.5 -60.5t13 -70q0 -29 -9 -52t-24.5 -41.5t-37 -32.5t-46.5 -25q24 -9 48 -21t43.5 -30.5t32 -45t12.5 -63.5q0 -43 -16 -80.5t-46.5 -65t-73.5 -43.5t-97 -16h-165z" />
    <glyph glyph-name="uni0413" unicode="&#x413;" horiz-adv-x="466" 
d="M178 43q0 -20 -16 -36t-39 -16t-39 16t-16 36v605q0 21 17 39t43 18h272q23 0 38.5 -15.5t15.5 -35.5q0 -22 -15.5 -36.5t-38.5 -14.5h-222v-560z" />
    <glyph glyph-name="uni0414" unicode="&#x414;" horiz-adv-x="648" 
d="M501 705q24 0 41.5 -16t17.5 -39v-548q29 0 47.5 -15.5t18.5 -46.5v-106q0 -31 -12 -52t-44 -21q-23 0 -38.5 14.5t-15.5 36.5v88h-386v-88q0 -20 -16.5 -35.5t-37.5 -15.5q-31 0 -42.5 20.5t-11.5 52.5v106q0 32 19.5 47t48.5 15q25 32 38.5 93.5t18.5 148.5l15 306
q0 26 19.5 40.5t38.5 14.5h281zM257 343q-4 -75 -16.5 -136t-35.5 -105h245v501h-184z" />
    <glyph glyph-name="uni0415" unicode="&#x415;" horiz-adv-x="494" 
d="M68 0zM466 53q0 -23 -16 -38t-39 -15h-265q-31 0 -54.5 12.5t-23.5 46.5v587q0 22 17.5 40.5t44.5 18.5h271q23 0 39 -15.5t16 -37.5t-16 -36t-39 -14h-223v-197h204q20 0 37 -14.5t17 -36.5t-15.5 -37t-38.5 -15h-204v-200h233q22 0 38.5 -14.5t16.5 -34.5z" />
    <glyph glyph-name="uni0416" unicode="&#x416;" horiz-adv-x="766" 
d="M438 404h24q41 62 86 133t87 134q11 16 23.5 28.5t32.5 12.5q26 0 40.5 -16.5t14.5 -36.5q0 -12 -7 -25l-180 -282l180 -282q7 -13 7 -25q0 -20 -14.5 -36.5t-40.5 -16.5q-22 0 -34 13.5t-22 27.5l-173 268h-24v-234q0 -28 -11.5 -52t-43.5 -24q-23 0 -39 15.5t-16 36.5
v258h-24l-174 -268q-11 -16 -23.5 -28.5t-32.5 -12.5q-26 0 -40 16.5t-14 36.5q0 6 1 12t6 13q45 71 89.5 141t89.5 141q-45 71 -89.5 141t-89.5 141q-5 7 -6 13t-1 12q0 20 14 36.5t40 16.5q20 0 32.5 -13.5t23.5 -27.5l174 -267h24v235q0 14 2.5 27.5t8.5 24t16.5 17
t27.5 6.5q23 0 39 -15.5t16 -36.5v-258z" />
    <glyph glyph-name="uni0417" unicode="&#x417;" horiz-adv-x="505" 
d="M469 198q0 -41 -16 -78.5t-46 -66t-73 -45.5t-96 -17q-30 0 -67.5 6t-69.5 17.5t-54 29t-22 41.5q0 20 15 34t36 14q11 0 24 -7q28 -14 56.5 -26.5t70.5 -12.5q66 0 99.5 32.5t33.5 79.5q0 30 -13.5 50t-36 32t-51 18t-58.5 9q-10 1 -21 2.5t-20.5 6t-15.5 14.5t-6 28
t5.5 27.5t14 14t18.5 5.5t19 2q28 2 55 9t48 20.5t34 33.5t13 49q0 18 -6 35.5t-18.5 31.5t-33.5 22.5t-51 8.5q-24 0 -46.5 -5t-38.5 -13q-17 -8 -33 -18.5t-33 -10.5q-19 0 -34 13t-15 33q0 22 20 40t50.5 30.5t67 19.5t68.5 7q52 0 91 -17t65.5 -45t39.5 -62.5t13 -69.5
q0 -55 -30.5 -92.5t-85.5 -63.5q60 -23 97 -62t37 -104z" />
    <glyph glyph-name="uni0418" unicode="&#x418;" horiz-adv-x="614" 
d="M127 -10q-26 0 -42.5 16.5t-16.5 39.5v615q0 22 15.5 37.5t38.5 15.5t39.5 -15.5t16.5 -37.5v-444q11 20 31.5 57t45 82.5t51.5 95.5t51.5 95t44.5 81.5t31 55.5q8 14 23 22t32 8q25 0 41.5 -16t16.5 -40v-615q0 -21 -15.5 -37t-38.5 -16t-39.5 16t-16.5 37v442
l-255 -466q-8 -13 -23 -21t-31 -8z" />
    <glyph glyph-name="uni0419" unicode="&#x419;" horiz-adv-x="609" 
d="M68 0zM304 839q23 0 37 11t25 25q8 9 16 14t21 5q16 0 29 -10t7 -36q-5 -21 -20 -37t-34.5 -27t-41.5 -16.5t-40 -5.5q-20 0 -41.5 6t-41 17.5t-34 27t-18.5 35.5q-6 26 7 36t29 10q14 0 22.5 -6t14.5 -13q11 -14 25.5 -25t37.5 -11zM127 -10q-26 0 -42.5 16.5
t-16.5 39.5v615q0 22 15.5 37.5t38.5 15.5t39.5 -15.5t16.5 -37.5v-444q11 20 31.5 57t45 82.5t51.5 95.5t51.5 95t44.5 81.5t31 55.5q8 14 23 22t32 8q25 0 41.5 -16t16.5 -40v-615q0 -21 -15.5 -37t-38.5 -16t-39.5 16t-16.5 37v442l-255 -466q-8 -13 -23 -21t-31 -8z" />
    <glyph glyph-name="uni041A" unicode="&#x41a;" horiz-adv-x="536" 
d="M178 404h35l204 286q17 24 46 24q25 0 39 -18.5t14 -36.5q0 -13 -8 -26l-204 -281l204 -280q8 -15 8 -27q0 -9 -3.5 -18.5t-10.5 -17.5t-17 -13.5t-22 -5.5q-28 0 -46 24l-205 287h-34v-258q0 -21 -16 -37t-39 -16t-39 16t-16 37v619q0 21 16 36.5t39 15.5t39 -15.5
t16 -36.5v-258z" />
    <glyph glyph-name="uni041B" unicode="&#x41b;" horiz-adv-x="637" 
d="M568 43q-1 -22 -17 -36t-38 -14q-23 0 -39 14t-16 36v560h-185l-30 -428q-6 -81 -39 -131.5t-101 -50.5q-17 0 -33.5 1t-29.5 6t-20.5 15t-7.5 29q0 29 16 41.5t36 12.5q5 0 9 -1t9 -2h10q20 0 29.5 19t12.5 57l36 479q2 26 19 40.5t39 14.5h281q24 0 41.5 -16t17.5 -39
v-607v0z" />
    <glyph glyph-name="uni041C" unicode="&#x41c;" horiz-adv-x="724" 
d="M63 0zM662 41q0 -20 -16 -35.5t-38 -15.5q-23 0 -39.5 15.5t-16.5 35.5v416l-138 -284q-8 -16 -21.5 -23.5t-30.5 -7.5t-30.5 7.5t-21.5 23.5l-137 284v-416q0 -20 -17 -35.5t-40 -15.5t-38 15.5t-15 35.5v619q0 23 16 38.5t41 15.5q39 0 56 -32l187 -386l186 387
q9 17 24 24t32 7q24 0 40.5 -15.5t16.5 -38.5v-619z" />
    <glyph glyph-name="uni041D" unicode="&#x41d;" horiz-adv-x="600" 
d="M68 0zM531 43q0 -21 -16 -37t-39 -16q-22 0 -38.5 16t-16.5 37v258h-243v-258q0 -21 -16 -37t-39 -16t-39 16t-16 37v619q0 21 16 36.5t39 15.5t39 -15.5t16 -36.5v-258h243v258q0 21 16.5 36.5t38.5 15.5t38.5 -15.5t16.5 -36.5v-619v0z" />
    <glyph glyph-name="uni041E" unicode="&#x41e;" horiz-adv-x="580" 
d="M45 0zM290 -10q-61 0 -107 20.5t-76.5 55.5t-46 82.5t-15.5 101.5v206q0 52 13.5 99t43 82.5t76 56t112.5 20.5t112.5 -20.5t76 -56t43 -82.5t13.5 -99v-206q0 -54 -15.5 -101.5t-46 -82.5t-76.5 -55.5t-107 -20.5zM290 612q-74 0 -104.5 -43t-30.5 -113v-206
q0 -70 32.5 -113.5t102.5 -43.5q69 0 102 43.5t33 113.5v206q0 70 -30.5 113t-104.5 43z" />
    <glyph glyph-name="uni041F" unicode="&#x41f;" horiz-adv-x="599" 
d="M531 43q0 -21 -16 -37t-39 -16q-22 0 -38.5 16t-16.5 37v560h-243v-560q0 -21 -16 -37t-39 -16t-39 16t-16 37v610q0 21 16 37t39 16h353q22 0 38.5 -16t16.5 -37v-610v0z" />
    <glyph glyph-name="uni0420" unicode="&#x420;" horiz-adv-x="550" 
d="M68 0zM178 250v-206q0 -21 -16 -37.5t-39 -16.5q-22 0 -38.5 16t-16.5 38v601q0 24 18.5 42t44.5 18h147q66 0 112 -19t74.5 -51t41 -73t12.5 -86q0 -54 -17 -96.5t-48.5 -71t-75.5 -43.5t-99 -15h-100zM178 352h100q130 0 130 125q0 23 -5.5 45.5t-20 40t-39.5 28.5
t-65 11h-100v-250z" />
    <glyph glyph-name="uni0421" unicode="&#x421;" horiz-adv-x="501" 
d="M40 0zM40 456q0 58 14.5 106t44 81.5t74.5 52t107 18.5q37 0 71.5 -7.5t61.5 -21t43 -31t16 -36.5q0 -20 -14.5 -34t-36.5 -14q-14 0 -21.5 4.5t-18.5 11.5l-5 3q-40 28 -91 28q-38 0 -64 -11t-42 -32t-22.5 -51t-6.5 -67v-206q0 -37 6.5 -67t22.5 -51t42 -32t64 -11
q50 0 91 27l5 3q11 7 18.5 11.5t21.5 4.5q22 0 36.5 -14t14.5 -33q0 -20 -16 -37.5t-43 -30.5t-61.5 -20.5t-71.5 -7.5q-62 0 -107 18.5t-74.5 52t-44 81t-14.5 106.5v206z" />
    <glyph glyph-name="uni0422" unicode="&#x422;" horiz-adv-x="503" 
d="M20 0zM196 602h-121q-24 0 -39.5 15.5t-15.5 35.5q0 17 16 34.5t39 17.5h352q21 0 38.5 -15t17.5 -37q0 -20 -16.5 -35.5t-39.5 -15.5h-121v-560q0 -20 -16 -36t-39 -16t-39 16t-16 36v560z" />
    <glyph glyph-name="uni0423" unicode="&#x423;" horiz-adv-x="523" 
d="M338 228q-19 -50 -38.5 -92t-45 -73.5t-60.5 -50t-86 -19.5q-24 0 -39.5 13.5t-15.5 35.5q0 18 13.5 33t37.5 17q20 1 35.5 5.5t27.5 14t22 24.5t20 38l-186 473q-2 5 -2.5 10t-0.5 9q0 21 15.5 34.5t38.5 13.5q15 0 28.5 -8.5t20.5 -25.5l88 -227q15 -39 27 -79t25 -80
q32 98 65.5 194t70.5 192q6 17 20 25.5t30 8.5q20 0 37 -14t17 -37q0 -11 -4 -17z" />
    <glyph glyph-name="uni0424" unicode="&#x424;" horiz-adv-x="770" 
d="M330 153h-50q-55 0 -99 15t-75.5 44t-48.5 71t-17 97q0 45 12.5 86.5t41 73.5t74.5 51t112 19h50v52q0 21 17 36.5t38 15.5q25 0 40 -15.5t15 -36.5v-52h50q66 0 112 -19t74.5 -51t41 -73.5t12.5 -86.5q0 -55 -17 -97t-48.5 -71t-75.5 -44t-99 -15h-50v-111
q0 -20 -16 -36t-39 -16t-39 16t-16 36v111zM440 507v-251h50q130 0 130 125q0 23 -5.5 45.5t-20 40.5t-39.5 29t-65 11h-50zM330 256v251h-50q-40 0 -65 -11t-39.5 -29t-20 -40.5t-5.5 -45.5q0 -125 130 -125h50z" />
    <glyph glyph-name="uni0425" unicode="&#x425;" horiz-adv-x="518" 
d="M10 0zM260 277q-36 -63 -72.5 -126t-73.5 -126q-7 -11 -19 -22.5t-32 -11.5q-21 0 -37 16t-16 36q0 8 2.5 15.5t5.5 12.5q45 75 89 148t89 147l-163 269q-7 14 -7 28q0 20 15.5 35.5t36.5 15.5q19 0 33 -12t23 -28l126 -218l126 218q8 13 22.5 26t34.5 14q20 0 35.5 -15
t15.5 -37q0 -11 -7 -27l-162 -269l177 -295q3 -5 5.5 -12.5t2.5 -15.5q0 -20 -16 -36t-36 -16t-32 10.5t-20 23.5l-146 252v0z" />
    <glyph glyph-name="uni0426" unicode="&#x426;" horiz-adv-x="624" 
d="M123 0q-23 0 -39 15.5t-16 36.5v609q0 22 16 37.5t39 15.5t39 -15.5t16 -37.5v-559h243v559q0 22 16.5 37.5t38.5 15.5q23 0 39 -15.5t16 -37.5v-559h25q22 0 38.5 -15.5t16.5 -36.5v-155q0 -22 -16.5 -37.5t-38.5 -15.5t-38.5 15.5t-16.5 37.5v105h-49h-1h-328v0z" />
    <glyph glyph-name="uni0427" unicode="&#x427;" horiz-adv-x="567" 
d="M388 660q0 22 16 38t39 16q22 0 38.5 -15.5t16.5 -38.5v-616q0 -22 -16.5 -37.5t-38.5 -15.5q-23 0 -39 16t-16 37v230q-29 -14 -58.5 -19t-58.5 -5q-106 0 -164.5 58.5t-58.5 167.5v184q0 22 16 38t39 16q22 0 38.5 -15.5t16.5 -38.5v-183q0 -67 30 -96t89 -29t111 26
v282z" />
    <glyph glyph-name="uni0428" unicode="&#x428;" horiz-adv-x="780" 
d="M711 52q0 -21 -16.5 -36.5t-38.5 -15.5h-533q-23 0 -39 15.5t-16 36.5v609q0 22 16 37.5t39 15.5t39 -15.5t16 -37.5v-559h156v560q0 21 16 36.5t39 15.5t39 -15.5t16 -36.5v-560h157v559q0 22 16.5 37.5t38.5 15.5q23 0 39 -15.5t16 -37.5v-609z" />
    <glyph glyph-name="uni0429" unicode="&#x429;" horiz-adv-x="804" 
d="M123 0q-23 0 -39 15.5t-16 36.5v609q0 22 16 37.5t39 15.5t39 -15.5t16 -37.5v-559h156v560q0 21 16 36.5t39 15.5t39 -15.5t16 -36.5v-560h157v559q0 22 16.5 37.5t38.5 15.5q23 0 39 -15.5t16 -37.5v-559h25q22 0 38.5 -15.5t16.5 -36.5v-151q0 -21 -16 -37t-39 -16
q-22 0 -38.5 16t-16.5 37v101h-558v0z" />
    <glyph glyph-name="uni042A" unicode="&#x42a;" horiz-adv-x="679" 
d="M187 603h-117q-23 0 -38.5 14.5t-15.5 36.5q0 20 15.5 35.5t38.5 15.5h167q26 0 43 -18t17 -39v-192h100q55 0 99 -15t75.5 -43.5t48.5 -71t17 -96.5q0 -45 -12.5 -86.5t-41 -73.5t-74.5 -51t-112 -19h-147q-26 0 -44.5 17.5t-18.5 42.5v543zM397 102q40 0 65 11t39.5 29
t20 41t5.5 46q0 64 -33 94t-97 30h-100v-251h100z" />
    <glyph glyph-name="uni042B" unicode="&#x42b;" horiz-adv-x="755" 
d="M273 456q55 0 99 -15t75.5 -43.5t48.5 -71t17 -96.5q0 -45 -12.5 -86.5t-41 -73.5t-74.5 -51t-112 -19h-142q-26 0 -44.5 17.5t-18.5 42.5v600q0 23 16.5 38.5t38.5 15.5q23 0 39 -16t16 -38v-204h95zM178 102h95q40 0 65 11t39.5 29t20 41t5.5 46q0 64 -33 94t-97 30
h-95v-251zM576 662q0 21 16 36.5t39 15.5t39 -15.5t16 -36.5v-620q0 -20 -16 -35.5t-39 -15.5t-39 15.5t-16 35.5v620z" />
    <glyph glyph-name="uni042C" unicode="&#x42c;" horiz-adv-x="560" 
d="M278 456q55 0 99 -15t75.5 -43.5t48.5 -71t17 -96.5q0 -45 -12.5 -86.5t-41 -73.5t-74.5 -51t-112 -19h-147q-26 0 -44.5 17.5t-18.5 42.5v600q0 23 16.5 38.5t38.5 15.5q23 0 39 -16t16 -38v-204h100zM178 102h100q40 0 65 11t39.5 29t20 41t5.5 46q0 64 -33 94t-97 30
h-100v-251z" />
    <glyph glyph-name="uni042D" unicode="&#x42d;" horiz-adv-x="518" 
d="M474 250q0 -59 -14.5 -106.5t-44 -81t-74.5 -52t-107 -18.5q-37 0 -71.5 7.5t-61.5 20.5t-43 30.5t-16 37.5q0 19 14.5 33t36.5 14q14 0 21.5 -4.5t18.5 -11.5q23 -14 45.5 -22t50.5 -8q38 0 64 11t41.5 32t22.5 51t7 67v51h-171q-23 0 -38 15.5t-15 37.5t16 36.5
t37 14.5h171v51q0 37 -7 67t-22.5 51t-41.5 32t-64 11q-44 0 -76 -19q-14 -8 -28.5 -18t-31.5 -10q-22 0 -36.5 14t-14.5 34q0 19 16 36.5t43 31t61.5 21t71.5 7.5q62 0 107 -18.5t74.5 -52t44 -81.5t14.5 -106v-206z" />
    <glyph glyph-name="uni042E" unicode="&#x42e;" horiz-adv-x="798" 
d="M518 -10q-59 0 -103 19.5t-73 53.5t-44 79.5t-15 97.5v62h-105v-259q0 -21 -16 -37t-39 -16t-39 16t-16 37v619q0 21 16 36.5t39 15.5t39 -15.5t16 -36.5v-258h105v61q0 51 13 96.5t41 79t73 53.5t108 20t108 -20t73 -53.5t41 -79t13 -96.5v-225q0 -52 -15 -97.5
t-44 -79.5t-73.5 -53.5t-102.5 -19.5zM518 612q-69 0 -97 -40.5t-28 -106.5v-225q0 -66 30 -106.5t95 -40.5q64 0 94.5 40.5t30.5 106.5v225q0 66 -28 106.5t-97 40.5z" />
    <glyph glyph-name="uni042F" unicode="&#x42f;" horiz-adv-x="581" 
d="M65 499q0 38 11.5 75t38.5 66t72 47t111 18h154q25 0 43 -17.5t18 -42.5v-601q0 -22 -15.5 -38t-38.5 -16t-39.5 16.5t-16.5 37.5v254h-73l-171 -282q-16 -25 -46 -25q-8 0 -18 4t-19 10.5t-15 15.5t-6 20q0 8 2 16.5t6 15.5l148 235q-69 17 -107.5 65t-38.5 126z
M175 499q0 -49 29.5 -74.5t86.5 -25.5h112v204h-106q-38 0 -61.5 -9t-37 -24t-18.5 -33.5t-5 -37.5z" />
    <glyph glyph-name="uni0430" unicode="&#x430;" horiz-adv-x="502" 
d="M40 0zM317 333q0 88 -92 88q-20 0 -33 -4t-26 -9l-19 -8q-10 -5 -26 -5q-22 0 -31.5 14t-9.5 30q0 20 13 34t35 23t50 13t57 4q102 0 146 -52t44 -152v-203q0 -19 7 -24.5t18 -7.5q30 -6 30 -36q0 -42 -59 -42q-52 0 -80 45q-56 -48 -136 -48q-82 0 -123.5 42t-41.5 112
v3q0 151 187 151q46 0 90 -12v44zM230 219q-26 0 -42.5 -5.5t-25.5 -15t-12 -22.5t-3 -27v-3q0 -30 16.5 -46.5t58.5 -16.5q26 0 49 8t46 27v90q-22 5 -45 8t-42 3z" />
    <glyph glyph-name="uni0431" unicode="&#x431;" horiz-adv-x="485" 
d="M40 465q0 96 50 157.5t161 72.5q8 1 17 1.5t20.5 2.5t26.5 7t35 14q2 1 7.5 2.5t13.5 1.5q21 0 35.5 -14t14.5 -34q0 -24 -20 -37.5t-47 -21t-55 -10.5t-44 -4q-21 -2 -40.5 -8t-34.5 -22.5t-23.5 -46.5t-8.5 -81q40 42 108 42q45 0 80 -14t59 -38.5t36.5 -58t12.5 -71.5
v-131q0 -38 -13 -71t-38.5 -57.5t-63.5 -38.5t-87 -14q-50 0 -87.5 14t-63 38.5t-38.5 57.5t-13 71v291zM242 87q47 0 70.5 23t23.5 64v132q0 40 -21.5 63t-68.5 23q-45 0 -70.5 -21.5t-27.5 -59.5v-137q0 -41 23.5 -64t70.5 -23z" />
    <glyph glyph-name="uni0432" unicode="&#x432;" horiz-adv-x="488" 
d="M437 364q0 -37 -18.5 -63.5t-62.5 -43.5q48 -18 69.5 -46.5t21.5 -69.5q0 -62 -45 -101.5t-136 -39.5h-144q-23 0 -38.5 15t-15.5 35v404q0 20 15.5 35.5t38.5 15.5h134q92 0 136.5 -40.5t44.5 -100.5zM340 150q0 12 -3.5 24t-12.5 21t-26 15t-44 6h-78v-131h88
q76 0 76 65zM176 295h80q23 0 37.5 5t22.5 13.5t11 19t3 21.5q0 65 -76 65h-78v-124z" />
    <glyph glyph-name="uni0433" unicode="&#x433;" horiz-adv-x="402" 
d="M176 43q0 -22 -15.5 -36.5t-38.5 -14.5t-38.5 14.5t-15.5 36.5v415q0 20 14.5 33.5t36.5 13.5h225q20 0 35.5 -13.5t15.5 -33.5t-15 -33t-36 -13h-168v-369z" />
    <glyph glyph-name="uni0434" unicode="&#x434;" horiz-adv-x="558" 
d="M425 505q26 0 37.5 -17t11.5 -34v-365h17q26 0 37.5 -16.5t11.5 -33.5v-128q0 -19 -16 -35t-38 -16q-30 0 -42 20.5t-12 47.5v72h-306v-72q0 -26 -12.5 -47t-41.5 -21q-23 0 -38.5 14.5t-15.5 36.5v128q0 18 12.5 34t36.5 16h18q19 24 29.5 68t13.5 106l9 192
q1 23 16.5 36.5t31.5 13.5h240zM366 415h-129l-6 -153q-2 -53 -11.5 -97t-26.5 -76h173v326z" />
    <glyph glyph-name="uni0435" unicode="&#x435;" horiz-adv-x="459" 
d="M45 0zM242 197q-21 0 -43 1.5t-46 5.5v-46q0 -34 23 -54t71 -20q28 0 50 7t47 18q2 2 7.5 3.5t14.5 1.5q26 0 37.5 -15t11.5 -30q0 -23 -19.5 -37.5t-47 -23.5t-58 -12.5t-52.5 -3.5q-46 0 -82 13t-60.5 36t-37.5 54.5t-13 67.5v177q0 37 13 68.5t38 54.5t62 36.5
t85 13.5q91 0 136 -45.5t45 -120.5q0 -71 -43 -110.5t-139 -39.5zM317 350q0 40 -19.5 57t-56.5 17q-42 0 -65 -21t-23 -57v-59q26 -3 51.5 -4.5t36.5 -1.5q43 0 59.5 18.5t16.5 50.5z" />
    <glyph glyph-name="uni0436" unicode="&#x436;" horiz-adv-x="628" 
d="M333 12q-9 -17 -30 -17q-26 0 -34.5 20t-8.5 44v149l-27 -12l-117 -180q-16 -23 -44 -23q-23 0 -37.5 14t-14.5 35q2 11 6.5 20.5t10.5 18.5l111 170l-120 185q-5 7 -6.5 14.5t-1.5 14.5q1 20 15.5 31.5t34.5 11.5q18 0 31 -10.5t24 -26.5q26 -42 54 -83t54 -83h27v137
q0 11 3 23t9.5 22t16.5 16.5t25 6.5q31 0 42.5 -21.5t11.5 -46.5v-137h25q27 42 54.5 82.5t54.5 82.5q11 17 23 28t31 11q24 0 37.5 -14t13.5 -36q-2 -11 -7 -20.5t-10 -17.5l-111 -170l120 -185q5 -6 7 -14.5t2 -15.5q-1 -20 -16 -31t-35 -11q-22 0 -34 11.5t-22 26.5
l-105 162l-28 14v-149q0 -17 -10 -30t-25 -17z" />
    <glyph glyph-name="uni0437" unicode="&#x437;" horiz-adv-x="428" 
d="M379 370q0 -41 -20.5 -69t-68.5 -43q53 -14 76 -43.5t23 -74.5q0 -65 -46.5 -106t-139.5 -41q-21 0 -50.5 3t-55.5 10.5t-44.5 21t-18.5 35.5q0 16 11.5 31.5t34.5 15.5q8 0 15 -2t10 -4q20 -8 43 -15t55 -7q38 0 59 13.5t21 51.5q0 9 -3 19.5t-15 20t-36.5 17
t-66.5 10.5q-17 2 -31 10t-14 32q0 14 6 22t15 12t19.5 5.5t19.5 2.5q33 3 52 11.5t29 19t12.5 21t2.5 18.5q0 56 -77 56q-18 0 -31 -3.5t-24 -7.5t-21 -7.5t-21 -3.5q-17 -1 -28 4t-17 12.5t-8 15t-2 12.5q0 19 15.5 32t39 20.5t51 11t50.5 3.5q89 0 134 -40.5t45 -102.5z
" />
    <glyph glyph-name="uni0438" unicode="&#x438;" horiz-adv-x="550" 
d="M127 -10q-26 0 -42.5 16t-16.5 39v414q0 21 15 36.5t38 15.5t39 -15.5t16 -36.5v-283l194 306q8 14 22.5 21.5t31.5 7.5q26 0 41.5 -15.5t15.5 -39.5v-413q0 -21 -15.5 -37t-38.5 -16t-38.5 16t-15.5 37v281l-194 -306q-9 -13 -22.5 -20.5t-29.5 -7.5z" />
    <glyph glyph-name="uni0439" unicode="&#x439;" horiz-adv-x="550" 
d="M68 0zM275 639q23 0 37 11t25 25q8 9 16 14t21 5q16 0 29 -10t7 -36q-5 -21 -20 -37t-34.5 -27t-41.5 -16.5t-40 -5.5q-20 0 -41.5 6t-41 17.5t-34 27t-18.5 35.5q-6 26 7 36t29 10q14 0 22.5 -6t14.5 -13q11 -14 25.5 -25t37.5 -11zM127 -10q-26 0 -42.5 16t-16.5 39
v414q0 21 15 36.5t38 15.5t39 -15.5t16 -36.5v-283l194 306q8 14 22.5 21.5t31.5 7.5q26 0 41.5 -15.5t15.5 -39.5v-413q0 -21 -15.5 -37t-38.5 -16t-38.5 16t-15.5 37v281l-194 -306q-9 -13 -22.5 -20.5t-29.5 -7.5z" />
    <glyph glyph-name="uni043A" unicode="&#x43a;" horiz-adv-x="456" 
d="M176 46q0 -21 -16 -36.5t-39 -15.5t-38 15.5t-15 36.5v414q0 20 15 35.5t38 15.5t39 -15.5t16 -36.5v-154h37l115 164q11 16 24 27.5t33 11.5t35 -11.5t16 -31.5q0 -7 -2 -15.5t-7 -14.5l-131 -184l131 -185q5 -6 7 -14t2 -15q-1 -21 -16 -32t-35 -11q-22 0 -34 11.5
t-22 25.5l-122 176h-31v-161z" />
    <glyph glyph-name="uni043B" unicode="&#x43b;" horiz-adv-x="551" 
d="M483 43q0 -22 -15.5 -36t-38.5 -14t-38.5 14t-15.5 36v372h-131q-5 -63 -10 -124t-10 -124q-6 -78 -37.5 -124.5t-97.5 -46.5q-14 0 -27.5 1.5t-24.5 6.5t-17.5 14t-6.5 24q0 24 14.5 36.5t31.5 12.5q7 0 10 -1t9 -1q20 0 29 18t13 56l26 292q2 23 16 36.5t32 13.5h240
q26 0 37.5 -17t11.5 -34v-411v0z" />
    <glyph glyph-name="uni043C" unicode="&#x43c;" horiz-adv-x="660" 
d="M328 78q-17 0 -30 8t-21 22l-102 187v-252q0 -21 -16 -36t-38 -15q-23 0 -38 15t-15 36v414q0 23 16 38t41 15q19 0 31.5 -8.5t21.5 -22.5l151 -267l151 267q8 14 20.5 22.5t32.5 8.5q24 0 40.5 -15t16.5 -38v-414q0 -21 -16 -36t-37 -15q-23 0 -38.5 15t-15.5 36v252
l-102 -187q-8 -14 -21 -22t-30 -8h-2z" />
    <glyph glyph-name="uni043D" unicode="&#x43d;" horiz-adv-x="534" 
d="M176 43q0 -22 -15.5 -36.5t-38.5 -14.5t-38.5 14.5t-15.5 36.5v417q0 20 15.5 35t38.5 15t38.5 -15t15.5 -35v-155h182v155q0 20 15.5 35t38.5 15t38.5 -15t15.5 -35v-417q0 -22 -15.5 -36.5t-38.5 -14.5t-38.5 14.5t-15.5 36.5v173h-182v-173v0z" />
    <glyph glyph-name="uni043E" unicode="&#x43e;" horiz-adv-x="494" 
d="M45 0zM247 -8q-50 0 -87.5 14t-63 38.5t-38.5 58t-13 71.5v158q0 39 13 72t38.5 57.5t63 38.5t87.5 14q49 0 87 -14t63.5 -38.5t38.5 -57.5t13 -72v-158q0 -38 -13 -71.5t-38.5 -58t-63.5 -38.5t-87 -14zM247 87q47 0 70.5 23t23.5 64v159q0 40 -23.5 63t-70.5 23
t-70.5 -23t-23.5 -63v-159q0 -41 23.5 -64t70.5 -23z" />
    <glyph glyph-name="uni043F" unicode="&#x43f;" horiz-adv-x="524" 
d="M176 43q0 -22 -15.5 -36t-38.5 -14t-38.5 14t-15.5 36v411q0 21 15.5 36t38.5 15h280q23 0 38.5 -15t15.5 -36v-411q0 -22 -15.5 -36t-38.5 -14t-38.5 14t-15.5 36v372h-172v-372v0z" />
    <glyph glyph-name="uni0440" unicode="&#x440;" horiz-adv-x="503" 
d="M48 0zM279 -7q-23 0 -47.5 4.5t-51.5 15.5v-177q0 -21 -14 -35.5t-40 -14.5t-40 15t-14 35v527q0 21 -3 34t-11 24q-5 6 -7.5 12t-2.5 14q0 22 16 35t34 13q26 0 46 -26q35 20 69.5 32t73.5 12q41 0 73 -14t53.5 -39.5t33 -60.5t11.5 -78v-123q0 -45 -9 -82.5t-30 -64.5
t-55 -42.5t-85 -15.5zM180 101q23 -9 46.5 -13t40.5 -4q46 0 64.5 27.5t18.5 86.5v123q0 99 -81 99q-21 0 -44.5 -7t-48.5 -20q2 -8 3 -15.5t1 -14.5v-262z" />
    <glyph glyph-name="uni0441" unicode="&#x441;" horiz-adv-x="416" 
d="M45 0zM45 323q0 39 11.5 73.5t35 59.5t60 39.5t86.5 14.5q20 0 46.5 -3t50.5 -11.5t41 -23t17 -36.5q0 -16 -11 -29t-37 -13q-12 0 -25 4q-17 8 -33 14t-41 6q-51 0 -72 -25t-21 -70v-143q0 -45 21 -70.5t72 -25.5q25 0 41 6t33 14q6 2 11 3.5t13 1.5q26 0 37.5 -13.5
t11.5 -29.5q0 -22 -17 -36.5t-41 -22.5t-51 -11.5t-47 -3.5q-50 0 -86 14.5t-59.5 40t-35 60t-11.5 73.5v143z" />
    <glyph glyph-name="uni0442" unicode="&#x442;" horiz-adv-x="428" 
d="M268 43q0 -22 -15.5 -36.5t-38.5 -14.5t-38.5 14.5t-15.5 36.5v365h-89q-22 0 -36.5 14t-14.5 34q0 21 14.5 35t36.5 14h286q21 0 36 -14t15 -35q0 -20 -15 -34t-36 -14h-89v-365z" />
    <glyph glyph-name="uni0443" unicode="&#x443;" horiz-adv-x="443" 
d="M16 0zM304 69q-19 -59 -37.5 -109t-43.5 -86t-60.5 -56.5t-88.5 -20.5q-24 0 -39.5 14t-15.5 35q0 18 13.5 32.5t37.5 16.5q40 0 62.5 28.5t43.5 91.5l-157 428q-2 5 -2.5 10.5t-0.5 9.5q0 20 15.5 33.5t38.5 13.5q15 0 29 -8.5t20 -25.5l9 -27q26 -76 51 -151t50 -153
q23 85 46 166.5t49 164.5q5 17 20.5 25.5t30.5 8.5q20 0 37 -13.5t17 -36.5q0 -8 -3 -15z" />
    <glyph glyph-name="uni0444" unicode="&#x444;" horiz-adv-x="624" 
d="M257 -6q-53 2 -92.5 20t-66 48t-40 71t-13.5 88v72q0 45 13.5 84.5t40 68.5t66 46.5t92.5 19.5v161q0 20 15.5 35t38.5 15t38.5 -14.5t15.5 -35.5v-161q52 0 92 -17.5t67 -47.5t41 -70t14 -84v-72q0 -46 -14 -87.5t-41 -72.5t-67 -49t-92 -18v-157q0 -21 -15.5 -35.5
t-38.5 -14.5t-38.5 14.5t-15.5 35.5v157zM366 417q-1 -6 -1 -12v-11v-305q111 14 111 132v73q0 54 -27.5 86.5t-82.5 36.5zM257 416q-55 -4 -82 -36t-27 -86v-73q0 -58 27 -92.5t82 -39.5v327z" />
    <glyph glyph-name="uni0445" unicode="&#x445;" horiz-adv-x="451" 
d="M20 0zM423 68q8 -11 8 -24q0 -21 -15 -36.5t-40 -15.5q-19 0 -29.5 7.5t-21.5 24.5l-100 147l-106 -154q-18 -25 -44 -25q-23 0 -39 14t-16 37q0 13 7 23l135 190l-125 179q-9 14 -9 24q0 20 15.5 35.5t38.5 15.5t35 -12.5t21 -25.5l89 -129l92 137q9 14 20 22t30 8
t36 -14t17 -34q0 -6 -1.5 -13t-6.5 -13l-125 -179z" />
    <glyph glyph-name="uni0446" unicode="&#x446;" horiz-adv-x="549" 
d="M466 89q26 0 46 -12t20 -38v-109q0 -28 -11.5 -50t-42.5 -22q-23 0 -38.5 14.5t-15.5 35.5v92h-302q-22 0 -38 14t-16 36v410q0 20 15.5 35t38.5 15q32 0 43 -23t11 -52v-346h182v371q0 20 15.5 35t38.5 15t38.5 -14t15.5 -36v-371z" />
    <glyph glyph-name="uni0447" unicode="&#x447;" horiz-adv-x="493" 
d="M153 327q0 -12 2.5 -24t10.5 -21t22 -14.5t38 -5.5q12 0 37.5 3t52.5 8v187q0 20 15.5 35t38.5 15t38.5 -15t15.5 -35v-417q0 -22 -15.5 -36.5t-38.5 -14.5t-38.5 14.5t-15.5 36.5v143q-24 -8 -46.5 -10.5t-40.5 -2.5q-98 0 -141 41t-43 113v133q0 20 15.5 35t38.5 15
t38.5 -15t15.5 -35v-133z" />
    <glyph glyph-name="uni0448" unicode="&#x448;" horiz-adv-x="725" 
d="M656 50q0 -21 -15.5 -35.5t-38.5 -14.5h-480q-23 0 -38.5 14.5t-15.5 35.5v410q0 22 15.5 36t38.5 14t38.5 -14t15.5 -36v-371h132v371q0 20 15.5 35t38.5 15t38.5 -15t15.5 -35v-371h132v371q0 22 15.5 36t38.5 14t38.5 -14t15.5 -36v-410z" />
    <glyph glyph-name="uni0449" unicode="&#x449;" horiz-adv-x="738" 
d="M656 89q26 -4 46 -24t20 -49v-108q0 -21 -15.5 -35.5t-38.5 -14.5t-38.5 14.5t-15.5 35.5v92h-492q-23 0 -38.5 14.5t-15.5 35.5v410q0 22 15.5 36t38.5 14t38.5 -14t15.5 -36v-371h132v371q0 20 15.5 35t38.5 15t38.5 -15t15.5 -35v-371h132v371q0 22 15.5 36t38.5 14
t38.5 -14t15.5 -36v-371z" />
    <glyph glyph-name="uni044A" unicode="&#x44a;" horiz-adv-x="555" 
d="M63 412q-21 0 -36 13t-15 33t15.5 33.5t35.5 13.5h125q22 0 36.5 -13.5t14.5 -33.5v-148h92q101 0 145 -41t44 -117q0 -68 -43.5 -110t-132.5 -42h-159q-23 0 -38.5 15t-15.5 35v362h-68zM239 220v-130h103q71 0 71 65q0 12 -3 23.5t-12 21t-25 15t-42 5.5h-92z" />
    <glyph glyph-name="uni044B" unicode="&#x44b;" horiz-adv-x="689" 
d="M620 43q0 -22 -15.5 -36.5t-38.5 -14.5t-38.5 14.5t-15.5 36.5v417q0 20 15.5 35t38.5 15t38.5 -15t15.5 -35v-417zM176 310h92q101 0 145 -41t44 -117q0 -68 -44 -110t-132 -42h-159q-23 0 -38.5 15t-15.5 35v410q0 20 15.5 35t38.5 15t38.5 -15t15.5 -35v-150zM176 220
v-130h103q71 0 71 65q0 12 -3 23.5t-12 21t-25 15t-42 5.5h-92z" />
    <glyph glyph-name="uni044C" unicode="&#x44c;" horiz-adv-x="492" 
d="M176 310h92q101 0 145 -41t44 -117q0 -68 -44 -110t-132 -42h-159q-23 0 -38.5 15t-15.5 35v410q0 20 15.5 35t38.5 15t38.5 -15t15.5 -35v-150zM176 220v-130h103q71 0 71 65q0 12 -3 23.5t-12 21t-25 15t-42 5.5h-92z" />
    <glyph glyph-name="uni044D" unicode="&#x44d;" horiz-adv-x="413" 
d="M126 207q-20 0 -35.5 13.5t-15.5 33.5t14.5 33t36.5 13h138q0 56 -18 87t-66 31q-18 0 -32.5 -4t-27 -8.5t-24 -8t-23.5 -3.5q-20 0 -34.5 13t-14.5 32q0 21 18 34.5t43.5 21.5t53.5 11.5t49 3.5q48 0 82.5 -15t57 -41.5t33.5 -62.5t11 -78v-124q0 -42 -11 -77.5
t-33.5 -62t-57 -41.5t-82.5 -15q-21 0 -49 3.5t-53.5 11.5t-43.5 21.5t-18 33.5q0 19 14 32.5t35 13.5q12 0 23.5 -4t24 -8.5t27 -8.5t32.5 -4q45 0 64.5 27.5t19.5 77.5v18h-138z" />
    <glyph glyph-name="uni044E" unicode="&#x44e;" horiz-adv-x="711" 
d="M176 43q0 -22 -15.5 -36.5t-38.5 -14.5t-38.5 14.5t-15.5 36.5v417q0 20 15.5 35t38.5 15t38.5 -15t15.5 -35v-155h95v26q0 39 13 72t38 57.5t62 38.5t86 14t86.5 -14t62.5 -38.5t38 -57.5t13 -72v-157q0 -38 -13 -71.5t-38 -58t-62.5 -38.5t-86.5 -14t-86 14t-62 38.5
t-38 58t-13 71.5v42h-95v-173zM470 87q46 0 69 23t23 64v158q0 40 -23 63t-69 23q-45 0 -68 -23t-23 -63v-158q0 -41 23 -64t68 -23z" />
    <glyph glyph-name="uni044F" unicode="&#x44f;" horiz-adv-x="507" 
d="M384 -8q-23 0 -38.5 15t-15.5 36v152h-65l-124 -179q-18 -24 -44 -24q-23 0 -37 12t-15 32q0 7 2 15.5t6 14.5l99 140q-55 16 -79 52.5t-24 93.5q0 69 45 111t136 42h154q23 0 38.5 -15.5t15.5 -35.5v-411q0 -21 -15.5 -36t-38.5 -15zM156 349q0 -12 3 -23.5t12.5 -20.5
t26.5 -15t45 -6h87v130h-98q-76 0 -76 -65z" />
    <glyph glyph-name="uni0450" unicode="&#x450;" horiz-adv-x="459" 
d="M45 0zM242 197q-21 0 -43 1.5t-46 5.5v-46q0 -34 23 -54t71 -20q28 0 50 7t47 18q2 2 7.5 3.5t14.5 1.5q26 0 37.5 -15t11.5 -30q0 -23 -19.5 -37.5t-47 -23.5t-58 -12.5t-52.5 -3.5q-46 0 -82 13t-60.5 36t-37.5 54.5t-13 67.5v177q0 37 13 68.5t38 54.5t62 36.5
t85 13.5q91 0 136 -45.5t45 -120.5q0 -71 -43 -110.5t-139 -39.5zM317 350q0 40 -19.5 57t-56.5 17q-42 0 -65 -21t-23 -57v-59q26 -3 51.5 -4.5t36.5 -1.5q43 0 59.5 18.5t16.5 50.5zM214 707q11 -11 25.5 -24.5t28 -27.5t23 -26.5t9.5 -21.5q0 -19 -12.5 -30.5
t-29.5 -11.5q-13 0 -21.5 5t-17.5 15l-75 78q-13 13 -13 28q0 18 13 29.5t27 11.5q13 0 19 -3.5t14 -11.5l10 -10v0z" />
    <glyph glyph-name="uni0451" unicode="&#x451;" horiz-adv-x="459" 
d="M45 0zM242 197q-21 0 -43 1.5t-46 5.5v-46q0 -34 23 -54t71 -20q28 0 50 7t47 18q2 2 7.5 3.5t14.5 1.5q26 0 37.5 -15t11.5 -30q0 -23 -19.5 -37.5t-47 -23.5t-58 -12.5t-52.5 -3.5q-46 0 -82 13t-60.5 36t-37.5 54.5t-13 67.5v177q0 37 13 68.5t38 54.5t62 36.5
t85 13.5q91 0 136 -45.5t45 -120.5q0 -71 -43 -110.5t-139 -39.5zM317 350q0 40 -19.5 57t-56.5 17q-42 0 -65 -21t-23 -57v-59q26 -3 51.5 -4.5t36.5 -1.5q43 0 59.5 18.5t16.5 50.5zM383 634q0 -23 -16.5 -39.5t-39.5 -16.5t-40 16.5t-17 39.5q0 22 17 38t40 16
t39.5 -15.5t16.5 -38.5zM209 634q0 -23 -16.5 -39.5t-40.5 -16.5q-23 0 -39 16.5t-16 39.5q0 22 16 38t39 16q24 0 40.5 -15.5t16.5 -38.5z" />
    <glyph glyph-name="uni0452" unicode="&#x452;" horiz-adv-x="602" 
d="M424 288q0 51 -17 76t-55 25q-26 0 -53.5 -11t-47.5 -34v-281q0 -28 -11 -49t-42 -21q-23 0 -38.5 14t-15.5 36v516h-77q-20 0 -33.5 12.5t-13.5 30.5q0 17 13.5 30t33.5 13h77v33q0 17 15 34t38 17t38.5 -14.5t15.5 -36.5v-33h75q19 0 32.5 -13t13.5 -30t-13.5 -30
t-32.5 -13h-75v-107q23 16 51 24.5t59 8.5q44 0 76 -14.5t53 -40.5t31.5 -62t10.5 -79v-221q0 -118 -41.5 -189.5t-133.5 -80.5q-22 0 -36 14t-14 34t14.5 30t28.5 14q35 9 54.5 41.5t19.5 98.5v258z" />
    <glyph glyph-name="uni0453" unicode="&#x453;" horiz-adv-x="402" 
d="M68 0zM278 717q8 8 14 11.5t19 3.5q14 0 27 -11.5t13 -29.5q0 -15 -13 -28l-75 -78q-9 -10 -17.5 -15t-21.5 -5q-17 0 -29.5 11.5t-12.5 30.5q0 9 9.5 21.5t23 26.5t28 27.5t25.5 24.5zM176 43q0 -22 -15.5 -36.5t-38.5 -14.5t-38.5 14.5t-15.5 36.5v415q0 20 14.5 33.5
t36.5 13.5h225q20 0 35.5 -13.5t15.5 -33.5t-15 -33t-36 -13h-168v-369z" />
    <glyph glyph-name="uni0454" unicode="&#x454;" horiz-adv-x="416" 
d="M153 207v-22q0 -48 20 -74.5t68 -26.5q22 0 36.5 5t29.5 10l20 7q8 2 13 2q26 0 39.5 -11.5t13.5 -30.5q0 -22 -17.5 -36t-42.5 -22.5t-52.5 -11.5t-48.5 -3q-48 0 -83.5 15t-58.5 40.5t-34 60.5t-11 76v133q0 40 11 75.5t34 61t58.5 40.5t84.5 15q20 0 47.5 -3
t52.5 -11.5t42.5 -23t17.5 -36.5q0 -19 -14.5 -30.5t-37.5 -11.5q-4 0 -12 2q-23 6 -41 14t-47 8q-48 0 -68 -26t-20 -74v-18h138q20 0 35.5 -13t15.5 -33t-15 -33.5t-36 -13.5h-138z" />
    <glyph glyph-name="uni0455" unicode="&#x455;" horiz-adv-x="431" 
d="M42 0zM48 363q0 68 44.5 109t132.5 41q22 0 47.5 -3.5t47 -11.5t35.5 -22t14 -36q0 -20 -12 -30.5t-32 -10.5q-12 0 -21.5 3.5t-20.5 7.5t-24.5 7.5t-33.5 3.5q-9 0 -21.5 -1.5t-23.5 -6.5t-18.5 -14.5t-7.5 -25.5q0 -25 17.5 -39t43 -24.5t56 -21t56 -27.5t43 -44.5
t17.5 -72.5q0 -70 -46 -110.5t-136 -40.5q-21 0 -49.5 3t-53.5 10.5t-42.5 20t-17.5 32.5q0 7 2.5 17t9 18t17 12.5t27.5 0.5q14 -3 42.5 -13t60.5 -10q34 0 57 15.5t23 42.5q0 23 -17.5 36.5t-43 23.5t-56 19.5t-56 26.5t-43 44t-17.5 71z" />
    <glyph glyph-name="uni0456" unicode="&#x456;" horiz-adv-x="265" 
d="M69 0zM195 656q-1 -25 -19 -42t-44 -17q-27 0 -45 17.5t-18 41.5q0 25 18 42t45 17q26 0 44.5 -17.5t18.5 -41.5zM186 43q0 -22 -15.5 -36t-38.5 -14t-38.5 14t-15.5 36v417q0 20 15.5 35t38.5 15t38.5 -15t15.5 -35v-417z" />
    <glyph glyph-name="uni0457" unicode="&#x457;" horiz-adv-x="265" 
d="M186 43q0 -22 -15.5 -36.5t-38.5 -14.5t-38.5 14.5t-15.5 36.5v417q0 20 15.5 35t38.5 15t38.5 -15t15.5 -35v-417zM283 624q0 -24 -17.5 -41t-41.5 -17q-25 0 -42.5 17.5t-17.5 40.5t17.5 40t42.5 17q24 0 41.5 -16.5t17.5 -40.5zM99 624q0 -24 -17 -41t-42 -17
t-41.5 17.5t-16.5 40.5t16.5 40t41.5 17t42 -16.5t17 -40.5z" />
    <glyph glyph-name="uni0458" unicode="&#x458;" horiz-adv-x="265" 
d="M0 0zM192 -11q0 -42 -12 -77t-34.5 -60.5t-55 -39.5t-73.5 -14q-22 0 -35.5 14t-13.5 34t14.5 30.5t28.5 13.5q34 7 53.5 28.5t19.5 67.5v474q0 20 15.5 35t38.5 15t38.5 -15t15.5 -35v-471zM201 656q0 -25 -18.5 -42t-44.5 -17q-27 0 -45 17.5t-18 41.5q0 25 18 42
t45 17q26 0 44.5 -17.5t18.5 -41.5z" />
    <glyph glyph-name="uni0459" unicode="&#x459;" horiz-adv-x="761" 
d="M416 505q26 0 37.5 -17t11.5 -34v-144h72q101 0 145 -41t44 -117q0 -68 -43.5 -110t-132.5 -42h-139q-23 0 -38.5 15t-15.5 35v365h-110l-21 -248q-7 -78 -37.5 -124.5t-97.5 -46.5q-14 0 -27 0.5t-23 4.5t-16 13t-6 26q0 27 14 39t34 12q3 0 4.5 -0.5t5.5 -0.5
q20 0 30.5 16t14.5 57l26 292q2 23 16 36.5t32 13.5h220zM465 220v-130h83q34 0 52.5 16.5t18.5 48.5q0 12 -3 23.5t-12 21t-25 15t-42 5.5h-72z" />
    <glyph glyph-name="uni045A" unicode="&#x45a;" horiz-adv-x="742" 
d="M176 43q0 -22 -15.5 -36.5t-38.5 -14.5t-38.5 14.5t-15.5 36.5v417q0 20 15.5 35t38.5 15t38.5 -15t15.5 -35v-155h162v155q0 20 15.5 35t38.5 15t38.5 -15t15.5 -35v-155h72q101 0 145 -39.5t44 -113.5q0 -68 -44 -110t-132 -42h-139q-23 0 -38.5 15t-15.5 35v166h-162
v-173zM446 216v-126h83q71 0 71 65q0 11 -3 22t-12 19.5t-25 14t-42 5.5h-72z" />
    <glyph glyph-name="uni045B" unicode="&#x45b;" horiz-adv-x="602" 
d="M372 602q0 -17 -13.5 -30t-32.5 -13h-75v-104q23 14 51 22t59 8q88 0 129.5 -48t41.5 -123v-271q0 -22 -16 -36.5t-38 -14.5q-23 0 -38.5 14.5t-15.5 36.5v270q0 38 -17 57t-55 19q-26 0 -53.5 -11t-47.5 -34v-301q0 -22 -15 -36.5t-38 -14.5t-38.5 14.5t-15.5 36.5v516
h-77q-20 0 -33.5 12.5t-13.5 30.5q0 17 13.5 30t33.5 13h77v33q0 20 15 35.5t38 15.5t38.5 -14.5t15.5 -36.5v-33h75q19 0 32.5 -13t13.5 -30z" />
    <glyph glyph-name="uni045C" unicode="&#x45c;" horiz-adv-x="456" 
d="M68 0zM297 717q8 8 14 11.5t19 3.5q14 0 27 -11.5t13 -29.5q0 -15 -13 -28l-75 -78q-9 -10 -17.5 -15t-21.5 -5q-17 0 -29.5 11.5t-12.5 30.5q0 9 9.5 21.5t23 26.5t28 27.5t25.5 24.5zM176 46q0 -21 -16 -36.5t-39 -15.5t-38 15.5t-15 36.5v414q0 20 15 35.5t38 15.5
t39 -15.5t16 -36.5v-154h37l115 164q11 16 24 27.5t33 11.5t35 -11.5t16 -31.5q0 -7 -2 -15.5t-7 -14.5l-131 -184l131 -185q5 -6 7 -14t2 -15q-1 -21 -16 -32t-35 -11q-22 0 -34 11.5t-22 25.5l-122 176h-31v-161z" />
    <glyph glyph-name="uni045D" unicode="&#x45d;" horiz-adv-x="550" 
d="M68 0zM246 707q11 -11 25.5 -24.5t28 -27.5t23 -26.5t9.5 -21.5q0 -19 -12.5 -30.5t-29.5 -11.5q-13 0 -21.5 5t-17.5 15l-75 78q-13 13 -13 28q0 18 13 29.5t27 11.5q13 0 19 -3.5t14 -11.5l10 -10v0zM127 -10q-26 0 -42.5 16t-16.5 39v414q0 21 15 36.5t38 15.5
t39 -15.5t16 -36.5v-283l194 306q8 14 22.5 21.5t31.5 7.5q26 0 41.5 -15.5t15.5 -39.5v-413q0 -21 -15.5 -37t-38.5 -16t-38.5 16t-15.5 37v281l-194 -306q-9 -13 -22.5 -20.5t-29.5 -7.5z" />
    <glyph glyph-name="uni045E" unicode="&#x45e;" horiz-adv-x="443" 
d="M16 0zM304 69q-19 -59 -37.5 -109t-43.5 -86t-60.5 -56.5t-88.5 -20.5q-24 0 -39.5 14t-15.5 35q0 18 13.5 32.5t37.5 16.5q40 0 62.5 28.5t43.5 91.5l-157 428q-2 5 -2.5 10.5t-0.5 9.5q0 20 15.5 33.5t38.5 13.5q15 0 29 -8.5t20 -25.5l9 -27q26 -76 51 -151t50 -153
q23 85 46 166.5t49 164.5q5 17 20.5 25.5t30.5 8.5q20 0 37 -13.5t17 -36.5q0 -8 -3 -15zM221 639q23 0 37 11t25 25q8 9 16 14t21 5q16 0 29 -10t7 -36q-5 -21 -20 -37t-34.5 -27t-41.5 -16.5t-40 -5.5q-20 0 -41.5 6t-41 17.5t-34 27t-18.5 35.5q-6 26 7 36t29 10
q14 0 22.5 -6t14.5 -13q11 -14 25.5 -25t37.5 -11z" />
    <glyph glyph-name="uni045F" unicode="&#x45f;" horiz-adv-x="524" 
d="M316 -92q0 -21 -15.5 -35.5t-38.5 -14.5t-38.5 14.5t-15.5 35.5v92h-86q-22 0 -38 14t-16 36v412q0 20 15.5 35t38.5 15q32 0 43 -23t11 -53v-347h172v347q0 15 2 29t8 24.5t16.5 16.5t27.5 6q23 0 38.5 -14.5t15.5 -35.5v-412q0 -21 -15.5 -35.5t-38.5 -14.5h-86v-92v0z
" />
    <glyph glyph-name="uni0462" unicode="&#x462;" horiz-adv-x="664" 
d="M483 611q0 -19 -15.5 -32.5t-35.5 -13.5h-166v-128h100q55 0 99 -14t75.5 -42t48.5 -68.5t17 -92.5q0 -43 -12.5 -83t-41 -70.5t-74.5 -48.5t-112 -18h-147q-35 0 -49 25t-14 57v483h-86q-22 0 -36 14t-14 31t14.5 32.5t35.5 15.5h86v52q0 20 16 36t39 16t39 -15.5
t16 -36.5v-52h166q20 0 35.5 -13.5t15.5 -33.5zM366 102q40 0 65 10.5t39.5 27t20 37.5t5.5 42q0 115 -130 115h-100v-232h100z" />
    <glyph glyph-name="uni0463" unicode="&#x463;" horiz-adv-x="602" 
d="M372 555q0 -17 -13.5 -30t-32.5 -13h-74v-155h87q102 0 148 -46t46 -128q0 -84 -45 -133.5t-136 -49.5h-154q-31 0 -42.5 20.5t-11.5 48.5v443h-63q-10 0 -20.5 3t-19.5 8.5t-15 13.5t-6 19q0 20 18 31t43 11h63v56q0 26 12.5 45.5t41.5 19.5t41.5 -19.5t12.5 -45.5v-56
h74q13 0 29.5 -13t16.5 -30zM252 268v-178h98q76 0 76 92q0 15 -3 30.5t-12.5 28t-26.5 20t-45 7.5h-87z" />
    <glyph glyph-name="uni0490" unicode="&#x490;" horiz-adv-x="466" 
d="M68 648q0 21 17 39t43 18h216v79q0 21 16 37t39 16t39 -16t16 -37v-130q0 -22 -15.5 -36.5t-38.5 -14.5h-222v-560q0 -20 -16 -36t-39 -16t-39 16t-16 36v605v0z" />
    <glyph glyph-name="uni0491" unicode="&#x491;" horiz-adv-x="412" 
d="M290 588q0 20 15.5 35.5t38.5 15.5q31 0 42.5 -22t11.5 -50v-105q0 -15 -6.5 -25t-17.5 -15.5t-24.5 -7.5t-28.5 -2h-145v-369q0 -20 -16 -35t-38 -15q-23 0 -38.5 14t-15.5 36v415q0 20 14.5 33.5t36.5 13.5h171v83z" />
    <glyph glyph-name="Wgrave" unicode="&#x1e80;" horiz-adv-x="803" 
d="M13 0zM443 299q-12 51 -21.5 102.5t-20.5 103.5q-23 -115 -49 -228t-52 -228q-6 -20 -21 -39t-47 -19q-26 0 -44.5 18t-23.5 41q-39 154 -76.5 306.5t-74.5 306.5q0 23 19.5 35.5t40.5 12.5q17 0 31.5 -9.5t19.5 -29.5q17 -71 34 -141l34 -140q12 -49 21 -98.5t20 -98.5
q11 51 20.5 104.5t22.5 105.5l59 244q8 32 20.5 49t45.5 17q32 0 45 -18t21 -48l58 -244q12 -53 21.5 -105.5t21.5 -105.5q11 50 20.5 99t21.5 99l67 280q5 19 18.5 29.5t30.5 10.5q21 0 42 -11.5t21 -37.5v-4.5t-2 -7.5l-149 -600q-7 -23 -23 -41t-45 -18t-46 18.5
t-22 41.5zM399 907q11 -11 25.5 -24.5t28 -27.5t23 -26.5t9.5 -21.5q0 -19 -12.5 -30.5t-29.5 -11.5q-13 0 -21.5 5t-17.5 15l-75 78q-13 13 -13 28q0 18 13 29.5t27 11.5q13 0 19 -3.5t14 -11.5l10 -10v0z" />
    <glyph glyph-name="wgrave" unicode="&#x1e81;" horiz-adv-x="675" 
d="M20 0zM538 44q-8 -26 -21.5 -38.5t-42.5 -12.5q-20 0 -38 10.5t-23 30.5l-75 317q-18 -81 -36 -159.5t-39 -157.5q-6 -23 -21 -32t-40 -9q-27 0 -42.5 13.5t-22.5 38.5l-116 407q-1 4 -1 10q0 19 15.5 33.5t38.5 14.5q17 0 31 -9.5t19 -26.5l49 -188q10 -38 16 -77
t14 -78q10 45 18 89.5t19 89.5l39 157q5 19 20.5 31t39.5 12q23 0 37.5 -12t19.5 -31l39 -157q11 -45 19 -89.5t19 -89.5q8 39 14 78t16 77l48 188q4 15 19 25.5t32 10.5q21 0 37 -14t16 -36q0 -1 -0.5 -3.5t-0.5 -4.5zM336 707q11 -11 25.5 -24.5t28 -27.5t23 -26.5
t9.5 -21.5q0 -19 -12.5 -30.5t-29.5 -11.5q-13 0 -21.5 5t-17.5 15l-75 78q-13 13 -13 28q0 18 13 29.5t27 11.5q13 0 19 -3.5t14 -11.5l10 -10v0z" />
    </font>
</defs>
</svg>
